# Wavefront OBJ file automatically generated by Tiled2Unity

# Vertices (Count = 768)
v -1.6 -1.6 0
v -3.2 -1.6 0
v -3.2 0 0
v -1.6 0 0
v -4.8 -1.6 0
v -4.8 0 0
v -6.4 -1.6 0
v -6.4 0 0
v -8 -1.6 0
v -8 0 0
v -9.6 -1.6 0
v -9.6 0 0
v -11.2 -1.6 0
v -11.2 0 0
v -12.8 -1.6 0
v -12.8 0 0
v -14.4 -1.6 0
v -14.4 0 0
v -16 -1.6 0
v -16 0 0
v -17.6 -1.6 0
v -17.6 0 0
v -19.2 -1.6 0
v -19.2 0 0
v -20.8 -1.6 0
v -20.8 0 0
v -22.4 -1.6 0
v -22.4 0 0
v -24 -1.6 0
v -24 0 0
v -25.6 -1.6 0
v -25.6 0 0
v -27.2 -1.6 0
v -27.2 0 0
v -28.8 -1.6 0
v -28.8 0 0
v -30.4 -1.6 0
v -30.4 0 0
v -32 -1.6 0
v -32 0 0
v -33.6 -1.6 0
v -33.6 0 0
v -35.2 -1.6 0
v -35.2 0 0
v -36.8 -1.6 0
v -36.8 0 0
v -38.4 -1.6 0
v -38.4 0 0
v -40 -1.6 0
v -40 0 0
v -41.6 -1.6 0
v -41.6 0 0
v -43.2 -1.6 0
v -43.2 0 0
v -8 -20 0
v -9.6 -20 0
v -9.6 -18.4 0
v -8 -18.4 0
v -11.2 -20 0
v -11.2 -18.4 0
v -12.8 -20 0
v -12.8 -18.4 0
v -14.4 -20 0
v -14.4 -18.4 0
v -16 -20 0
v -16 -18.4 0
v -17.6 -20 0
v -17.6 -18.4 0
v -19.2 -20 0
v -19.2 -18.4 0
v -20.8 -20 0
v -20.8 -18.4 0
v -22.4 -20 0
v -22.4 -18.4 0
v -24 -20 0
v -24 -18.4 0
v -25.6 -20 0
v -25.6 -18.4 0
v -27.2 -20 0
v -27.2 -18.4 0
v -28.8 -20 0
v -28.8 -18.4 0
v -30.4 -20 0
v -30.4 -18.4 0
v -32 -20 0
v -32 -18.4 0
v -33.6 -20 0
v -33.6 -18.4 0
v -35.2 -20 0
v -35.2 -18.4 0
v -36.8 -20 0
v -36.8 -18.4 0
v -38.4 -20 0
v -38.4 -18.4 0
v -40 -20 0
v -40 -18.4 0
v -41.6 -20 0
v -41.6 -18.4 0
v -43.2 -20 0
v -43.2 -18.4 0
v -1.6 -24.8 0
v -3.2 -24.8 0
v -3.2 -23.2 0
v -1.6 -23.2 0
v -4.8 -24.8 0
v -4.8 -23.2 0
v -6.4 -24.8 0
v -6.4 -23.2 0
v -8 -24.8 0
v -8 -23.2 0
v -8 -28.4 0
v -9.6 -28.4 0
v -9.6 -26.8 0
v -8 -26.8 0
v -11.2 -28.4 0
v -11.2 -26.8 0
v -12.8 -28.4 0
v -12.8 -26.8 0
v -14.4 -28.4 0
v -14.4 -26.8 0
v -16 -28.4 0
v -16 -26.8 0
v -17.6 -28.4 0
v -17.6 -26.8 0
v -19.2 -28.4 0
v -19.2 -26.8 0
v -20.8 -28.4 0
v -20.8 -26.8 0
v -22.4 -28.4 0
v -22.4 -26.8 0
v -24 -28.4 0
v -24 -26.8 0
v -25.6 -28.4 0
v -25.6 -26.8 0
v -27.2 -28.4 0
v -27.2 -26.8 0
v -28.8 -28.4 0
v -28.8 -26.8 0
v -30.4 -28.4 0
v -30.4 -26.8 0
v -32 -28.4 0
v -32 -26.8 0
v -33.6 -28.4 0
v -33.6 -26.8 0
v -35.2 -28.4 0
v -35.2 -26.8 0
v -36.8 -28.4 0
v -36.8 -26.8 0
v -8 -30 0
v -9.6 -30 0
v -4.8 -31.6 0
v -6.4 -31.6 0
v -6.4 -30 0
v -4.8 -30 0
v -8 -31.6 0
v -9.6 -31.6 0
v -8 -33.2 0
v -9.6 -33.2 0
v -8 -34.8 0
v -9.6 -34.8 0
v -1.6 -36.4 0
v -3.2 -36.4 0
v -3.2 -34.8 0
v -1.6 -34.8 0
v -4.8 -36.4 0
v -4.8 -34.8 0
v -6.4 -36.4 0
v -6.4 -34.8 0
v -8 -36.4 0
v -9.6 -36.4 0
v -11.2 -36.4 0
v -11.2 -34.8 0
v -12.8 -36.4 0
v -12.8 -34.8 0
v -14.4 -36.4 0
v -14.4 -34.8 0
v -19.2 -38.8 0
v -20.8 -38.8 0
v -20.8 -37.2 0
v -19.2 -37.2 0
v -22.4 -38.8 0
v -22.4 -37.2 0
v -24 -38.8 0
v -24 -37.2 0
v -25.6 -38.8 0
v -25.6 -37.2 0
v -27.2 -38.8 0
v -27.2 -37.2 0
v -28.8 -38.8 0
v -28.8 -37.2 0
v -30.4 -38.8 0
v -30.4 -37.2 0
v -32 -38.8 0
v -32 -37.2 0
v -40 -41.2 0
v -41.6 -41.2 0
v -41.6 -39.6 0
v -40 -39.6 0
v -43.2 -41.2 0
v -43.2 -39.6 0
v -1.6 -45.2 0
v -3.2 -45.2 0
v -3.2 -43.6 0
v -1.6 -43.6 0
v -4.8 -45.2 0
v -4.8 -43.6 0
v -6.4 -45.2 0
v -6.4 -43.6 0
v -8 -45.2 0
v -8 -43.6 0
v -9.6 -45.2 0
v -9.6 -43.6 0
v -11.2 -45.2 0
v -11.2 -43.6 0
v -12.8 -45.2 0
v -12.8 -43.6 0
v -14.4 -45.2 0
v -14.4 -43.6 0
v -16 -45.2 0
v -16 -43.6 0
v -17.6 -45.2 0
v -17.6 -43.6 0
v -19.2 -45.2 0
v -19.2 -43.6 0
v -20.8 -45.2 0
v -20.8 -43.6 0
v -22.4 -45.2 0
v -22.4 -43.6 0
v -24 -45.2 0
v -24 -43.6 0
v -25.6 -45.2 0
v -25.6 -43.6 0
v -27.2 -45.2 0
v -27.2 -43.6 0
v -28.8 -45.2 0
v -28.8 -43.6 0
v -30.4 -45.2 0
v -30.4 -43.6 0
v -32 -45.2 0
v -32 -43.6 0
v -33.6 -45.2 0
v -33.6 -43.6 0
v -35.2 -45.2 0
v -35.2 -43.6 0
v -36.8 -45.2 0
v -36.8 -43.6 0
v -38.4 -45.2 0
v -38.4 -43.6 0
v -22.4 -50 0
v -24 -50 0
v -24 -48.4 0
v -22.4 -48.4 0
v -25.6 -50 0
v -25.6 -48.4 0
v -27.2 -50 0
v -27.2 -48.4 0
v -28.8 -50 0
v -28.8 -48.4 0
v -30.4 -50 0
v -30.4 -48.4 0
v -32 -50 0
v -32 -48.4 0
v -33.6 -50 0
v -33.6 -48.4 0
v -35.2 -50 0
v -35.2 -48.4 0
v -36.8 -50 0
v -36.8 -48.4 0
v -38.4 -50 0
v -38.4 -48.4 0
v -40 -50 0
v -40 -48.4 0
v -41.6 -50 0
v -41.6 -48.4 0
v -43.2 -50 0
v -43.2 -48.4 0
v -12.8 -53.2 0
v -14.4 -53.2 0
v -14.4 -51.6 0
v -12.8 -51.6 0
v -16 -53.2 0
v -16 -51.6 0
v -17.6 -53.2 0
v -17.6 -51.6 0
v -22.4 -56.4 0
v -24 -56.4 0
v -24 -54.8 0
v -22.4 -54.8 0
v -25.6 -56.4 0
v -25.6 -54.8 0
v -27.2 -56.4 0
v -27.2 -54.8 0
v -1.6 -59.6 0
v -3.2 -59.6 0
v -3.2 -58 0
v -1.6 -58 0
v -4.8 -59.6 0
v -4.8 -58 0
v -6.4 -59.6 0
v -6.4 -58 0
v -8 -59.6 0
v -8 -58 0
v -9.6 -59.6 0
v -9.6 -58 0
v -11.2 -59.6 0
v -11.2 -58 0
v -12.8 -59.6 0
v -12.8 -58 0
v -14.4 -59.6 0
v -14.4 -58 0
v -16 -59.6 0
v -16 -58 0
v -17.6 -59.6 0
v -17.6 -58 0
v -19.2 -59.6 0
v -19.2 -58 0
v -20.8 -59.6 0
v -20.8 -58 0
v -22.4 -59.6 0
v -22.4 -58 0
v -24 -59.6 0
v -24 -58 0
v -25.6 -59.6 0
v -25.6 -58 0
v -27.2 -59.6 0
v -27.2 -58 0
v -28.8 -59.6 0
v -28.8 -58 0
v -30.4 -59.6 0
v -30.4 -58 0
v -32 -59.6 0
v -32 -58 0
v -33.6 -59.6 0
v -33.6 -58 0
v -35.2 -59.6 0
v -35.2 -58 0
v -12.8 -64.4 0
v -14.4 -64.4 0
v -14.4 -62.8 0
v -12.8 -62.8 0
v -16 -64.4 0
v -16 -62.8 0
v -17.6 -64.4 0
v -17.6 -62.8 0
v -19.2 -64.4 0
v -19.2 -62.8 0
v -20.8 -64.4 0
v -20.8 -62.8 0
v -22.4 -64.4 0
v -22.4 -62.8 0
v -24 -64.4 0
v -24 -62.8 0
v -25.6 -64.4 0
v -25.6 -62.8 0
v -27.2 -64.4 0
v -27.2 -62.8 0
v -28.8 -64.4 0
v -28.8 -62.8 0
v -30.4 -64.4 0
v -30.4 -62.8 0
v -32 -64.4 0
v -32 -62.8 0
v -33.6 -64.4 0
v -33.6 -62.8 0
v -35.2 -64.4 0
v -35.2 -62.8 0
v -36.8 -64.4 0
v -36.8 -62.8 0
v -38.4 -64.4 0
v -38.4 -62.8 0
v -40 -64.4 0
v -40 -62.8 0
v -41.6 -64.4 0
v -41.6 -62.8 0
v -43.2 -64.4 0
v -43.2 -62.8 0
v -1.6 -67.6 0
v -3.2 -67.6 0
v -3.2 -66 0
v -1.6 -66 0
v -4.8 -67.6 0
v -4.8 -66 0
v -6.4 -67.6 0
v -6.4 -66 0
v -8 -67.6 0
v -8 -66 0
v -9.6 -67.6 0
v -9.6 -66 0
v -8 -74 0
v -9.6 -74 0
v -9.6 -72.4 0
v -8 -72.4 0
v -11.2 -74 0
v -11.2 -72.4 0
v -12.8 -74 0
v -12.8 -72.4 0
v -14.4 -74 0
v -14.4 -72.4 0
v -16 -74 0
v -16 -72.4 0
v -17.6 -74 0
v -17.6 -72.4 0
v -19.2 -74 0
v -19.2 -72.4 0
v -20.8 -74 0
v -20.8 -72.4 0
v -22.4 -74 0
v -22.4 -72.4 0
v -24 -74 0
v -24 -72.4 0
v -25.6 -74 0
v -25.6 -72.4 0
v -27.2 -74 0
v -27.2 -72.4 0
v -28.8 -74 0
v -28.8 -72.4 0
v -30.4 -74 0
v -30.4 -72.4 0
v -32 -74 0
v -32 -72.4 0
v -33.6 -74 0
v -33.6 -72.4 0
v -35.2 -74 0
v -35.2 -72.4 0
v -36.8 -74 0
v -36.8 -72.4 0
v -38.4 -74 0
v -38.4 -72.4 0
v -40 -74 0
v -40 -72.4 0
v -41.6 -74 0
v -41.6 -72.4 0
v -43.2 -74 0
v -43.2 -72.4 0
v -8 -75.6 0
v -9.6 -75.6 0
v -8 -77.2 0
v -9.6 -77.2 0
v -8 -78.8 0
v -9.6 -78.8 0
v -12.8 -80.4 0
v -14.4 -80.4 0
v -14.4 -78.8 0
v -12.8 -78.8 0
v -27.2 -80.4 0
v -28.8 -80.4 0
v -28.8 -78.8 0
v -27.2 -78.8 0
v -12.8 -82 0
v -14.4 -82 0
v -27.2 -82 0
v -28.8 -82 0
v -1.6 -83.6 0
v -3.2 -83.6 0
v -3.2 -82 0
v -1.6 -82 0
v -4.8 -83.6 0
v -4.8 -82 0
v -6.4 -83.6 0
v -6.4 -82 0
v -8 -83.6 0
v -8 -82 0
v -9.6 -83.6 0
v -9.6 -82 0
v -11.2 -83.6 0
v -11.2 -82 0
v -12.8 -83.6 0
v -14.4 -83.6 0
v -16 -83.6 0
v -16 -82 0
v -17.6 -83.6 0
v -17.6 -82 0
v -19.2 -83.6 0
v -19.2 -82 0
v -20.8 -83.6 0
v -20.8 -82 0
v -22.4 -83.6 0
v -22.4 -82 0
v -24 -83.6 0
v -24 -82 0
v -25.6 -83.6 0
v -25.6 -82 0
v -27.2 -83.6 0
v -28.8 -83.6 0
v -30.4 -83.6 0
v -30.4 -82 0
v -32 -83.6 0
v -32 -82 0
v -33.6 -83.6 0
v -33.6 -82 0
v -35.2 -83.6 0
v -35.2 -82 0
v -36.8 -83.6 0
v -36.8 -82 0
v -27.2 -88.4 0
v -28.8 -88.4 0
v -28.8 -86.8 0
v -27.2 -86.8 0
v -30.4 -88.4 0
v -30.4 -86.8 0
v -32 -88.4 0
v -32 -86.8 0
v -33.6 -88.4 0
v -33.6 -86.8 0
v -35.2 -88.4 0
v -35.2 -86.8 0
v -36.8 -88.4 0
v -36.8 -86.8 0
v -38.4 -88.4 0
v -38.4 -86.8 0
v -40 -88.4 0
v -40 -86.8 0
v -41.6 -88.4 0
v -41.6 -86.8 0
v -43.2 -88.4 0
v -43.2 -86.8 0
v -1.6 -92 0
v -3.2 -92 0
v -3.2 -90.4 0
v -1.6 -90.4 0
v -4.8 -92 0
v -4.8 -90.4 0
v -6.4 -92 0
v -6.4 -90.4 0
v -8 -92 0
v -8 -90.4 0
v -9.6 -92 0
v -9.6 -90.4 0
v -11.2 -92 0
v -11.2 -90.4 0
v -12.8 -92 0
v -12.8 -90.4 0
v -14.4 -92 0
v -14.4 -90.4 0
v -16 -92 0
v -16 -90.4 0
v -17.6 -92 0
v -17.6 -90.4 0
v -19.2 -92 0
v -19.2 -90.4 0
v -20.8 -92 0
v -20.8 -90.4 0
v -22.4 -92 0
v -22.4 -90.4 0
v -24 -92 0
v -24 -90.4 0
v -25.6 -92 0
v -25.6 -90.4 0
v -27.2 -95.6 0
v -28.8 -95.6 0
v -28.8 -94 0
v -27.2 -94 0
v -30.4 -95.6 0
v -30.4 -94 0
v -32 -95.6 0
v -32 -94 0
v -33.6 -95.6 0
v -33.6 -94 0
v -35.2 -95.6 0
v -35.2 -94 0
v -36.8 -95.6 0
v -36.8 -94 0
v -38.4 -95.6 0
v -38.4 -94 0
v -40 -95.6 0
v -40 -94 0
v -41.6 -95.6 0
v -41.6 -94 0
v -43.2 -95.6 0
v -43.2 -94 0
v -1.6 -99.2 0
v -3.2 -99.2 0
v -3.2 -97.6 0
v -1.6 -97.6 0
v -4.8 -99.2 0
v -4.8 -97.6 0
v -6.4 -99.2 0
v -6.4 -97.6 0
v -8 -99.2 0
v -8 -97.6 0
v -9.6 -99.2 0
v -9.6 -97.6 0
v -11.2 -99.2 0
v -11.2 -97.6 0
v -12.8 -99.2 0
v -12.8 -97.6 0
v -14.4 -99.2 0
v -14.4 -97.6 0
v -16 -99.2 0
v -16 -97.6 0
v -17.6 -99.2 0
v -17.6 -97.6 0
v -19.2 -99.2 0
v -19.2 -97.6 0
v -20.8 -99.2 0
v -20.8 -97.6 0
v -22.4 -99.2 0
v -22.4 -97.6 0
v -24 -99.2 0
v -24 -97.6 0
v -25.6 -99.2 0
v -25.6 -97.6 0
v -27.2 -99.2 0
v -27.2 -97.6 0
v -32 -102.4 0
v -33.6 -102.4 0
v -33.6 -100.8 0
v -32 -100.8 0
v -35.2 -102.4 0
v -35.2 -100.8 0
v -36.8 -102.4 0
v -36.8 -100.8 0
v -38.4 -102.4 0
v -38.4 -100.8 0
v -40 -102.4 0
v -40 -100.8 0
v -41.6 -102.4 0
v -41.6 -100.8 0
v -43.2 -102.4 0
v -43.2 -100.8 0
v -23.2 -105.6 0
v -24.8 -105.6 0
v -24.8 -104 0
v -23.2 -104 0
v -26.4 -105.6 0
v -26.4 -104 0
v -28 -105.6 0
v -28 -104 0
v -29.6 -105.6 0
v -29.6 -104 0
v -13.6 -108.8 0
v -15.2 -108.8 0
v -15.2 -107.2 0
v -13.6 -107.2 0
v -16.8 -108.8 0
v -16.8 -107.2 0
v -18.4 -108.8 0
v -18.4 -107.2 0
v -20 -108.8 0
v -20 -107.2 0
v -4 -112 0
v -5.6 -112 0
v -5.6 -110.4 0
v -4 -110.4 0
v -7.2 -112 0
v -7.2 -110.4 0
v -8.8 -112 0
v -8.8 -110.4 0
v -10.4 -112 0
v -10.4 -110.4 0
v -13.6 -115.2 0
v -15.2 -115.2 0
v -15.2 -113.6 0
v -13.6 -113.6 0
v -16.8 -115.2 0
v -16.8 -113.6 0
v -18.4 -115.2 0
v -18.4 -113.6 0
v -20 -115.2 0
v -20 -113.6 0
v -23.2 -118.4 0
v -24.8 -118.4 0
v -24.8 -116.8 0
v -23.2 -116.8 0
v -26.4 -118.4 0
v -26.4 -116.8 0
v -28 -118.4 0
v -28 -116.8 0
v -29.6 -118.4 0
v -29.6 -116.8 0
v -32.8 -121.6 0
v -34.4 -121.6 0
v -34.4 -120 0
v -32.8 -120 0
v -36 -121.6 0
v -36 -120 0
v -37.6 -121.6 0
v -37.6 -120 0
v -39.2 -121.6 0
v -39.2 -120 0
v -23.2 -124.8 0
v -24.8 -124.8 0
v -24.8 -123.2 0
v -23.2 -123.2 0
v -26.4 -124.8 0
v -26.4 -123.2 0
v -28 -124.8 0
v -28 -123.2 0
v -29.6 -124.8 0
v -29.6 -123.2 0
v -13.6 -128 0
v -15.2 -128 0
v -15.2 -126.4 0
v -13.6 -126.4 0
v -16.8 -128 0
v -16.8 -126.4 0
v -18.4 -128 0
v -18.4 -126.4 0
v -20 -128 0
v -20 -126.4 0
v -4 -131.2 0
v -5.6 -131.2 0
v -5.6 -129.6 0
v -4 -129.6 0
v -7.2 -131.2 0
v -7.2 -129.6 0
v -8.8 -131.2 0
v -8.8 -129.6 0
v -10.4 -131.2 0
v -10.4 -129.6 0
v 0 -134.4 0
v -1.6 -134.4 0
v -1.6 -132.8 0
v 0 -132.8 0
v -3.2 -134.4 0
v -3.2 -132.8 0
v -4.8 -134.4 0
v -4.8 -132.8 0
v -6.4 -134.4 0
v -6.4 -132.8 0
v -8 -134.4 0
v -8 -132.8 0
v -9.6 -134.4 0
v -9.6 -132.8 0
v -11.2 -134.4 0
v -11.2 -132.8 0
v -12.8 -134.4 0
v -12.8 -132.8 0
v -14.4 -134.4 0
v -14.4 -132.8 0
v -16 -134.4 0
v -16 -132.8 0
v -17.6 -134.4 0
v -17.6 -132.8 0
v -19.2 -134.4 0
v -19.2 -132.8 0
v -20.8 -134.4 0
v -20.8 -132.8 0
v -22.4 -134.4 0
v -22.4 -132.8 0
v -24 -134.4 0
v -24 -132.8 0
v -25.6 -134.4 0
v -25.6 -132.8 0
v -27.2 -134.4 0
v -27.2 -132.8 0
v -28.8 -134.4 0
v -28.8 -132.8 0
v -30.4 -134.4 0
v -30.4 -132.8 0
v -32 -134.4 0
v -32 -132.8 0
v -33.6 -134.4 0
v -33.6 -132.8 0
v -35.2 -134.4 0
v -35.2 -132.8 0
v -36.8 -134.4 0
v -36.8 -132.8 0
v -38.4 -134.4 0
v -38.4 -132.8 0
v -40 -134.4 0
v -40 -132.8 0
v -41.6 -134.4 0
v -41.6 -132.8 0
v -43.2 -134.4 0
v -43.2 -132.8 0
v -44.8 -134.4 0
v -44.8 -132.8 0

# Texture cooridinates (Count = 8)
vt 0.06678874 0.8334554
vt 0.1332113 0.8334554
vt 0.1332113 0.8748779
vt 0.06678874 0.8748779
vt 0.2001221 0.8334554
vt 0.2665446 0.8334554
vt 0.2665446 0.8748779
vt 0.2001221 0.8748779

# Normal
vn 0 0 -1

# Groups (Count = 1)

g mesh_0001
f 1/1/1 2/2/1 3/3/1 4/4/1
f 2/1/1 5/2/1 6/3/1 3/4/1
f 5/1/1 7/2/1 8/3/1 6/4/1
f 7/1/1 9/2/1 10/3/1 8/4/1
f 9/1/1 11/2/1 12/3/1 10/4/1
f 11/1/1 13/2/1 14/3/1 12/4/1
f 13/1/1 15/2/1 16/3/1 14/4/1
f 15/1/1 17/2/1 18/3/1 16/4/1
f 17/1/1 19/2/1 20/3/1 18/4/1
f 19/1/1 21/2/1 22/3/1 20/4/1
f 21/1/1 23/2/1 24/3/1 22/4/1
f 23/1/1 25/2/1 26/3/1 24/4/1
f 25/1/1 27/2/1 28/3/1 26/4/1
f 27/1/1 29/2/1 30/3/1 28/4/1
f 29/1/1 31/2/1 32/3/1 30/4/1
f 31/1/1 33/2/1 34/3/1 32/4/1
f 33/1/1 35/2/1 36/3/1 34/4/1
f 35/1/1 37/2/1 38/3/1 36/4/1
f 37/1/1 39/2/1 40/3/1 38/4/1
f 39/1/1 41/2/1 42/3/1 40/4/1
f 41/1/1 43/2/1 44/3/1 42/4/1
f 43/1/1 45/2/1 46/3/1 44/4/1
f 45/1/1 47/2/1 48/3/1 46/4/1
f 47/1/1 49/2/1 50/3/1 48/4/1
f 49/1/1 51/2/1 52/3/1 50/4/1
f 51/1/1 53/2/1 54/3/1 52/4/1
f 55/1/1 56/2/1 57/3/1 58/4/1
f 56/1/1 59/2/1 60/3/1 57/4/1
f 59/1/1 61/2/1 62/3/1 60/4/1
f 61/1/1 63/2/1 64/3/1 62/4/1
f 63/1/1 65/2/1 66/3/1 64/4/1
f 65/1/1 67/2/1 68/3/1 66/4/1
f 67/1/1 69/2/1 70/3/1 68/4/1
f 69/1/1 71/2/1 72/3/1 70/4/1
f 71/1/1 73/2/1 74/3/1 72/4/1
f 73/1/1 75/2/1 76/3/1 74/4/1
f 75/1/1 77/2/1 78/3/1 76/4/1
f 77/1/1 79/2/1 80/3/1 78/4/1
f 79/1/1 81/2/1 82/3/1 80/4/1
f 81/1/1 83/2/1 84/3/1 82/4/1
f 83/1/1 85/2/1 86/3/1 84/4/1
f 85/1/1 87/2/1 88/3/1 86/4/1
f 87/1/1 89/2/1 90/3/1 88/4/1
f 89/1/1 91/2/1 92/3/1 90/4/1
f 91/1/1 93/2/1 94/3/1 92/4/1
f 93/1/1 95/2/1 96/3/1 94/4/1
f 95/1/1 97/2/1 98/3/1 96/4/1
f 97/1/1 99/2/1 100/3/1 98/4/1
f 101/1/1 102/2/1 103/3/1 104/4/1
f 102/1/1 105/2/1 106/3/1 103/4/1
f 105/1/1 107/2/1 108/3/1 106/4/1
f 107/1/1 109/2/1 110/3/1 108/4/1
f 111/1/1 112/2/1 113/3/1 114/4/1
f 112/1/1 115/2/1 116/3/1 113/4/1
f 115/1/1 117/2/1 118/3/1 116/4/1
f 117/1/1 119/2/1 120/3/1 118/4/1
f 119/1/1 121/2/1 122/3/1 120/4/1
f 121/1/1 123/2/1 124/3/1 122/4/1
f 123/1/1 125/2/1 126/3/1 124/4/1
f 125/1/1 127/2/1 128/3/1 126/4/1
f 127/1/1 129/2/1 130/3/1 128/4/1
f 129/1/1 131/2/1 132/3/1 130/4/1
f 131/1/1 133/2/1 134/3/1 132/4/1
f 133/1/1 135/2/1 136/3/1 134/4/1
f 135/1/1 137/2/1 138/3/1 136/4/1
f 137/1/1 139/2/1 140/3/1 138/4/1
f 139/1/1 141/2/1 142/3/1 140/4/1
f 141/1/1 143/2/1 144/3/1 142/4/1
f 143/1/1 145/2/1 146/3/1 144/4/1
f 145/1/1 147/2/1 148/3/1 146/4/1
f 149/5/1 150/6/1 112/7/1 111/8/1
f 151/1/1 152/2/1 153/3/1 154/4/1
f 152/1/1 155/2/1 149/3/1 153/4/1
f 155/5/1 156/6/1 150/7/1 149/8/1
f 157/5/1 158/6/1 156/7/1 155/8/1
f 159/5/1 160/6/1 158/7/1 157/8/1
f 161/1/1 162/2/1 163/3/1 164/4/1
f 162/1/1 165/2/1 166/3/1 163/4/1
f 165/1/1 167/2/1 168/3/1 166/4/1
f 167/1/1 169/2/1 159/3/1 168/4/1
f 169/1/1 170/2/1 160/3/1 159/4/1
f 170/1/1 171/2/1 172/3/1 160/4/1
f 171/1/1 173/2/1 174/3/1 172/4/1
f 173/1/1 175/2/1 176/3/1 174/4/1
f 177/1/1 178/2/1 179/3/1 180/4/1
f 178/1/1 181/2/1 182/3/1 179/4/1
f 181/1/1 183/2/1 184/3/1 182/4/1
f 183/1/1 185/2/1 186/3/1 184/4/1
f 185/1/1 187/2/1 188/3/1 186/4/1
f 187/1/1 189/2/1 190/3/1 188/4/1
f 189/1/1 191/2/1 192/3/1 190/4/1
f 191/1/1 193/2/1 194/3/1 192/4/1
f 195/1/1 196/2/1 197/3/1 198/4/1
f 196/1/1 199/2/1 200/3/1 197/4/1
f 201/1/1 202/2/1 203/3/1 204/4/1
f 202/1/1 205/2/1 206/3/1 203/4/1
f 205/1/1 207/2/1 208/3/1 206/4/1
f 207/1/1 209/2/1 210/3/1 208/4/1
f 209/1/1 211/2/1 212/3/1 210/4/1
f 211/1/1 213/2/1 214/3/1 212/4/1
f 213/1/1 215/2/1 216/3/1 214/4/1
f 215/1/1 217/2/1 218/3/1 216/4/1
f 217/1/1 219/2/1 220/3/1 218/4/1
f 219/1/1 221/2/1 222/3/1 220/4/1
f 221/1/1 223/2/1 224/3/1 222/4/1
f 223/1/1 225/2/1 226/3/1 224/4/1
f 225/1/1 227/2/1 228/3/1 226/4/1
f 227/1/1 229/2/1 230/3/1 228/4/1
f 229/1/1 231/2/1 232/3/1 230/4/1
f 231/1/1 233/2/1 234/3/1 232/4/1
f 233/1/1 235/2/1 236/3/1 234/4/1
f 235/1/1 237/2/1 238/3/1 236/4/1
f 237/1/1 239/2/1 240/3/1 238/4/1
f 239/1/1 241/2/1 242/3/1 240/4/1
f 241/1/1 243/2/1 244/3/1 242/4/1
f 243/1/1 245/2/1 246/3/1 244/4/1
f 245/1/1 247/2/1 248/3/1 246/4/1
f 249/1/1 250/2/1 251/3/1 252/4/1
f 250/1/1 253/2/1 254/3/1 251/4/1
f 253/1/1 255/2/1 256/3/1 254/4/1
f 255/1/1 257/2/1 258/3/1 256/4/1
f 257/1/1 259/2/1 260/3/1 258/4/1
f 259/1/1 261/2/1 262/3/1 260/4/1
f 261/1/1 263/2/1 264/3/1 262/4/1
f 263/1/1 265/2/1 266/3/1 264/4/1
f 265/1/1 267/2/1 268/3/1 266/4/1
f 267/1/1 269/2/1 270/3/1 268/4/1
f 269/1/1 271/2/1 272/3/1 270/4/1
f 271/1/1 273/2/1 274/3/1 272/4/1
f 273/1/1 275/2/1 276/3/1 274/4/1
f 277/1/1 278/2/1 279/3/1 280/4/1
f 278/1/1 281/2/1 282/3/1 279/4/1
f 281/1/1 283/2/1 284/3/1 282/4/1
f 285/1/1 286/2/1 287/3/1 288/4/1
f 286/1/1 289/2/1 290/3/1 287/4/1
f 289/1/1 291/2/1 292/3/1 290/4/1
f 293/1/1 294/2/1 295/3/1 296/4/1
f 294/1/1 297/2/1 298/3/1 295/4/1
f 297/1/1 299/2/1 300/3/1 298/4/1
f 299/1/1 301/2/1 302/3/1 300/4/1
f 301/1/1 303/2/1 304/3/1 302/4/1
f 303/1/1 305/2/1 306/3/1 304/4/1
f 305/1/1 307/2/1 308/3/1 306/4/1
f 307/1/1 309/2/1 310/3/1 308/4/1
f 309/1/1 311/2/1 312/3/1 310/4/1
f 311/1/1 313/2/1 314/3/1 312/4/1
f 313/1/1 315/2/1 316/3/1 314/4/1
f 315/1/1 317/2/1 318/3/1 316/4/1
f 317/1/1 319/2/1 320/3/1 318/4/1
f 319/1/1 321/2/1 322/3/1 320/4/1
f 321/1/1 323/2/1 324/3/1 322/4/1
f 323/1/1 325/2/1 326/3/1 324/4/1
f 325/1/1 327/2/1 328/3/1 326/4/1
f 327/1/1 329/2/1 330/3/1 328/4/1
f 329/1/1 331/2/1 332/3/1 330/4/1
f 331/1/1 333/2/1 334/3/1 332/4/1
f 333/1/1 335/2/1 336/3/1 334/4/1
f 337/1/1 338/2/1 339/3/1 340/4/1
f 338/1/1 341/2/1 342/3/1 339/4/1
f 341/1/1 343/2/1 344/3/1 342/4/1
f 343/1/1 345/2/1 346/3/1 344/4/1
f 345/1/1 347/2/1 348/3/1 346/4/1
f 347/1/1 349/2/1 350/3/1 348/4/1
f 349/1/1 351/2/1 352/3/1 350/4/1
f 351/1/1 353/2/1 354/3/1 352/4/1
f 353/1/1 355/2/1 356/3/1 354/4/1
f 355/1/1 357/2/1 358/3/1 356/4/1
f 357/1/1 359/2/1 360/3/1 358/4/1
f 359/1/1 361/2/1 362/3/1 360/4/1
f 361/1/1 363/2/1 364/3/1 362/4/1
f 363/1/1 365/2/1 366/3/1 364/4/1
f 365/1/1 367/2/1 368/3/1 366/4/1
f 367/1/1 369/2/1 370/3/1 368/4/1
f 369/1/1 371/2/1 372/3/1 370/4/1
f 371/1/1 373/2/1 374/3/1 372/4/1
f 373/1/1 375/2/1 376/3/1 374/4/1
f 377/1/1 378/2/1 379/3/1 380/4/1
f 378/1/1 381/2/1 382/3/1 379/4/1
f 381/1/1 383/2/1 384/3/1 382/4/1
f 383/1/1 385/2/1 386/3/1 384/4/1
f 385/1/1 387/2/1 388/3/1 386/4/1
f 389/1/1 390/2/1 391/3/1 392/4/1
f 390/1/1 393/2/1 394/3/1 391/4/1
f 393/1/1 395/2/1 396/3/1 394/4/1
f 395/1/1 397/2/1 398/3/1 396/4/1
f 397/1/1 399/2/1 400/3/1 398/4/1
f 399/1/1 401/2/1 402/3/1 400/4/1
f 401/1/1 403/2/1 404/3/1 402/4/1
f 403/1/1 405/2/1 406/3/1 404/4/1
f 405/1/1 407/2/1 408/3/1 406/4/1
f 407/1/1 409/2/1 410/3/1 408/4/1
f 409/1/1 411/2/1 412/3/1 410/4/1
f 411/1/1 413/2/1 414/3/1 412/4/1
f 413/1/1 415/2/1 416/3/1 414/4/1
f 415/1/1 417/2/1 418/3/1 416/4/1
f 417/1/1 419/2/1 420/3/1 418/4/1
f 419/1/1 421/2/1 422/3/1 420/4/1
f 421/1/1 423/2/1 424/3/1 422/4/1
f 423/1/1 425/2/1 426/3/1 424/4/1
f 425/1/1 427/2/1 428/3/1 426/4/1
f 427/1/1 429/2/1 430/3/1 428/4/1
f 429/1/1 431/2/1 432/3/1 430/4/1
f 431/1/1 433/2/1 434/3/1 432/4/1
f 435/1/1 436/2/1 390/3/1 389/4/1
f 437/1/1 438/2/1 436/3/1 435/4/1
f 439/1/1 440/2/1 438/3/1 437/4/1
f 441/5/1 442/6/1 443/7/1 444/8/1
f 445/5/1 446/6/1 447/7/1 448/8/1
f 449/5/1 450/6/1 442/7/1 441/8/1
f 451/5/1 452/6/1 446/7/1 445/8/1
f 453/1/1 454/2/1 455/3/1 456/4/1
f 454/1/1 457/2/1 458/3/1 455/4/1
f 457/1/1 459/2/1 460/3/1 458/4/1
f 459/1/1 461/2/1 462/3/1 460/4/1
f 461/1/1 463/2/1 464/3/1 462/4/1
f 463/1/1 465/2/1 466/3/1 464/4/1
f 465/1/1 467/2/1 449/3/1 466/4/1
f 467/1/1 468/2/1 450/3/1 449/4/1
f 468/1/1 469/2/1 470/3/1 450/4/1
f 469/1/1 471/2/1 472/3/1 470/4/1
f 471/1/1 473/2/1 474/3/1 472/4/1
f 473/1/1 475/2/1 476/3/1 474/4/1
f 475/1/1 477/2/1 478/3/1 476/4/1
f 477/1/1 479/2/1 480/3/1 478/4/1
f 479/1/1 481/2/1 482/3/1 480/4/1
f 481/1/1 483/2/1 451/3/1 482/4/1
f 483/1/1 484/2/1 452/3/1 451/4/1
f 484/1/1 485/2/1 486/3/1 452/4/1
f 485/1/1 487/2/1 488/3/1 486/4/1
f 487/1/1 489/2/1 490/3/1 488/4/1
f 489/1/1 491/2/1 492/3/1 490/4/1
f 491/1/1 493/2/1 494/3/1 492/4/1
f 495/1/1 496/2/1 497/3/1 498/4/1
f 496/1/1 499/2/1 500/3/1 497/4/1
f 499/1/1 501/2/1 502/3/1 500/4/1
f 501/1/1 503/2/1 504/3/1 502/4/1
f 503/1/1 505/2/1 506/3/1 504/4/1
f 505/1/1 507/2/1 508/3/1 506/4/1
f 507/1/1 509/2/1 510/3/1 508/4/1
f 509/1/1 511/2/1 512/3/1 510/4/1
f 511/1/1 513/2/1 514/3/1 512/4/1
f 513/1/1 515/2/1 516/3/1 514/4/1
f 517/1/1 518/2/1 519/3/1 520/4/1
f 518/1/1 521/2/1 522/3/1 519/4/1
f 521/1/1 523/2/1 524/3/1 522/4/1
f 523/1/1 525/2/1 526/3/1 524/4/1
f 525/1/1 527/2/1 528/3/1 526/4/1
f 527/1/1 529/2/1 530/3/1 528/4/1
f 529/1/1 531/2/1 532/3/1 530/4/1
f 531/1/1 533/2/1 534/3/1 532/4/1
f 533/1/1 535/2/1 536/3/1 534/4/1
f 535/1/1 537/2/1 538/3/1 536/4/1
f 537/1/1 539/2/1 540/3/1 538/4/1
f 539/1/1 541/2/1 542/3/1 540/4/1
f 541/1/1 543/2/1 544/3/1 542/4/1
f 543/1/1 545/2/1 546/3/1 544/4/1
f 545/1/1 547/2/1 548/3/1 546/4/1
f 549/1/1 550/2/1 551/3/1 552/4/1
f 550/1/1 553/2/1 554/3/1 551/4/1
f 553/1/1 555/2/1 556/3/1 554/4/1
f 555/1/1 557/2/1 558/3/1 556/4/1
f 557/1/1 559/2/1 560/3/1 558/4/1
f 559/1/1 561/2/1 562/3/1 560/4/1
f 561/1/1 563/2/1 564/3/1 562/4/1
f 563/1/1 565/2/1 566/3/1 564/4/1
f 565/1/1 567/2/1 568/3/1 566/4/1
f 567/1/1 569/2/1 570/3/1 568/4/1
f 571/1/1 572/2/1 573/3/1 574/4/1
f 572/1/1 575/2/1 576/3/1 573/4/1
f 575/1/1 577/2/1 578/3/1 576/4/1
f 577/1/1 579/2/1 580/3/1 578/4/1
f 579/1/1 581/2/1 582/3/1 580/4/1
f 581/1/1 583/2/1 584/3/1 582/4/1
f 583/1/1 585/2/1 586/3/1 584/4/1
f 585/1/1 587/2/1 588/3/1 586/4/1
f 587/1/1 589/2/1 590/3/1 588/4/1
f 589/1/1 591/2/1 592/3/1 590/4/1
f 591/1/1 593/2/1 594/3/1 592/4/1
f 593/1/1 595/2/1 596/3/1 594/4/1
f 595/1/1 597/2/1 598/3/1 596/4/1
f 597/1/1 599/2/1 600/3/1 598/4/1
f 599/1/1 601/2/1 602/3/1 600/4/1
f 601/1/1 603/2/1 604/3/1 602/4/1
f 605/1/1 606/2/1 607/3/1 608/4/1
f 606/1/1 609/2/1 610/3/1 607/4/1
f 609/1/1 611/2/1 612/3/1 610/4/1
f 611/1/1 613/2/1 614/3/1 612/4/1
f 613/1/1 615/2/1 616/3/1 614/4/1
f 615/1/1 617/2/1 618/3/1 616/4/1
f 617/1/1 619/2/1 620/3/1 618/4/1
f 621/1/1 622/2/1 623/3/1 624/4/1
f 622/1/1 625/2/1 626/3/1 623/4/1
f 625/1/1 627/2/1 628/3/1 626/4/1
f 627/1/1 629/2/1 630/3/1 628/4/1
f 631/1/1 632/2/1 633/3/1 634/4/1
f 632/1/1 635/2/1 636/3/1 633/4/1
f 635/1/1 637/2/1 638/3/1 636/4/1
f 637/1/1 639/2/1 640/3/1 638/4/1
f 641/1/1 642/2/1 643/3/1 644/4/1
f 642/1/1 645/2/1 646/3/1 643/4/1
f 645/1/1 647/2/1 648/3/1 646/4/1
f 647/1/1 649/2/1 650/3/1 648/4/1
f 651/1/1 652/2/1 653/3/1 654/4/1
f 652/1/1 655/2/1 656/3/1 653/4/1
f 655/1/1 657/2/1 658/3/1 656/4/1
f 657/1/1 659/2/1 660/3/1 658/4/1
f 661/1/1 662/2/1 663/3/1 664/4/1
f 662/1/1 665/2/1 666/3/1 663/4/1
f 665/1/1 667/2/1 668/3/1 666/4/1
f 667/1/1 669/2/1 670/3/1 668/4/1
f 671/1/1 672/2/1 673/3/1 674/4/1
f 672/1/1 675/2/1 676/3/1 673/4/1
f 675/1/1 677/2/1 678/3/1 676/4/1
f 677/1/1 679/2/1 680/3/1 678/4/1
f 681/1/1 682/2/1 683/3/1 684/4/1
f 682/1/1 685/2/1 686/3/1 683/4/1
f 685/1/1 687/2/1 688/3/1 686/4/1
f 687/1/1 689/2/1 690/3/1 688/4/1
f 691/1/1 692/2/1 693/3/1 694/4/1
f 692/1/1 695/2/1 696/3/1 693/4/1
f 695/1/1 697/2/1 698/3/1 696/4/1
f 697/1/1 699/2/1 700/3/1 698/4/1
f 701/1/1 702/2/1 703/3/1 704/4/1
f 702/1/1 705/2/1 706/3/1 703/4/1
f 705/1/1 707/2/1 708/3/1 706/4/1
f 707/1/1 709/2/1 710/3/1 708/4/1
f 711/1/1 712/2/1 713/3/1 714/4/1
f 712/1/1 715/2/1 716/3/1 713/4/1
f 715/1/1 717/2/1 718/3/1 716/4/1
f 717/1/1 719/2/1 720/3/1 718/4/1
f 719/1/1 721/2/1 722/3/1 720/4/1
f 721/1/1 723/2/1 724/3/1 722/4/1
f 723/1/1 725/2/1 726/3/1 724/4/1
f 725/1/1 727/2/1 728/3/1 726/4/1
f 727/1/1 729/2/1 730/3/1 728/4/1
f 729/1/1 731/2/1 732/3/1 730/4/1
f 731/1/1 733/2/1 734/3/1 732/4/1
f 733/1/1 735/2/1 736/3/1 734/4/1
f 735/1/1 737/2/1 738/3/1 736/4/1
f 737/1/1 739/2/1 740/3/1 738/4/1
f 739/1/1 741/2/1 742/3/1 740/4/1
f 741/1/1 743/2/1 744/3/1 742/4/1
f 743/1/1 745/2/1 746/3/1 744/4/1
f 745/1/1 747/2/1 748/3/1 746/4/1
f 747/1/1 749/2/1 750/3/1 748/4/1
f 749/1/1 751/2/1 752/3/1 750/4/1
f 751/1/1 753/2/1 754/3/1 752/4/1
f 753/1/1 755/2/1 756/3/1 754/4/1
f 755/1/1 757/2/1 758/3/1 756/4/1
f 757/1/1 759/2/1 760/3/1 758/4/1
f 759/1/1 761/2/1 762/3/1 760/4/1
f 761/1/1 763/2/1 764/3/1 762/4/1
f 763/1/1 765/2/1 766/3/1 764/4/1
f 765/1/1 767/2/1 768/3/1 766/4/1

