# Wavefront OBJ file automatically generated by Tiled2Unity

# Vertices (Count = 489)
v -1.6 -1.6 0
v -3.2 -1.6 0
v -3.2 0 0
v -1.6 0 0
v -4.8 -1.6 0
v -4.8 0 0
v -6.4 -1.6 0
v -6.4 0 0
v -8 -1.6 0
v -8 0 0
v -9.6 -1.6 0
v -9.6 0 0
v -11.2 -1.6 0
v -11.2 0 0
v -12.8 -1.6 0
v -12.8 0 0
v -14.4 -1.6 0
v -14.4 0 0
v -16 -1.6 0
v -16 0 0
v -17.6 -1.6 0
v -17.6 0 0
v -19.2 -1.6 0
v -19.2 0 0
v -20.8 -1.6 0
v -20.8 0 0
v -22.4 -1.6 0
v -22.4 0 0
v -24 -1.6 0
v -24 0 0
v -25.6 -1.6 0
v -25.6 0 0
v -27.2 -1.6 0
v -27.2 0 0
v -28.8 -1.6 0
v -28.8 0 0
v -30.4 -1.6 0
v -30.4 0 0
v -32 -1.6 0
v -32 0 0
v -33.6 -1.6 0
v -33.6 0 0
v -35.2 -1.6 0
v -35.2 0 0
v -36.8 -1.6 0
v -36.8 0 0
v -38.4 -1.6 0
v -38.4 0 0
v -40 -1.6 0
v -40 0 0
v -41.6 -1.6 0
v -41.6 0 0
v -43.2 -1.6 0
v -43.2 0 0
v -1.6 -134.4 0
v -3.2 -134.4 0
v -3.2 -132.8 0
v -1.6 -132.8 0
v -4.8 -134.4 0
v -4.8 -132.8 0
v -6.4 -134.4 0
v -6.4 -132.8 0
v -8 -134.4 0
v -8 -132.8 0
v -9.6 -134.4 0
v -9.6 -132.8 0
v -11.2 -134.4 0
v -11.2 -132.8 0
v -12.8 -134.4 0
v -12.8 -132.8 0
v -14.4 -134.4 0
v -14.4 -132.8 0
v -16 -134.4 0
v -16 -132.8 0
v -17.6 -134.4 0
v -17.6 -132.8 0
v -19.2 -134.4 0
v -19.2 -132.8 0
v -20.8 -134.4 0
v -20.8 -132.8 0
v -22.4 -134.4 0
v -22.4 -132.8 0
v -24 -134.4 0
v -24 -132.8 0
v -25.6 -134.4 0
v -25.6 -132.8 0
v -27.2 -134.4 0
v -27.2 -132.8 0
v -28.8 -134.4 0
v -28.8 -132.8 0
v -30.4 -134.4 0
v -30.4 -132.8 0
v -32 -134.4 0
v -32 -132.8 0
v -33.6 -134.4 0
v -33.6 -132.8 0
v -35.2 -134.4 0
v -35.2 -132.8 0
v -36.8 -134.4 0
v -36.8 -132.8 0
v -38.4 -134.4 0
v -38.4 -132.8 0
v -40 -134.4 0
v -40 -132.8 0
v -41.6 -134.4 0
v -41.6 -132.8 0
v -43.2 -134.4 0
v -43.2 -132.8 0
v -1.6 -44.8 0
v -3.2 -44.8 0
v -3.2 -44 0
v -1.6 -44 0
v -4.8 -44.8 0
v -4.8 -44 0
v -6.4 -44.8 0
v -6.4 -44 0
v -8 -44.8 0
v -8 -44 0
v -9.6 -44.8 0
v -9.6 -44 0
v -11.2 -44.8 0
v -11.2 -44 0
v -12.8 -44.8 0
v -12.8 -44 0
v -14.4 -44.8 0
v -14.4 -44 0
v -16 -44.8 0
v -16 -44 0
v -17.6 -44.8 0
v -17.6 -44 0
v -19.2 -44.8 0
v -19.2 -44 0
v -20.8 -44.8 0
v -20.8 -44 0
v -22.4 -44.8 0
v -22.4 -44 0
v -24 -44.8 0
v -24 -44 0
v -25.6 -44.8 0
v -25.6 -44 0
v -27.2 -44.8 0
v -27.2 -44 0
v -28.8 -44.8 0
v -28.8 -44 0
v -30.4 -44.8 0
v -30.4 -44 0
v -32 -44.8 0
v -32 -44 0
v -33.6 -44.8 0
v -33.6 -44 0
v -35.2 -44.8 0
v -35.2 -44 0
v -36.8 -44.8 0
v -36.8 -44 0
v -38.4 -44.8 0
v -38.4 -44 0
v -40 -44.8 0
v -40 -44 0
v -4.8 -53.6 0
v -6.4 -53.6 0
v -6.4 -52.8 0
v -4.8 -52.8 0
v -8 -53.6 0
v -8 -52.8 0
v -9.6 -53.6 0
v -9.6 -52.8 0
v -11.2 -53.6 0
v -11.2 -52.8 0
v -12.8 -53.6 0
v -12.8 -52.8 0
v -14.4 -53.6 0
v -14.4 -52.8 0
v -16 -53.6 0
v -16 -52.8 0
v -17.6 -53.6 0
v -17.6 -52.8 0
v -19.2 -53.6 0
v -19.2 -52.8 0
v -20.8 -53.6 0
v -20.8 -52.8 0
v -22.4 -53.6 0
v -22.4 -52.8 0
v -24 -53.6 0
v -24 -52.8 0
v -25.6 -53.6 0
v -25.6 -52.8 0
v -27.2 -53.6 0
v -27.2 -52.8 0
v -28.8 -53.6 0
v -28.8 -52.8 0
v -30.4 -53.6 0
v -30.4 -52.8 0
v -32 -53.6 0
v -32 -52.8 0
v -33.6 -53.6 0
v -33.6 -52.8 0
v -35.2 -53.6 0
v -35.2 -52.8 0
v -36.8 -53.6 0
v -36.8 -52.8 0
v -38.4 -53.6 0
v -38.4 -52.8 0
v -40 -53.6 0
v -40 -52.8 0
v -41.6 -53.6 0
v -41.6 -52.8 0
v -43.2 -53.6 0
v -43.2 -52.8 0
v -1.6 -56 0
v -3.2 -56 0
v -3.2 -55.2 0
v -1.6 -55.2 0
v -4.8 -56 0
v -4.8 -55.2 0
v -6.4 -56 0
v -6.4 -55.2 0
v -8 -56 0
v -8 -55.2 0
v -9.6 -56 0
v -9.6 -55.2 0
v -11.2 -56 0
v -11.2 -55.2 0
v -12.8 -56 0
v -12.8 -55.2 0
v -14.4 -56 0
v -14.4 -55.2 0
v -16 -56 0
v -16 -55.2 0
v -17.6 -56 0
v -17.6 -55.2 0
v -19.2 -56 0
v -19.2 -55.2 0
v -20.8 -56 0
v -20.8 -55.2 0
v -22.4 -56 0
v -22.4 -55.2 0
v -24 -56 0
v -24 -55.2 0
v -25.6 -56 0
v -25.6 -55.2 0
v -27.2 -56 0
v -27.2 -55.2 0
v -28.8 -56 0
v -28.8 -55.2 0
v -30.4 -56 0
v -30.4 -55.2 0
v -32 -56 0
v -32 -55.2 0
v -33.6 -56 0
v -33.6 -55.2 0
v -35.2 -56 0
v -35.2 -55.2 0
v -36.8 -56 0
v -36.8 -55.2 0
v -38.4 -56 0
v -38.4 -55.2 0
v -40 -56 0
v -40 -55.2 0
v -41.6 -56 0
v -41.6 -55.2 0
v -43.2 -56 0
v -43.2 -55.2 0
v -1.6 -63.6 0
v -3.2 -63.6 0
v -3.2 -62.8 0
v -1.6 -62.8 0
v -4.8 -63.6 0
v -4.8 -62.8 0
v -6.4 -63.6 0
v -6.4 -62.8 0
v -8 -63.6 0
v -8 -62.8 0
v -36.8 -75.6 0
v -38.4 -75.6 0
v -38.4 -74.8 0
v -36.8 -74.8 0
v -40 -75.6 0
v -40 -74.8 0
v -41.6 -75.6 0
v -41.6 -74.8 0
v -43.2 -75.6 0
v -43.2 -74.8 0
v -10.8 -86.8 0
v -12.4 -86.8 0
v -12.4 -86 0
v -10.8 -86 0
v -14 -86.8 0
v -14 -86 0
v -15.6 -86.8 0
v -15.6 -86 0
v -17.2 -86.8 0
v -17.2 -86 0
v -18.8 -86.8 0
v -18.8 -86 0
v -20.4 -86.8 0
v -20.4 -86 0
v -22 -86.8 0
v -22 -86 0
v -23.6 -86.8 0
v -23.6 -86 0
v -25.2 -86.8 0
v -25.2 -86 0
v -26.8 -86.8 0
v -26.8 -86 0
v -36.8 -86.8 0
v -38.4 -86.8 0
v -38.4 -86 0
v -36.8 -86 0
v -40 -86.8 0
v -40 -86 0
v -41.6 -86.8 0
v -41.6 -86 0
v -43.2 -86.8 0
v -43.2 -86 0
v -10.8 -100 0
v -12.4 -100 0
v -12.4 -99.2 0
v -10.8 -99.2 0
v -14 -100 0
v -14 -99.2 0
v -15.6 -100 0
v -15.6 -99.2 0
v -17.2 -100 0
v -17.2 -99.2 0
v -18.8 -100 0
v -18.8 -99.2 0
v -28.4 -100 0
v -30 -100 0
v -30 -99.2 0
v -28.4 -99.2 0
v -31.6 -100 0
v -31.6 -99.2 0
v -33.2 -100 0
v -33.2 -99.2 0
v -34.8 -100 0
v -34.8 -99.2 0
v -25.2 -105.6 0
v -26.8 -105.6 0
v -26.8 -104.8 0
v -25.2 -104.8 0
v -28.4 -105.6 0
v -28.4 -104.8 0
v -30 -105.6 0
v -30 -104.8 0
v -31.6 -105.6 0
v -31.6 -104.8 0
v -33.2 -105.6 0
v -33.2 -104.8 0
v -34.8 -105.6 0
v -34.8 -104.8 0
v -36.4 -105.6 0
v -36.4 -104.8 0
v -38 -105.6 0
v -38 -104.8 0
v -39.6 -105.6 0
v -39.6 -104.8 0
v -24 -120.8 0
v -25.6 -120.8 0
v -25.6 -120 0
v -24 -120 0
v -27.2 -120.8 0
v -27.2 -120 0
v -28.8 -120.8 0
v -28.8 -120 0
v -30.4 -120.8 0
v -30.4 -120 0
v -36.8 -124 0
v -38.4 -124 0
v -38.4 -123.2 0
v -36.8 -123.2 0
v -40 -124 0
v -40 -123.2 0
v -41.6 -124 0
v -41.6 -123.2 0
v -43.2 -124 0
v -43.2 -123.2 0
v -14.4 -127.2 0
v -16 -127.2 0
v -16 -126.4 0
v -14.4 -126.4 0
v -17.6 -127.2 0
v -17.6 -126.4 0
v -19.2 -127.2 0
v -19.2 -126.4 0
v -20.8 -127.2 0
v -20.8 -126.4 0
v -22.4 -127.2 0
v -22.4 -126.4 0
v -24 -127.2 0
v -24 -126.4 0
v -25.6 -127.2 0
v -25.6 -126.4 0
v -27.2 -127.2 0
v -27.2 -126.4 0
v -28.8 -127.2 0
v -28.8 -126.4 0
v -30.4 -127.2 0
v -30.4 -126.4 0
v -1.6 -130.4 0
v -3.2 -130.4 0
v -3.2 -129.6 0
v -1.6 -129.6 0
v -4.8 -130.4 0
v -4.8 -129.6 0
v -6.4 -130.4 0
v -6.4 -129.6 0
v -8 -130.4 0
v -8 -129.6 0
v -12.4 -46 0
v -13.2 -46 0
v -13.2 -44.4 0
v -12.4 -44.4 0
v -34.8 -46 0
v -35.6 -46 0
v -35.6 -44.4 0
v -34.8 -44.4 0
v -23.6 -46.4 0
v -24.4 -46.4 0
v -24.4 -44.8 0
v -23.6 -44.8 0
v -12.4 -47.6 0
v -13.2 -47.6 0
v -34.8 -47.6 0
v -35.6 -47.6 0
v -23.6 -48 0
v -24.4 -48 0
v -4 -48.8 0
v -4.8 -48.8 0
v -4.8 -47.2 0
v -4 -47.2 0
v -12.4 -49.2 0
v -13.2 -49.2 0
v -34.8 -49.2 0
v -35.6 -49.2 0
v -4 -50.4 0
v -4.8 -50.4 0
v -23.6 -51.6 0
v -24.4 -51.6 0
v -24.4 -50 0
v -23.6 -50 0
v -4 -52 0
v -4.8 -52 0
v -12.4 -52.8 0
v -13.2 -52.8 0
v -13.2 -51.2 0
v -12.4 -51.2 0
v -34.8 -52.8 0
v -35.6 -52.8 0
v -35.6 -51.2 0
v -34.8 -51.2 0
v -23.6 -53.2 0
v -24.4 -53.2 0
v -4 -53.6 0
v -7.2 -89.6 0
v -8 -89.6 0
v -8 -88 0
v -7.2 -88 0
v -7.2 -91.2 0
v -8 -91.2 0
v -7.2 -92.8 0
v -8 -92.8 0
v -17.6 -106.4 0
v -18.4 -106.4 0
v -18.4 -104.8 0
v -17.6 -104.8 0
v -17.6 -108 0
v -18.4 -108 0
v -17.6 -109.6 0
v -18.4 -109.6 0
v -25.2 -109.6 0
v -26 -109.6 0
v -26 -108 0
v -25.2 -108 0
v -17.6 -111.2 0
v -18.4 -111.2 0
v -25.2 -111.2 0
v -26 -111.2 0
v -17.6 -112.8 0
v -18.4 -112.8 0
v -25.2 -112.8 0
v -26 -112.8 0
v -17.6 -114.4 0
v -18.4 -114.4 0
v -25.2 -114.4 0
v -26 -114.4 0
v -17.6 -116 0
v -18.4 -116 0
v -17.6 -117.6 0
v -18.4 -117.6 0

# Texture cooridinates (Count = 8)
vt 0.06678874 0.9584554
vt 0.1332113 0.9584554
vt 0.1332113 0.9998779
vt 0.06678874 0.9998779
vt 0.06678874 0.9792888
vt 0.1332113 0.9792888
vt 0.09987793 0.9584554
vt 0.09987793 0.9998779

# Normal
vn 0 0 -1

# Groups (Count = 1)

g mesh_0001
f 1/1/1 2/2/1 3/3/1 4/4/1
f 2/1/1 5/2/1 6/3/1 3/4/1
f 5/1/1 7/2/1 8/3/1 6/4/1
f 7/1/1 9/2/1 10/3/1 8/4/1
f 9/1/1 11/2/1 12/3/1 10/4/1
f 11/1/1 13/2/1 14/3/1 12/4/1
f 13/1/1 15/2/1 16/3/1 14/4/1
f 15/1/1 17/2/1 18/3/1 16/4/1
f 17/1/1 19/2/1 20/3/1 18/4/1
f 19/1/1 21/2/1 22/3/1 20/4/1
f 21/1/1 23/2/1 24/3/1 22/4/1
f 23/1/1 25/2/1 26/3/1 24/4/1
f 25/1/1 27/2/1 28/3/1 26/4/1
f 27/1/1 29/2/1 30/3/1 28/4/1
f 29/1/1 31/2/1 32/3/1 30/4/1
f 31/1/1 33/2/1 34/3/1 32/4/1
f 33/1/1 35/2/1 36/3/1 34/4/1
f 35/1/1 37/2/1 38/3/1 36/4/1
f 37/1/1 39/2/1 40/3/1 38/4/1
f 39/1/1 41/2/1 42/3/1 40/4/1
f 41/1/1 43/2/1 44/3/1 42/4/1
f 43/1/1 45/2/1 46/3/1 44/4/1
f 45/1/1 47/2/1 48/3/1 46/4/1
f 47/1/1 49/2/1 50/3/1 48/4/1
f 49/1/1 51/2/1 52/3/1 50/4/1
f 51/1/1 53/2/1 54/3/1 52/4/1
f 55/1/1 56/2/1 57/3/1 58/4/1
f 56/1/1 59/2/1 60/3/1 57/4/1
f 59/1/1 61/2/1 62/3/1 60/4/1
f 61/1/1 63/2/1 64/3/1 62/4/1
f 63/1/1 65/2/1 66/3/1 64/4/1
f 65/1/1 67/2/1 68/3/1 66/4/1
f 67/1/1 69/2/1 70/3/1 68/4/1
f 69/1/1 71/2/1 72/3/1 70/4/1
f 71/1/1 73/2/1 74/3/1 72/4/1
f 73/1/1 75/2/1 76/3/1 74/4/1
f 75/1/1 77/2/1 78/3/1 76/4/1
f 77/1/1 79/2/1 80/3/1 78/4/1
f 79/1/1 81/2/1 82/3/1 80/4/1
f 81/1/1 83/2/1 84/3/1 82/4/1
f 83/1/1 85/2/1 86/3/1 84/4/1
f 85/1/1 87/2/1 88/3/1 86/4/1
f 87/1/1 89/2/1 90/3/1 88/4/1
f 89/1/1 91/2/1 92/3/1 90/4/1
f 91/1/1 93/2/1 94/3/1 92/4/1
f 93/1/1 95/2/1 96/3/1 94/4/1
f 95/1/1 97/2/1 98/3/1 96/4/1
f 97/1/1 99/2/1 100/3/1 98/4/1
f 99/1/1 101/2/1 102/3/1 100/4/1
f 101/1/1 103/2/1 104/3/1 102/4/1
f 103/1/1 105/2/1 106/3/1 104/4/1
f 105/1/1 107/2/1 108/3/1 106/4/1

g mesh_0002
f 109/5/1 110/6/1 111/3/1 112/4/1
f 110/5/1 113/6/1 114/3/1 111/4/1
f 113/5/1 115/6/1 116/3/1 114/4/1
f 115/5/1 117/6/1 118/3/1 116/4/1
f 117/5/1 119/6/1 120/3/1 118/4/1
f 119/5/1 121/6/1 122/3/1 120/4/1
f 121/5/1 123/6/1 124/3/1 122/4/1
f 123/5/1 125/6/1 126/3/1 124/4/1
f 125/5/1 127/6/1 128/3/1 126/4/1
f 127/5/1 129/6/1 130/3/1 128/4/1
f 129/5/1 131/6/1 132/3/1 130/4/1
f 131/5/1 133/6/1 134/3/1 132/4/1
f 133/5/1 135/6/1 136/3/1 134/4/1
f 135/5/1 137/6/1 138/3/1 136/4/1
f 137/5/1 139/6/1 140/3/1 138/4/1
f 139/5/1 141/6/1 142/3/1 140/4/1
f 141/5/1 143/6/1 144/3/1 142/4/1
f 143/5/1 145/6/1 146/3/1 144/4/1
f 145/5/1 147/6/1 148/3/1 146/4/1
f 147/5/1 149/6/1 150/3/1 148/4/1
f 149/5/1 151/6/1 152/3/1 150/4/1
f 151/5/1 153/6/1 154/3/1 152/4/1
f 153/5/1 155/6/1 156/3/1 154/4/1
f 155/5/1 157/6/1 158/3/1 156/4/1
f 159/5/1 160/6/1 161/3/1 162/4/1
f 160/5/1 163/6/1 164/3/1 161/4/1
f 163/5/1 165/6/1 166/3/1 164/4/1
f 165/5/1 167/6/1 168/3/1 166/4/1
f 167/5/1 169/6/1 170/3/1 168/4/1
f 169/5/1 171/6/1 172/3/1 170/4/1
f 171/5/1 173/6/1 174/3/1 172/4/1
f 173/5/1 175/6/1 176/3/1 174/4/1
f 175/5/1 177/6/1 178/3/1 176/4/1
f 177/5/1 179/6/1 180/3/1 178/4/1
f 179/5/1 181/6/1 182/3/1 180/4/1
f 181/5/1 183/6/1 184/3/1 182/4/1
f 183/5/1 185/6/1 186/3/1 184/4/1
f 185/5/1 187/6/1 188/3/1 186/4/1
f 187/5/1 189/6/1 190/3/1 188/4/1
f 189/5/1 191/6/1 192/3/1 190/4/1
f 191/5/1 193/6/1 194/3/1 192/4/1
f 193/5/1 195/6/1 196/3/1 194/4/1
f 195/5/1 197/6/1 198/3/1 196/4/1
f 197/5/1 199/6/1 200/3/1 198/4/1
f 199/5/1 201/6/1 202/3/1 200/4/1
f 201/5/1 203/6/1 204/3/1 202/4/1
f 203/5/1 205/6/1 206/3/1 204/4/1
f 205/5/1 207/6/1 208/3/1 206/4/1
f 209/5/1 210/6/1 211/3/1 212/4/1
f 210/5/1 213/6/1 214/3/1 211/4/1
f 213/5/1 215/6/1 216/3/1 214/4/1
f 215/5/1 217/6/1 218/3/1 216/4/1
f 217/5/1 219/6/1 220/3/1 218/4/1
f 219/5/1 221/6/1 222/3/1 220/4/1
f 221/5/1 223/6/1 224/3/1 222/4/1
f 223/5/1 225/6/1 226/3/1 224/4/1
f 225/5/1 227/6/1 228/3/1 226/4/1
f 227/5/1 229/6/1 230/3/1 228/4/1
f 229/5/1 231/6/1 232/3/1 230/4/1
f 231/5/1 233/6/1 234/3/1 232/4/1
f 233/5/1 235/6/1 236/3/1 234/4/1
f 235/5/1 237/6/1 238/3/1 236/4/1
f 237/5/1 239/6/1 240/3/1 238/4/1
f 239/5/1 241/6/1 242/3/1 240/4/1
f 241/5/1 243/6/1 244/3/1 242/4/1
f 243/5/1 245/6/1 246/3/1 244/4/1
f 245/5/1 247/6/1 248/3/1 246/4/1
f 247/5/1 249/6/1 250/3/1 248/4/1
f 249/5/1 251/6/1 252/3/1 250/4/1
f 251/5/1 253/6/1 254/3/1 252/4/1
f 253/5/1 255/6/1 256/3/1 254/4/1
f 255/5/1 257/6/1 258/3/1 256/4/1
f 257/5/1 259/6/1 260/3/1 258/4/1
f 259/5/1 261/6/1 262/3/1 260/4/1
f 263/5/1 264/6/1 265/3/1 266/4/1
f 264/5/1 267/6/1 268/3/1 265/4/1
f 267/5/1 269/6/1 270/3/1 268/4/1
f 269/5/1 271/6/1 272/3/1 270/4/1
f 273/5/1 274/6/1 275/3/1 276/4/1
f 274/5/1 277/6/1 278/3/1 275/4/1
f 277/5/1 279/6/1 280/3/1 278/4/1
f 279/5/1 281/6/1 282/3/1 280/4/1
f 283/5/1 284/6/1 285/3/1 286/4/1
f 284/5/1 287/6/1 288/3/1 285/4/1
f 287/5/1 289/6/1 290/3/1 288/4/1
f 289/5/1 291/6/1 292/3/1 290/4/1
f 291/5/1 293/6/1 294/3/1 292/4/1
f 293/5/1 295/6/1 296/3/1 294/4/1
f 295/5/1 297/6/1 298/3/1 296/4/1
f 297/5/1 299/6/1 300/3/1 298/4/1
f 299/5/1 301/6/1 302/3/1 300/4/1
f 301/5/1 303/6/1 304/3/1 302/4/1
f 305/5/1 306/6/1 307/3/1 308/4/1
f 306/5/1 309/6/1 310/3/1 307/4/1
f 309/5/1 311/6/1 312/3/1 310/4/1
f 311/5/1 313/6/1 314/3/1 312/4/1
f 315/5/1 316/6/1 317/3/1 318/4/1
f 316/5/1 319/6/1 320/3/1 317/4/1
f 319/5/1 321/6/1 322/3/1 320/4/1
f 321/5/1 323/6/1 324/3/1 322/4/1
f 323/5/1 325/6/1 326/3/1 324/4/1
f 327/5/1 328/6/1 329/3/1 330/4/1
f 328/5/1 331/6/1 332/3/1 329/4/1
f 331/5/1 333/6/1 334/3/1 332/4/1
f 333/5/1 335/6/1 336/3/1 334/4/1
f 337/5/1 338/6/1 339/3/1 340/4/1
f 338/5/1 341/6/1 342/3/1 339/4/1
f 341/5/1 343/6/1 344/3/1 342/4/1
f 343/5/1 345/6/1 346/3/1 344/4/1
f 345/5/1 347/6/1 348/3/1 346/4/1
f 347/5/1 349/6/1 350/3/1 348/4/1
f 349/5/1 351/6/1 352/3/1 350/4/1
f 351/5/1 353/6/1 354/3/1 352/4/1
f 353/5/1 355/6/1 356/3/1 354/4/1
f 357/5/1 358/6/1 359/3/1 360/4/1
f 358/5/1 361/6/1 362/3/1 359/4/1
f 361/5/1 363/6/1 364/3/1 362/4/1
f 363/5/1 365/6/1 366/3/1 364/4/1
f 367/5/1 368/6/1 369/3/1 370/4/1
f 368/5/1 371/6/1 372/3/1 369/4/1
f 371/5/1 373/6/1 374/3/1 372/4/1
f 373/5/1 375/6/1 376/3/1 374/4/1
f 377/5/1 378/6/1 379/3/1 380/4/1
f 378/5/1 381/6/1 382/3/1 379/4/1
f 381/5/1 383/6/1 384/3/1 382/4/1
f 383/5/1 385/6/1 386/3/1 384/4/1
f 385/5/1 387/6/1 388/3/1 386/4/1
f 387/5/1 389/6/1 390/3/1 388/4/1
f 389/5/1 391/6/1 392/3/1 390/4/1
f 391/5/1 393/6/1 394/3/1 392/4/1
f 393/5/1 395/6/1 396/3/1 394/4/1
f 395/5/1 397/6/1 398/3/1 396/4/1
f 399/5/1 400/6/1 401/3/1 402/4/1
f 400/5/1 403/6/1 404/3/1 401/4/1
f 403/5/1 405/6/1 406/3/1 404/4/1
f 405/5/1 407/6/1 408/3/1 406/4/1

g mesh_0003
f 409/1/1 410/7/1 411/8/1 412/4/1
f 413/1/1 414/7/1 415/8/1 416/4/1
f 417/1/1 418/7/1 419/8/1 420/4/1
f 421/1/1 422/7/1 410/8/1 409/4/1
f 423/1/1 424/7/1 414/8/1 413/4/1
f 425/1/1 426/7/1 418/8/1 417/4/1
f 427/1/1 428/7/1 429/8/1 430/4/1
f 431/1/1 432/7/1 422/8/1 421/4/1
f 433/1/1 434/7/1 424/8/1 423/4/1
f 435/1/1 436/7/1 428/8/1 427/4/1
f 437/1/1 438/7/1 439/8/1 440/4/1
f 441/1/1 442/7/1 436/8/1 435/4/1
f 443/1/1 444/7/1 445/8/1 446/4/1
f 447/1/1 448/7/1 449/8/1 450/4/1
f 451/1/1 452/7/1 438/8/1 437/4/1
f 453/1/1 159/7/1 442/8/1 441/4/1
f 454/1/1 455/7/1 456/8/1 457/4/1
f 458/1/1 459/7/1 455/8/1 454/4/1
f 460/1/1 461/7/1 459/8/1 458/4/1
f 462/1/1 463/7/1 464/8/1 465/4/1
f 466/1/1 467/7/1 463/8/1 462/4/1
f 468/1/1 469/7/1 467/8/1 466/4/1
f 470/1/1 471/7/1 472/8/1 473/4/1
f 474/1/1 475/7/1 469/8/1 468/4/1
f 476/1/1 477/7/1 471/8/1 470/4/1
f 478/1/1 479/7/1 475/8/1 474/4/1
f 480/1/1 481/7/1 477/8/1 476/4/1
f 482/1/1 483/7/1 479/8/1 478/4/1
f 484/1/1 485/7/1 481/8/1 480/4/1
f 486/1/1 487/7/1 483/8/1 482/4/1
f 488/1/1 489/7/1 487/8/1 486/4/1

