# Wavefront OBJ file automatically generated by Tiled2Unity

# Vertices (Count = 767)
v -1.6 -1.6 0
v -3.2 -1.6 0
v -3.2 0 0
v -1.6 0 0
v -4.8 -1.6 0
v -4.8 0 0
v -6.4 -1.6 0
v -6.4 0 0
v -8 -1.6 0
v -8 0 0
v -9.6 -1.6 0
v -9.6 0 0
v -11.2 -1.6 0
v -11.2 0 0
v -12.8 -1.6 0
v -12.8 0 0
v -14.4 -1.6 0
v -14.4 0 0
v -16 -1.6 0
v -16 0 0
v -17.6 -1.6 0
v -17.6 0 0
v -19.2 -1.6 0
v -19.2 0 0
v -20.8 -1.6 0
v -20.8 0 0
v -22.4 -1.6 0
v -22.4 0 0
v -24 -1.6 0
v -24 0 0
v -25.6 -1.6 0
v -25.6 0 0
v -27.2 -1.6 0
v -27.2 0 0
v -28.8 -1.6 0
v -28.8 0 0
v -30.4 -1.6 0
v -30.4 0 0
v -32 -1.6 0
v -32 0 0
v -33.6 -1.6 0
v -33.6 0 0
v -35.2 -1.6 0
v -35.2 0 0
v -36.8 -1.6 0
v -36.8 0 0
v -38.4 -1.6 0
v -38.4 0 0
v -40 -1.6 0
v -40 0 0
v -41.6 -1.6 0
v -41.6 0 0
v -43.2 -1.6 0
v -43.2 0 0
v -8 -28.4 0
v -9.6 -28.4 0
v -9.6 -26.8 0
v -8 -26.8 0
v -8 -30 0
v -9.6 -30 0
v -8 -31.6 0
v -9.6 -31.6 0
v -8 -33.2 0
v -9.6 -33.2 0
v -8 -34.8 0
v -9.6 -34.8 0
v -8 -74 0
v -9.6 -74 0
v -9.6 -72.4 0
v -8 -72.4 0
v -8 -75.6 0
v -9.6 -75.6 0
v -8 -77.2 0
v -9.6 -77.2 0
v -8 -78.8 0
v -9.6 -78.8 0
v -12.8 -80.4 0
v -14.4 -80.4 0
v -14.4 -78.8 0
v -12.8 -78.8 0
v -27.2 -80.4 0
v -28.8 -80.4 0
v -28.8 -78.8 0
v -27.2 -78.8 0
v -12.8 -82 0
v -14.4 -82 0
v -27.2 -82 0
v -28.8 -82 0
v -1.6 -134.4 0
v -3.2 -134.4 0
v -3.2 -132.8 0
v -1.6 -132.8 0
v -4.8 -134.4 0
v -4.8 -132.8 0
v -6.4 -134.4 0
v -6.4 -132.8 0
v -8 -134.4 0
v -8 -132.8 0
v -9.6 -134.4 0
v -9.6 -132.8 0
v -11.2 -134.4 0
v -11.2 -132.8 0
v -12.8 -134.4 0
v -12.8 -132.8 0
v -14.4 -134.4 0
v -14.4 -132.8 0
v -16 -134.4 0
v -16 -132.8 0
v -17.6 -134.4 0
v -17.6 -132.8 0
v -19.2 -134.4 0
v -19.2 -132.8 0
v -20.8 -134.4 0
v -20.8 -132.8 0
v -22.4 -134.4 0
v -22.4 -132.8 0
v -24 -134.4 0
v -24 -132.8 0
v -25.6 -134.4 0
v -25.6 -132.8 0
v -27.2 -134.4 0
v -27.2 -132.8 0
v -28.8 -134.4 0
v -28.8 -132.8 0
v -30.4 -134.4 0
v -30.4 -132.8 0
v -32 -134.4 0
v -32 -132.8 0
v -33.6 -134.4 0
v -33.6 -132.8 0
v -35.2 -134.4 0
v -35.2 -132.8 0
v -36.8 -134.4 0
v -36.8 -132.8 0
v -38.4 -134.4 0
v -38.4 -132.8 0
v -40 -134.4 0
v -40 -132.8 0
v -41.6 -134.4 0
v -41.6 -132.8 0
v -43.2 -134.4 0
v -43.2 -132.8 0
v -8 -19.2 0
v -9.6 -19.2 0
v -9.6 -18.4 0
v -8 -18.4 0
v -11.2 -19.2 0
v -11.2 -18.4 0
v -12.8 -19.2 0
v -12.8 -18.4 0
v -14.4 -19.2 0
v -14.4 -18.4 0
v -16 -19.2 0
v -16 -18.4 0
v -17.6 -19.2 0
v -17.6 -18.4 0
v -19.2 -19.2 0
v -19.2 -18.4 0
v -20.8 -19.2 0
v -20.8 -18.4 0
v -22.4 -19.2 0
v -22.4 -18.4 0
v -24 -19.2 0
v -24 -18.4 0
v -25.6 -19.2 0
v -25.6 -18.4 0
v -27.2 -19.2 0
v -27.2 -18.4 0
v -28.8 -19.2 0
v -28.8 -18.4 0
v -30.4 -19.2 0
v -30.4 -18.4 0
v -32 -19.2 0
v -32 -18.4 0
v -33.6 -19.2 0
v -33.6 -18.4 0
v -35.2 -19.2 0
v -35.2 -18.4 0
v -36.8 -19.2 0
v -36.8 -18.4 0
v -38.4 -19.2 0
v -38.4 -18.4 0
v -40 -19.2 0
v -40 -18.4 0
v -41.6 -19.2 0
v -41.6 -18.4 0
v -43.2 -19.2 0
v -43.2 -18.4 0
v -1.6 -24 0
v -3.2 -24 0
v -3.2 -23.2 0
v -1.6 -23.2 0
v -4.8 -24 0
v -4.8 -23.2 0
v -6.4 -24 0
v -6.4 -23.2 0
v -8 -24 0
v -8 -23.2 0
v -9.6 -27.6 0
v -11.2 -27.6 0
v -11.2 -26.8 0
v -12.8 -27.6 0
v -12.8 -26.8 0
v -14.4 -27.6 0
v -14.4 -26.8 0
v -16 -27.6 0
v -16 -26.8 0
v -17.6 -27.6 0
v -17.6 -26.8 0
v -19.2 -27.6 0
v -19.2 -26.8 0
v -20.8 -27.6 0
v -20.8 -26.8 0
v -22.4 -27.6 0
v -22.4 -26.8 0
v -24 -27.6 0
v -24 -26.8 0
v -25.6 -27.6 0
v -25.6 -26.8 0
v -27.2 -27.6 0
v -27.2 -26.8 0
v -28.8 -27.6 0
v -28.8 -26.8 0
v -30.4 -27.6 0
v -30.4 -26.8 0
v -32 -27.6 0
v -32 -26.8 0
v -33.6 -27.6 0
v -33.6 -26.8 0
v -35.2 -27.6 0
v -35.2 -26.8 0
v -36.8 -27.6 0
v -36.8 -26.8 0
v -4.8 -30.8 0
v -6.4 -30.8 0
v -6.4 -30 0
v -4.8 -30 0
v -8 -30.8 0
v -1.6 -35.6 0
v -3.2 -35.6 0
v -3.2 -34.8 0
v -1.6 -34.8 0
v -4.8 -35.6 0
v -4.8 -34.8 0
v -6.4 -35.6 0
v -6.4 -34.8 0
v -8 -35.6 0
v -9.6 -35.6 0
v -11.2 -35.6 0
v -11.2 -34.8 0
v -12.8 -35.6 0
v -12.8 -34.8 0
v -14.4 -35.6 0
v -14.4 -34.8 0
v -19.2 -38 0
v -20.8 -38 0
v -20.8 -37.2 0
v -19.2 -37.2 0
v -22.4 -38 0
v -22.4 -37.2 0
v -24 -38 0
v -24 -37.2 0
v -25.6 -38 0
v -25.6 -37.2 0
v -27.2 -38 0
v -27.2 -37.2 0
v -28.8 -38 0
v -28.8 -37.2 0
v -30.4 -38 0
v -30.4 -37.2 0
v -32 -38 0
v -32 -37.2 0
v -40 -40.4 0
v -41.6 -40.4 0
v -41.6 -39.6 0
v -40 -39.6 0
v -43.2 -40.4 0
v -43.2 -39.6 0
v -1.6 -44.4 0
v -3.2 -44.4 0
v -3.2 -43.6 0
v -1.6 -43.6 0
v -4.8 -44.4 0
v -4.8 -43.6 0
v -6.4 -44.4 0
v -6.4 -43.6 0
v -8 -44.4 0
v -8 -43.6 0
v -9.6 -44.4 0
v -9.6 -43.6 0
v -11.2 -44.4 0
v -11.2 -43.6 0
v -12.8 -44.4 0
v -12.8 -43.6 0
v -14.4 -44.4 0
v -14.4 -43.6 0
v -16 -44.4 0
v -16 -43.6 0
v -17.6 -44.4 0
v -17.6 -43.6 0
v -19.2 -44.4 0
v -19.2 -43.6 0
v -20.8 -44.4 0
v -20.8 -43.6 0
v -22.4 -44.4 0
v -22.4 -43.6 0
v -24 -44.4 0
v -24 -43.6 0
v -25.6 -44.4 0
v -25.6 -43.6 0
v -27.2 -44.4 0
v -27.2 -43.6 0
v -28.8 -44.4 0
v -28.8 -43.6 0
v -30.4 -44.4 0
v -30.4 -43.6 0
v -32 -44.4 0
v -32 -43.6 0
v -33.6 -44.4 0
v -33.6 -43.6 0
v -35.2 -44.4 0
v -35.2 -43.6 0
v -36.8 -44.4 0
v -36.8 -43.6 0
v -38.4 -44.4 0
v -38.4 -43.6 0
v -22.4 -49.2 0
v -24 -49.2 0
v -24 -48.4 0
v -22.4 -48.4 0
v -25.6 -49.2 0
v -25.6 -48.4 0
v -27.2 -49.2 0
v -27.2 -48.4 0
v -28.8 -49.2 0
v -28.8 -48.4 0
v -30.4 -49.2 0
v -30.4 -48.4 0
v -32 -49.2 0
v -32 -48.4 0
v -33.6 -49.2 0
v -33.6 -48.4 0
v -35.2 -49.2 0
v -35.2 -48.4 0
v -36.8 -49.2 0
v -36.8 -48.4 0
v -38.4 -49.2 0
v -38.4 -48.4 0
v -40 -49.2 0
v -40 -48.4 0
v -41.6 -49.2 0
v -41.6 -48.4 0
v -43.2 -49.2 0
v -43.2 -48.4 0
v -12.8 -52.4 0
v -14.4 -52.4 0
v -14.4 -51.6 0
v -12.8 -51.6 0
v -16 -52.4 0
v -16 -51.6 0
v -17.6 -52.4 0
v -17.6 -51.6 0
v -22.4 -55.6 0
v -24 -55.6 0
v -24 -54.8 0
v -22.4 -54.8 0
v -25.6 -55.6 0
v -25.6 -54.8 0
v -27.2 -55.6 0
v -27.2 -54.8 0
v -1.6 -58.8 0
v -3.2 -58.8 0
v -3.2 -58 0
v -1.6 -58 0
v -4.8 -58.8 0
v -4.8 -58 0
v -6.4 -58.8 0
v -6.4 -58 0
v -8 -58.8 0
v -8 -58 0
v -9.6 -58.8 0
v -9.6 -58 0
v -11.2 -58.8 0
v -11.2 -58 0
v -12.8 -58.8 0
v -12.8 -58 0
v -14.4 -58.8 0
v -14.4 -58 0
v -16 -58.8 0
v -16 -58 0
v -17.6 -58.8 0
v -17.6 -58 0
v -19.2 -58.8 0
v -19.2 -58 0
v -20.8 -58.8 0
v -20.8 -58 0
v -22.4 -58.8 0
v -22.4 -58 0
v -24 -58.8 0
v -24 -58 0
v -25.6 -58.8 0
v -25.6 -58 0
v -27.2 -58.8 0
v -27.2 -58 0
v -28.8 -58.8 0
v -28.8 -58 0
v -30.4 -58.8 0
v -30.4 -58 0
v -32 -58.8 0
v -32 -58 0
v -33.6 -58.8 0
v -33.6 -58 0
v -35.2 -58.8 0
v -35.2 -58 0
v -12.8 -63.6 0
v -14.4 -63.6 0
v -14.4 -62.8 0
v -12.8 -62.8 0
v -16 -63.6 0
v -16 -62.8 0
v -17.6 -63.6 0
v -17.6 -62.8 0
v -19.2 -63.6 0
v -19.2 -62.8 0
v -20.8 -63.6 0
v -20.8 -62.8 0
v -22.4 -63.6 0
v -22.4 -62.8 0
v -24 -63.6 0
v -24 -62.8 0
v -25.6 -63.6 0
v -25.6 -62.8 0
v -27.2 -63.6 0
v -27.2 -62.8 0
v -28.8 -63.6 0
v -28.8 -62.8 0
v -30.4 -63.6 0
v -30.4 -62.8 0
v -32 -63.6 0
v -32 -62.8 0
v -33.6 -63.6 0
v -33.6 -62.8 0
v -35.2 -63.6 0
v -35.2 -62.8 0
v -36.8 -63.6 0
v -36.8 -62.8 0
v -38.4 -63.6 0
v -38.4 -62.8 0
v -40 -63.6 0
v -40 -62.8 0
v -41.6 -63.6 0
v -41.6 -62.8 0
v -43.2 -63.6 0
v -43.2 -62.8 0
v -1.6 -66.8 0
v -3.2 -66.8 0
v -3.2 -66 0
v -1.6 -66 0
v -4.8 -66.8 0
v -4.8 -66 0
v -6.4 -66.8 0
v -6.4 -66 0
v -8 -66.8 0
v -8 -66 0
v -9.6 -66.8 0
v -9.6 -66 0
v -9.6 -73.2 0
v -11.2 -73.2 0
v -11.2 -72.4 0
v -12.8 -73.2 0
v -12.8 -72.4 0
v -14.4 -73.2 0
v -14.4 -72.4 0
v -16 -73.2 0
v -16 -72.4 0
v -17.6 -73.2 0
v -17.6 -72.4 0
v -19.2 -73.2 0
v -19.2 -72.4 0
v -20.8 -73.2 0
v -20.8 -72.4 0
v -22.4 -73.2 0
v -22.4 -72.4 0
v -24 -73.2 0
v -24 -72.4 0
v -25.6 -73.2 0
v -25.6 -72.4 0
v -27.2 -73.2 0
v -27.2 -72.4 0
v -28.8 -73.2 0
v -28.8 -72.4 0
v -30.4 -73.2 0
v -30.4 -72.4 0
v -32 -73.2 0
v -32 -72.4 0
v -33.6 -73.2 0
v -33.6 -72.4 0
v -35.2 -73.2 0
v -35.2 -72.4 0
v -36.8 -73.2 0
v -36.8 -72.4 0
v -38.4 -73.2 0
v -38.4 -72.4 0
v -40 -73.2 0
v -40 -72.4 0
v -41.6 -73.2 0
v -41.6 -72.4 0
v -43.2 -73.2 0
v -43.2 -72.4 0
v -1.6 -82.8 0
v -3.2 -82.8 0
v -3.2 -82 0
v -1.6 -82 0
v -4.8 -82.8 0
v -4.8 -82 0
v -6.4 -82.8 0
v -6.4 -82 0
v -8 -82.8 0
v -8 -82 0
v -9.6 -82.8 0
v -9.6 -82 0
v -11.2 -82.8 0
v -11.2 -82 0
v -12.8 -82.8 0
v -14.4 -82.8 0
v -16 -82.8 0
v -16 -82 0
v -17.6 -82.8 0
v -17.6 -82 0
v -19.2 -82.8 0
v -19.2 -82 0
v -20.8 -82.8 0
v -20.8 -82 0
v -22.4 -82.8 0
v -22.4 -82 0
v -24 -82.8 0
v -24 -82 0
v -25.6 -82.8 0
v -25.6 -82 0
v -27.2 -82.8 0
v -28.8 -82.8 0
v -30.4 -82.8 0
v -30.4 -82 0
v -32 -82.8 0
v -32 -82 0
v -33.6 -82.8 0
v -33.6 -82 0
v -35.2 -82.8 0
v -35.2 -82 0
v -36.8 -82.8 0
v -36.8 -82 0
v -27.2 -87.6 0
v -28.8 -87.6 0
v -28.8 -86.8 0
v -27.2 -86.8 0
v -30.4 -87.6 0
v -30.4 -86.8 0
v -32 -87.6 0
v -32 -86.8 0
v -33.6 -87.6 0
v -33.6 -86.8 0
v -35.2 -87.6 0
v -35.2 -86.8 0
v -36.8 -87.6 0
v -36.8 -86.8 0
v -38.4 -87.6 0
v -38.4 -86.8 0
v -40 -87.6 0
v -40 -86.8 0
v -41.6 -87.6 0
v -41.6 -86.8 0
v -43.2 -87.6 0
v -43.2 -86.8 0
v -1.6 -91.2 0
v -3.2 -91.2 0
v -3.2 -90.4 0
v -1.6 -90.4 0
v -4.8 -91.2 0
v -4.8 -90.4 0
v -6.4 -91.2 0
v -6.4 -90.4 0
v -8 -91.2 0
v -8 -90.4 0
v -9.6 -91.2 0
v -9.6 -90.4 0
v -11.2 -91.2 0
v -11.2 -90.4 0
v -12.8 -91.2 0
v -12.8 -90.4 0
v -14.4 -91.2 0
v -14.4 -90.4 0
v -16 -91.2 0
v -16 -90.4 0
v -17.6 -91.2 0
v -17.6 -90.4 0
v -19.2 -91.2 0
v -19.2 -90.4 0
v -20.8 -91.2 0
v -20.8 -90.4 0
v -22.4 -91.2 0
v -22.4 -90.4 0
v -24 -91.2 0
v -24 -90.4 0
v -25.6 -91.2 0
v -25.6 -90.4 0
v -27.2 -94.8 0
v -28.8 -94.8 0
v -28.8 -94 0
v -27.2 -94 0
v -30.4 -94.8 0
v -30.4 -94 0
v -32 -94.8 0
v -32 -94 0
v -33.6 -94.8 0
v -33.6 -94 0
v -35.2 -94.8 0
v -35.2 -94 0
v -36.8 -94.8 0
v -36.8 -94 0
v -38.4 -94.8 0
v -38.4 -94 0
v -40 -94.8 0
v -40 -94 0
v -41.6 -94.8 0
v -41.6 -94 0
v -43.2 -94.8 0
v -43.2 -94 0
v -1.6 -98.4 0
v -3.2 -98.4 0
v -3.2 -97.6 0
v -1.6 -97.6 0
v -4.8 -98.4 0
v -4.8 -97.6 0
v -6.4 -98.4 0
v -6.4 -97.6 0
v -8 -98.4 0
v -8 -97.6 0
v -9.6 -98.4 0
v -9.6 -97.6 0
v -11.2 -98.4 0
v -11.2 -97.6 0
v -12.8 -98.4 0
v -12.8 -97.6 0
v -14.4 -98.4 0
v -14.4 -97.6 0
v -16 -98.4 0
v -16 -97.6 0
v -17.6 -98.4 0
v -17.6 -97.6 0
v -19.2 -98.4 0
v -19.2 -97.6 0
v -20.8 -98.4 0
v -20.8 -97.6 0
v -22.4 -98.4 0
v -22.4 -97.6 0
v -24 -98.4 0
v -24 -97.6 0
v -25.6 -98.4 0
v -25.6 -97.6 0
v -27.2 -98.4 0
v -27.2 -97.6 0
v -32 -101.6 0
v -33.6 -101.6 0
v -33.6 -100.8 0
v -32 -100.8 0
v -35.2 -101.6 0
v -35.2 -100.8 0
v -36.8 -101.6 0
v -36.8 -100.8 0
v -38.4 -101.6 0
v -38.4 -100.8 0
v -40 -101.6 0
v -40 -100.8 0
v -41.6 -101.6 0
v -41.6 -100.8 0
v -43.2 -101.6 0
v -43.2 -100.8 0
v -23.2 -104.8 0
v -24.8 -104.8 0
v -24.8 -104 0
v -23.2 -104 0
v -26.4 -104.8 0
v -26.4 -104 0
v -28 -104.8 0
v -28 -104 0
v -29.6 -104.8 0
v -29.6 -104 0
v -13.6 -108 0
v -15.2 -108 0
v -15.2 -107.2 0
v -13.6 -107.2 0
v -16.8 -108 0
v -16.8 -107.2 0
v -18.4 -108 0
v -18.4 -107.2 0
v -20 -108 0
v -20 -107.2 0
v -4 -111.2 0
v -5.6 -111.2 0
v -5.6 -110.4 0
v -4 -110.4 0
v -7.2 -111.2 0
v -7.2 -110.4 0
v -8.8 -111.2 0
v -8.8 -110.4 0
v -10.4 -111.2 0
v -10.4 -110.4 0
v -13.6 -114.4 0
v -15.2 -114.4 0
v -15.2 -113.6 0
v -13.6 -113.6 0
v -16.8 -114.4 0
v -16.8 -113.6 0
v -18.4 -114.4 0
v -18.4 -113.6 0
v -20 -114.4 0
v -20 -113.6 0
v -23.2 -117.6 0
v -24.8 -117.6 0
v -24.8 -116.8 0
v -23.2 -116.8 0
v -26.4 -117.6 0
v -26.4 -116.8 0
v -28 -117.6 0
v -28 -116.8 0
v -29.6 -117.6 0
v -29.6 -116.8 0
v -32.8 -120.8 0
v -34.4 -120.8 0
v -34.4 -120 0
v -32.8 -120 0
v -36 -120.8 0
v -36 -120 0
v -37.6 -120.8 0
v -37.6 -120 0
v -39.2 -120.8 0
v -39.2 -120 0
v -23.2 -124 0
v -24.8 -124 0
v -24.8 -123.2 0
v -23.2 -123.2 0
v -26.4 -124 0
v -26.4 -123.2 0
v -28 -124 0
v -28 -123.2 0
v -29.6 -124 0
v -29.6 -123.2 0
v -13.6 -127.2 0
v -15.2 -127.2 0
v -15.2 -126.4 0
v -13.6 -126.4 0
v -16.8 -127.2 0
v -16.8 -126.4 0
v -18.4 -127.2 0
v -18.4 -126.4 0
v -20 -127.2 0
v -20 -126.4 0
v -4 -130.4 0
v -5.6 -130.4 0
v -5.6 -129.6 0
v -4 -129.6 0
v -7.2 -130.4 0
v -7.2 -129.6 0
v -8.8 -130.4 0
v -8.8 -129.6 0
v -10.4 -130.4 0
v -10.4 -129.6 0

# Texture cooridinates (Count = 10)
vt 0.06678874 0.8334554
vt 0.1332113 0.8334554
vt 0.1332113 0.8748779
vt 0.06678874 0.8748779
vt 0.2001221 0.8334554
vt 0.2665446 0.8334554
vt 0.2665446 0.8748779
vt 0.2001221 0.8748779
vt 0.06678874 0.8542888
vt 0.1332113 0.8542888

# Normal
vn 0 0 -1

# Groups (Count = 1)

g mesh_0001
f 1/1/1 2/2/1 3/3/1 4/4/1
f 2/1/1 5/2/1 6/3/1 3/4/1
f 5/1/1 7/2/1 8/3/1 6/4/1
f 7/1/1 9/2/1 10/3/1 8/4/1
f 9/1/1 11/2/1 12/3/1 10/4/1
f 11/1/1 13/2/1 14/3/1 12/4/1
f 13/1/1 15/2/1 16/3/1 14/4/1
f 15/1/1 17/2/1 18/3/1 16/4/1
f 17/1/1 19/2/1 20/3/1 18/4/1
f 19/1/1 21/2/1 22/3/1 20/4/1
f 21/1/1 23/2/1 24/3/1 22/4/1
f 23/1/1 25/2/1 26/3/1 24/4/1
f 25/1/1 27/2/1 28/3/1 26/4/1
f 27/1/1 29/2/1 30/3/1 28/4/1
f 29/1/1 31/2/1 32/3/1 30/4/1
f 31/1/1 33/2/1 34/3/1 32/4/1
f 33/1/1 35/2/1 36/3/1 34/4/1
f 35/1/1 37/2/1 38/3/1 36/4/1
f 37/1/1 39/2/1 40/3/1 38/4/1
f 39/1/1 41/2/1 42/3/1 40/4/1
f 41/1/1 43/2/1 44/3/1 42/4/1
f 43/1/1 45/2/1 46/3/1 44/4/1
f 45/1/1 47/2/1 48/3/1 46/4/1
f 47/1/1 49/2/1 50/3/1 48/4/1
f 49/1/1 51/2/1 52/3/1 50/4/1
f 51/1/1 53/2/1 54/3/1 52/4/1
f 55/1/1 56/2/1 57/3/1 58/4/1
f 59/5/1 60/6/1 56/7/1 55/8/1
f 61/5/1 62/6/1 60/7/1 59/8/1
f 63/5/1 64/6/1 62/7/1 61/8/1
f 65/5/1 66/6/1 64/7/1 63/8/1
f 67/1/1 68/2/1 69/3/1 70/4/1
f 71/1/1 72/2/1 68/3/1 67/4/1
f 73/1/1 74/2/1 72/3/1 71/4/1
f 75/1/1 76/2/1 74/3/1 73/4/1
f 77/5/1 78/6/1 79/7/1 80/8/1
f 81/5/1 82/6/1 83/7/1 84/8/1
f 85/5/1 86/6/1 78/7/1 77/8/1
f 87/5/1 88/6/1 82/7/1 81/8/1
f 89/1/1 90/2/1 91/3/1 92/4/1
f 90/1/1 93/2/1 94/3/1 91/4/1
f 93/1/1 95/2/1 96/3/1 94/4/1
f 95/1/1 97/2/1 98/3/1 96/4/1
f 97/1/1 99/2/1 100/3/1 98/4/1
f 99/1/1 101/2/1 102/3/1 100/4/1
f 101/1/1 103/2/1 104/3/1 102/4/1
f 103/1/1 105/2/1 106/3/1 104/4/1
f 105/1/1 107/2/1 108/3/1 106/4/1
f 107/1/1 109/2/1 110/3/1 108/4/1
f 109/1/1 111/2/1 112/3/1 110/4/1
f 111/1/1 113/2/1 114/3/1 112/4/1
f 113/1/1 115/2/1 116/3/1 114/4/1
f 115/1/1 117/2/1 118/3/1 116/4/1
f 117/1/1 119/2/1 120/3/1 118/4/1
f 119/1/1 121/2/1 122/3/1 120/4/1
f 121/1/1 123/2/1 124/3/1 122/4/1
f 123/1/1 125/2/1 126/3/1 124/4/1
f 125/1/1 127/2/1 128/3/1 126/4/1
f 127/1/1 129/2/1 130/3/1 128/4/1
f 129/1/1 131/2/1 132/3/1 130/4/1
f 131/1/1 133/2/1 134/3/1 132/4/1
f 133/1/1 135/2/1 136/3/1 134/4/1
f 135/1/1 137/2/1 138/3/1 136/4/1
f 137/1/1 139/2/1 140/3/1 138/4/1
f 139/1/1 141/2/1 142/3/1 140/4/1

g mesh_0002
f 143/9/1 144/10/1 145/3/1 146/4/1
f 144/9/1 147/10/1 148/3/1 145/4/1
f 147/9/1 149/10/1 150/3/1 148/4/1
f 149/9/1 151/10/1 152/3/1 150/4/1
f 151/9/1 153/10/1 154/3/1 152/4/1
f 153/9/1 155/10/1 156/3/1 154/4/1
f 155/9/1 157/10/1 158/3/1 156/4/1
f 157/9/1 159/10/1 160/3/1 158/4/1
f 159/9/1 161/10/1 162/3/1 160/4/1
f 161/9/1 163/10/1 164/3/1 162/4/1
f 163/9/1 165/10/1 166/3/1 164/4/1
f 165/9/1 167/10/1 168/3/1 166/4/1
f 167/9/1 169/10/1 170/3/1 168/4/1
f 169/9/1 171/10/1 172/3/1 170/4/1
f 171/9/1 173/10/1 174/3/1 172/4/1
f 173/9/1 175/10/1 176/3/1 174/4/1
f 175/9/1 177/10/1 178/3/1 176/4/1
f 177/9/1 179/10/1 180/3/1 178/4/1
f 179/9/1 181/10/1 182/3/1 180/4/1
f 181/9/1 183/10/1 184/3/1 182/4/1
f 183/9/1 185/10/1 186/3/1 184/4/1
f 185/9/1 187/10/1 188/3/1 186/4/1
f 189/9/1 190/10/1 191/3/1 192/4/1
f 190/9/1 193/10/1 194/3/1 191/4/1
f 193/9/1 195/10/1 196/3/1 194/4/1
f 195/9/1 197/10/1 198/3/1 196/4/1
f 199/9/1 200/10/1 201/3/1 57/4/1
f 200/9/1 202/10/1 203/3/1 201/4/1
f 202/9/1 204/10/1 205/3/1 203/4/1
f 204/9/1 206/10/1 207/3/1 205/4/1
f 206/9/1 208/10/1 209/3/1 207/4/1
f 208/9/1 210/10/1 211/3/1 209/4/1
f 210/9/1 212/10/1 213/3/1 211/4/1
f 212/9/1 214/10/1 215/3/1 213/4/1
f 214/9/1 216/10/1 217/3/1 215/4/1
f 216/9/1 218/10/1 219/3/1 217/4/1
f 218/9/1 220/10/1 221/3/1 219/4/1
f 220/9/1 222/10/1 223/3/1 221/4/1
f 222/9/1 224/10/1 225/3/1 223/4/1
f 224/9/1 226/10/1 227/3/1 225/4/1
f 226/9/1 228/10/1 229/3/1 227/4/1
f 228/9/1 230/10/1 231/3/1 229/4/1
f 230/9/1 232/10/1 233/3/1 231/4/1
f 234/9/1 235/10/1 236/3/1 237/4/1
f 235/9/1 238/10/1 59/3/1 236/4/1
f 239/9/1 240/10/1 241/3/1 242/4/1
f 240/9/1 243/10/1 244/3/1 241/4/1
f 243/9/1 245/10/1 246/3/1 244/4/1
f 245/9/1 247/10/1 65/3/1 246/4/1
f 247/9/1 248/10/1 66/3/1 65/4/1
f 248/9/1 249/10/1 250/3/1 66/4/1
f 249/9/1 251/10/1 252/3/1 250/4/1
f 251/9/1 253/10/1 254/3/1 252/4/1
f 255/9/1 256/10/1 257/3/1 258/4/1
f 256/9/1 259/10/1 260/3/1 257/4/1
f 259/9/1 261/10/1 262/3/1 260/4/1
f 261/9/1 263/10/1 264/3/1 262/4/1
f 263/9/1 265/10/1 266/3/1 264/4/1
f 265/9/1 267/10/1 268/3/1 266/4/1
f 267/9/1 269/10/1 270/3/1 268/4/1
f 269/9/1 271/10/1 272/3/1 270/4/1
f 273/9/1 274/10/1 275/3/1 276/4/1
f 274/9/1 277/10/1 278/3/1 275/4/1
f 279/9/1 280/10/1 281/3/1 282/4/1
f 280/9/1 283/10/1 284/3/1 281/4/1
f 283/9/1 285/10/1 286/3/1 284/4/1
f 285/9/1 287/10/1 288/3/1 286/4/1
f 287/9/1 289/10/1 290/3/1 288/4/1
f 289/9/1 291/10/1 292/3/1 290/4/1
f 291/9/1 293/10/1 294/3/1 292/4/1
f 293/9/1 295/10/1 296/3/1 294/4/1
f 295/9/1 297/10/1 298/3/1 296/4/1
f 297/9/1 299/10/1 300/3/1 298/4/1
f 299/9/1 301/10/1 302/3/1 300/4/1
f 301/9/1 303/10/1 304/3/1 302/4/1
f 303/9/1 305/10/1 306/3/1 304/4/1
f 305/9/1 307/10/1 308/3/1 306/4/1
f 307/9/1 309/10/1 310/3/1 308/4/1
f 309/9/1 311/10/1 312/3/1 310/4/1
f 311/9/1 313/10/1 314/3/1 312/4/1
f 313/9/1 315/10/1 316/3/1 314/4/1
f 315/9/1 317/10/1 318/3/1 316/4/1
f 317/9/1 319/10/1 320/3/1 318/4/1
f 319/9/1 321/10/1 322/3/1 320/4/1
f 321/9/1 323/10/1 324/3/1 322/4/1
f 323/9/1 325/10/1 326/3/1 324/4/1
f 327/9/1 328/10/1 329/3/1 330/4/1
f 328/9/1 331/10/1 332/3/1 329/4/1
f 331/9/1 333/10/1 334/3/1 332/4/1
f 333/9/1 335/10/1 336/3/1 334/4/1
f 335/9/1 337/10/1 338/3/1 336/4/1
f 337/9/1 339/10/1 340/3/1 338/4/1
f 339/9/1 341/10/1 342/3/1 340/4/1
f 341/9/1 343/10/1 344/3/1 342/4/1
f 343/9/1 345/10/1 346/3/1 344/4/1
f 345/9/1 347/10/1 348/3/1 346/4/1
f 347/9/1 349/10/1 350/3/1 348/4/1
f 349/9/1 351/10/1 352/3/1 350/4/1
f 351/9/1 353/10/1 354/3/1 352/4/1
f 355/9/1 356/10/1 357/3/1 358/4/1
f 356/9/1 359/10/1 360/3/1 357/4/1
f 359/9/1 361/10/1 362/3/1 360/4/1
f 363/9/1 364/10/1 365/3/1 366/4/1
f 364/9/1 367/10/1 368/3/1 365/4/1
f 367/9/1 369/10/1 370/3/1 368/4/1
f 371/9/1 372/10/1 373/3/1 374/4/1
f 372/9/1 375/10/1 376/3/1 373/4/1
f 375/9/1 377/10/1 378/3/1 376/4/1
f 377/9/1 379/10/1 380/3/1 378/4/1
f 379/9/1 381/10/1 382/3/1 380/4/1
f 381/9/1 383/10/1 384/3/1 382/4/1
f 383/9/1 385/10/1 386/3/1 384/4/1
f 385/9/1 387/10/1 388/3/1 386/4/1
f 387/9/1 389/10/1 390/3/1 388/4/1
f 389/9/1 391/10/1 392/3/1 390/4/1
f 391/9/1 393/10/1 394/3/1 392/4/1
f 393/9/1 395/10/1 396/3/1 394/4/1
f 395/9/1 397/10/1 398/3/1 396/4/1
f 397/9/1 399/10/1 400/3/1 398/4/1
f 399/9/1 401/10/1 402/3/1 400/4/1
f 401/9/1 403/10/1 404/3/1 402/4/1
f 403/9/1 405/10/1 406/3/1 404/4/1
f 405/9/1 407/10/1 408/3/1 406/4/1
f 407/9/1 409/10/1 410/3/1 408/4/1
f 409/9/1 411/10/1 412/3/1 410/4/1
f 411/9/1 413/10/1 414/3/1 412/4/1
f 415/9/1 416/10/1 417/3/1 418/4/1
f 416/9/1 419/10/1 420/3/1 417/4/1
f 419/9/1 421/10/1 422/3/1 420/4/1
f 421/9/1 423/10/1 424/3/1 422/4/1
f 423/9/1 425/10/1 426/3/1 424/4/1
f 425/9/1 427/10/1 428/3/1 426/4/1
f 427/9/1 429/10/1 430/3/1 428/4/1
f 429/9/1 431/10/1 432/3/1 430/4/1
f 431/9/1 433/10/1 434/3/1 432/4/1
f 433/9/1 435/10/1 436/3/1 434/4/1
f 435/9/1 437/10/1 438/3/1 436/4/1
f 437/9/1 439/10/1 440/3/1 438/4/1
f 439/9/1 441/10/1 442/3/1 440/4/1
f 441/9/1 443/10/1 444/3/1 442/4/1
f 443/9/1 445/10/1 446/3/1 444/4/1
f 445/9/1 447/10/1 448/3/1 446/4/1
f 447/9/1 449/10/1 450/3/1 448/4/1
f 449/9/1 451/10/1 452/3/1 450/4/1
f 451/9/1 453/10/1 454/3/1 452/4/1
f 455/9/1 456/10/1 457/3/1 458/4/1
f 456/9/1 459/10/1 460/3/1 457/4/1
f 459/9/1 461/10/1 462/3/1 460/4/1
f 461/9/1 463/10/1 464/3/1 462/4/1
f 463/9/1 465/10/1 466/3/1 464/4/1
f 467/9/1 468/10/1 469/3/1 69/4/1
f 468/9/1 470/10/1 471/3/1 469/4/1
f 470/9/1 472/10/1 473/3/1 471/4/1
f 472/9/1 474/10/1 475/3/1 473/4/1
f 474/9/1 476/10/1 477/3/1 475/4/1
f 476/9/1 478/10/1 479/3/1 477/4/1
f 478/9/1 480/10/1 481/3/1 479/4/1
f 480/9/1 482/10/1 483/3/1 481/4/1
f 482/9/1 484/10/1 485/3/1 483/4/1
f 484/9/1 486/10/1 487/3/1 485/4/1
f 486/9/1 488/10/1 489/3/1 487/4/1
f 488/9/1 490/10/1 491/3/1 489/4/1
f 490/9/1 492/10/1 493/3/1 491/4/1
f 492/9/1 494/10/1 495/3/1 493/4/1
f 494/9/1 496/10/1 497/3/1 495/4/1
f 496/9/1 498/10/1 499/3/1 497/4/1
f 498/9/1 500/10/1 501/3/1 499/4/1
f 500/9/1 502/10/1 503/3/1 501/4/1
f 502/9/1 504/10/1 505/3/1 503/4/1
f 504/9/1 506/10/1 507/3/1 505/4/1
f 506/9/1 508/10/1 509/3/1 507/4/1
f 510/9/1 511/10/1 512/3/1 513/4/1
f 511/9/1 514/10/1 515/3/1 512/4/1
f 514/9/1 516/10/1 517/3/1 515/4/1
f 516/9/1 518/10/1 519/3/1 517/4/1
f 518/9/1 520/10/1 521/3/1 519/4/1
f 520/9/1 522/10/1 523/3/1 521/4/1
f 522/9/1 524/10/1 85/3/1 523/4/1
f 524/9/1 525/10/1 86/3/1 85/4/1
f 525/9/1 526/10/1 527/3/1 86/4/1
f 526/9/1 528/10/1 529/3/1 527/4/1
f 528/9/1 530/10/1 531/3/1 529/4/1
f 530/9/1 532/10/1 533/3/1 531/4/1
f 532/9/1 534/10/1 535/3/1 533/4/1
f 534/9/1 536/10/1 537/3/1 535/4/1
f 536/9/1 538/10/1 539/3/1 537/4/1
f 538/9/1 540/10/1 87/3/1 539/4/1
f 540/9/1 541/10/1 88/3/1 87/4/1
f 541/9/1 542/10/1 543/3/1 88/4/1
f 542/9/1 544/10/1 545/3/1 543/4/1
f 544/9/1 546/10/1 547/3/1 545/4/1
f 546/9/1 548/10/1 549/3/1 547/4/1
f 548/9/1 550/10/1 551/3/1 549/4/1
f 552/9/1 553/10/1 554/3/1 555/4/1
f 553/9/1 556/10/1 557/3/1 554/4/1
f 556/9/1 558/10/1 559/3/1 557/4/1
f 558/9/1 560/10/1 561/3/1 559/4/1
f 560/9/1 562/10/1 563/3/1 561/4/1
f 562/9/1 564/10/1 565/3/1 563/4/1
f 564/9/1 566/10/1 567/3/1 565/4/1
f 566/9/1 568/10/1 569/3/1 567/4/1
f 568/9/1 570/10/1 571/3/1 569/4/1
f 570/9/1 572/10/1 573/3/1 571/4/1
f 574/9/1 575/10/1 576/3/1 577/4/1
f 575/9/1 578/10/1 579/3/1 576/4/1
f 578/9/1 580/10/1 581/3/1 579/4/1
f 580/9/1 582/10/1 583/3/1 581/4/1
f 582/9/1 584/10/1 585/3/1 583/4/1
f 584/9/1 586/10/1 587/3/1 585/4/1
f 586/9/1 588/10/1 589/3/1 587/4/1
f 588/9/1 590/10/1 591/3/1 589/4/1
f 590/9/1 592/10/1 593/3/1 591/4/1
f 592/9/1 594/10/1 595/3/1 593/4/1
f 594/9/1 596/10/1 597/3/1 595/4/1
f 596/9/1 598/10/1 599/3/1 597/4/1
f 598/9/1 600/10/1 601/3/1 599/4/1
f 600/9/1 602/10/1 603/3/1 601/4/1
f 602/9/1 604/10/1 605/3/1 603/4/1
f 606/9/1 607/10/1 608/3/1 609/4/1
f 607/9/1 610/10/1 611/3/1 608/4/1
f 610/9/1 612/10/1 613/3/1 611/4/1
f 612/9/1 614/10/1 615/3/1 613/4/1
f 614/9/1 616/10/1 617/3/1 615/4/1
f 616/9/1 618/10/1 619/3/1 617/4/1
f 618/9/1 620/10/1 621/3/1 619/4/1
f 620/9/1 622/10/1 623/3/1 621/4/1
f 622/9/1 624/10/1 625/3/1 623/4/1
f 624/9/1 626/10/1 627/3/1 625/4/1
f 628/9/1 629/10/1 630/3/1 631/4/1
f 629/9/1 632/10/1 633/3/1 630/4/1
f 632/9/1 634/10/1 635/3/1 633/4/1
f 634/9/1 636/10/1 637/3/1 635/4/1
f 636/9/1 638/10/1 639/3/1 637/4/1
f 638/9/1 640/10/1 641/3/1 639/4/1
f 640/9/1 642/10/1 643/3/1 641/4/1
f 642/9/1 644/10/1 645/3/1 643/4/1
f 644/9/1 646/10/1 647/3/1 645/4/1
f 646/9/1 648/10/1 649/3/1 647/4/1
f 648/9/1 650/10/1 651/3/1 649/4/1
f 650/9/1 652/10/1 653/3/1 651/4/1
f 652/9/1 654/10/1 655/3/1 653/4/1
f 654/9/1 656/10/1 657/3/1 655/4/1
f 656/9/1 658/10/1 659/3/1 657/4/1
f 658/9/1 660/10/1 661/3/1 659/4/1
f 662/9/1 663/10/1 664/3/1 665/4/1
f 663/9/1 666/10/1 667/3/1 664/4/1
f 666/9/1 668/10/1 669/3/1 667/4/1
f 668/9/1 670/10/1 671/3/1 669/4/1
f 670/9/1 672/10/1 673/3/1 671/4/1
f 672/9/1 674/10/1 675/3/1 673/4/1
f 674/9/1 676/10/1 677/3/1 675/4/1
f 678/9/1 679/10/1 680/3/1 681/4/1
f 679/9/1 682/10/1 683/3/1 680/4/1
f 682/9/1 684/10/1 685/3/1 683/4/1
f 684/9/1 686/10/1 687/3/1 685/4/1
f 688/9/1 689/10/1 690/3/1 691/4/1
f 689/9/1 692/10/1 693/3/1 690/4/1
f 692/9/1 694/10/1 695/3/1 693/4/1
f 694/9/1 696/10/1 697/3/1 695/4/1
f 698/9/1 699/10/1 700/3/1 701/4/1
f 699/9/1 702/10/1 703/3/1 700/4/1
f 702/9/1 704/10/1 705/3/1 703/4/1
f 704/9/1 706/10/1 707/3/1 705/4/1
f 708/9/1 709/10/1 710/3/1 711/4/1
f 709/9/1 712/10/1 713/3/1 710/4/1
f 712/9/1 714/10/1 715/3/1 713/4/1
f 714/9/1 716/10/1 717/3/1 715/4/1
f 718/9/1 719/10/1 720/3/1 721/4/1
f 719/9/1 722/10/1 723/3/1 720/4/1
f 722/9/1 724/10/1 725/3/1 723/4/1
f 724/9/1 726/10/1 727/3/1 725/4/1
f 728/9/1 729/10/1 730/3/1 731/4/1
f 729/9/1 732/10/1 733/3/1 730/4/1
f 732/9/1 734/10/1 735/3/1 733/4/1
f 734/9/1 736/10/1 737/3/1 735/4/1
f 738/9/1 739/10/1 740/3/1 741/4/1
f 739/9/1 742/10/1 743/3/1 740/4/1
f 742/9/1 744/10/1 745/3/1 743/4/1
f 744/9/1 746/10/1 747/3/1 745/4/1
f 748/9/1 749/10/1 750/3/1 751/4/1
f 749/9/1 752/10/1 753/3/1 750/4/1
f 752/9/1 754/10/1 755/3/1 753/4/1
f 754/9/1 756/10/1 757/3/1 755/4/1
f 758/9/1 759/10/1 760/3/1 761/4/1
f 759/9/1 762/10/1 763/3/1 760/4/1
f 762/9/1 764/10/1 765/3/1 763/4/1
f 764/9/1 766/10/1 767/3/1 765/4/1

