# Wavefront OBJ file automatically generated by Tiled2Unity

# Vertices (Count = 478)
v -1.6 -1.6 0
v -3.2 -1.6 0
v -3.2 0 0
v -1.6 0 0
v -4.8 -1.6 0
v -4.8 0 0
v -6.4 -1.6 0
v -6.4 0 0
v -8 -1.6 0
v -8 0 0
v -9.6 -1.6 0
v -9.6 0 0
v -11.2 -1.6 0
v -11.2 0 0
v -12.8 -1.6 0
v -12.8 0 0
v -14.4 -1.6 0
v -14.4 0 0
v -16 -1.6 0
v -16 0 0
v -17.6 -1.6 0
v -17.6 0 0
v -19.2 -1.6 0
v -19.2 0 0
v -20.8 -1.6 0
v -20.8 0 0
v -22.4 -1.6 0
v -22.4 0 0
v -24 -1.6 0
v -24 0 0
v -25.6 -1.6 0
v -25.6 0 0
v -27.2 -1.6 0
v -27.2 0 0
v -28.8 -1.6 0
v -28.8 0 0
v -30.4 -1.6 0
v -30.4 0 0
v -32 -1.6 0
v -32 0 0
v -33.6 -1.6 0
v -33.6 0 0
v -35.2 -1.6 0
v -35.2 0 0
v -36.8 -1.6 0
v -36.8 0 0
v -38.4 -1.6 0
v -38.4 0 0
v -40 -1.6 0
v -40 0 0
v -41.6 -1.6 0
v -41.6 0 0
v -43.2 -1.6 0
v -43.2 0 0
v -20.8 -96 0
v -22.4 -96 0
v -22.4 -94.4 0
v -20.8 -94.4 0
v -20.8 -97.6 0
v -22.4 -97.6 0
v -20.8 -99.2 0
v -22.4 -99.2 0
v -20.8 -100.8 0
v -22.4 -100.8 0
v -28.8 -101.6 0
v -30.4 -101.6 0
v -30.4 -100 0
v -28.8 -100 0
v -20.8 -102.4 0
v -22.4 -102.4 0
v -28.8 -103.2 0
v -30.4 -103.2 0
v -20.8 -104 0
v -22.4 -104 0
v -28.8 -104.8 0
v -30.4 -104.8 0
v -28.8 -106.4 0
v -30.4 -106.4 0
v -28.8 -108 0
v -30.4 -108 0
v -28.8 -109.6 0
v -30.4 -109.6 0
v -1.6 -134.4 0
v -3.2 -134.4 0
v -3.2 -132.8 0
v -1.6 -132.8 0
v -4.8 -134.4 0
v -4.8 -132.8 0
v -6.4 -134.4 0
v -6.4 -132.8 0
v -8 -134.4 0
v -8 -132.8 0
v -9.6 -134.4 0
v -9.6 -132.8 0
v -11.2 -134.4 0
v -11.2 -132.8 0
v -12.8 -134.4 0
v -12.8 -132.8 0
v -14.4 -134.4 0
v -14.4 -132.8 0
v -16 -134.4 0
v -16 -132.8 0
v -17.6 -134.4 0
v -17.6 -132.8 0
v -19.2 -134.4 0
v -19.2 -132.8 0
v -20.8 -134.4 0
v -20.8 -132.8 0
v -22.4 -134.4 0
v -22.4 -132.8 0
v -24 -134.4 0
v -24 -132.8 0
v -25.6 -134.4 0
v -25.6 -132.8 0
v -27.2 -134.4 0
v -27.2 -132.8 0
v -28.8 -134.4 0
v -28.8 -132.8 0
v -30.4 -134.4 0
v -30.4 -132.8 0
v -32 -134.4 0
v -32 -132.8 0
v -33.6 -134.4 0
v -33.6 -132.8 0
v -35.2 -134.4 0
v -35.2 -132.8 0
v -36.8 -134.4 0
v -36.8 -132.8 0
v -38.4 -134.4 0
v -38.4 -132.8 0
v -40 -134.4 0
v -40 -132.8 0
v -41.6 -134.4 0
v -41.6 -132.8 0
v -43.2 -134.4 0
v -43.2 -132.8 0
v -6.4 -95.2 0
v -8 -95.2 0
v -8 -94.4 0
v -6.4 -94.4 0
v -9.6 -95.2 0
v -9.6 -94.4 0
v -11.2 -95.2 0
v -11.2 -94.4 0
v -12.8 -95.2 0
v -12.8 -94.4 0
v -14.4 -95.2 0
v -14.4 -94.4 0
v -16 -95.2 0
v -16 -94.4 0
v -17.6 -95.2 0
v -17.6 -94.4 0
v -19.2 -95.2 0
v -19.2 -94.4 0
v -20.8 -95.2 0
v -22.4 -95.2 0
v -24 -95.2 0
v -24 -94.4 0
v -25.6 -95.2 0
v -25.6 -94.4 0
v -27.2 -95.2 0
v -27.2 -94.4 0
v -28.8 -95.2 0
v -28.8 -94.4 0
v -30.4 -95.2 0
v -30.4 -94.4 0
v -32 -95.2 0
v -32 -94.4 0
v -33.6 -95.2 0
v -33.6 -94.4 0
v -35.2 -95.2 0
v -35.2 -94.4 0
v -36.8 -95.2 0
v -36.8 -94.4 0
v -38.4 -95.2 0
v -38.4 -94.4 0
v -40 -95.2 0
v -40 -94.4 0
v -41.6 -95.2 0
v -41.6 -94.4 0
v -43.2 -95.2 0
v -43.2 -94.4 0
v -1.6 -100 0
v -3.2 -100 0
v -3.2 -99.2 0
v -1.6 -99.2 0
v -4.8 -100 0
v -4.8 -99.2 0
v -6.4 -100 0
v -6.4 -99.2 0
v -8 -100 0
v -8 -99.2 0
v -9.6 -100 0
v -9.6 -99.2 0
v -11.2 -100 0
v -11.2 -99.2 0
v -12.8 -100 0
v -12.8 -99.2 0
v -14.4 -100 0
v -14.4 -99.2 0
v -16 -100 0
v -16 -99.2 0
v -30.4 -99.2 0
v -28.8 -99.2 0
v -32 -100 0
v -32 -99.2 0
v -33.6 -100 0
v -33.6 -99.2 0
v -35.2 -100 0
v -35.2 -99.2 0
v -36.8 -100 0
v -36.8 -99.2 0
v -6.4 -104.8 0
v -8 -104.8 0
v -8 -104 0
v -6.4 -104 0
v -9.6 -104.8 0
v -9.6 -104 0
v -11.2 -104.8 0
v -11.2 -104 0
v -12.8 -104.8 0
v -12.8 -104 0
v -14.4 -104.8 0
v -14.4 -104 0
v -16 -104.8 0
v -16 -104 0
v -17.6 -104.8 0
v -17.6 -104 0
v -19.2 -104.8 0
v -19.2 -104 0
v -20.8 -104.8 0
v -22.4 -104.8 0
v -36.8 -104.8 0
v -38.4 -104.8 0
v -38.4 -104 0
v -36.8 -104 0
v -40 -104.8 0
v -40 -104 0
v -41.6 -104.8 0
v -41.6 -104 0
v -43.2 -104.8 0
v -43.2 -104 0
v -1.6 -109.6 0
v -3.2 -109.6 0
v -3.2 -108.8 0
v -1.6 -108.8 0
v -4.8 -109.6 0
v -4.8 -108.8 0
v -6.4 -109.6 0
v -6.4 -108.8 0
v -8 -109.6 0
v -8 -108.8 0
v -9.6 -109.6 0
v -9.6 -108.8 0
v -11.2 -109.6 0
v -11.2 -108.8 0
v -12.8 -109.6 0
v -12.8 -108.8 0
v -14.4 -109.6 0
v -14.4 -108.8 0
v -16 -109.6 0
v -16 -108.8 0
v -17.6 -109.6 0
v -17.6 -108.8 0
v -19.2 -109.6 0
v -19.2 -108.8 0
v -20.8 -109.6 0
v -20.8 -108.8 0
v -22.4 -109.6 0
v -22.4 -108.8 0
v -24 -109.6 0
v -24 -108.8 0
v -25.6 -109.6 0
v -25.6 -108.8 0
v -27.2 -109.6 0
v -27.2 -108.8 0
v -28.8 -108.8 0
v -32 -109.6 0
v -32 -108.8 0
v -30.4 -108.8 0
v -33.6 -109.6 0
v -33.6 -108.8 0
v -35.2 -109.6 0
v -35.2 -108.8 0
v -36.8 -109.6 0
v -36.8 -108.8 0
v -6.4 -114.4 0
v -8 -114.4 0
v -8 -113.6 0
v -6.4 -113.6 0
v -9.6 -114.4 0
v -9.6 -113.6 0
v -11.2 -114.4 0
v -11.2 -113.6 0
v -12.8 -114.4 0
v -12.8 -113.6 0
v -14.4 -114.4 0
v -14.4 -113.6 0
v -16 -114.4 0
v -16 -113.6 0
v -17.6 -114.4 0
v -17.6 -113.6 0
v -19.2 -114.4 0
v -19.2 -113.6 0
v -20.8 -114.4 0
v -20.8 -113.6 0
v -22.4 -114.4 0
v -22.4 -113.6 0
v -24 -114.4 0
v -24 -113.6 0
v -25.6 -114.4 0
v -25.6 -113.6 0
v -27.2 -114.4 0
v -27.2 -113.6 0
v -28.8 -114.4 0
v -28.8 -113.6 0
v -30.4 -114.4 0
v -30.4 -113.6 0
v -32 -114.4 0
v -32 -113.6 0
v -33.6 -114.4 0
v -33.6 -113.6 0
v -35.2 -114.4 0
v -35.2 -113.6 0
v -36.8 -114.4 0
v -36.8 -113.6 0
v -38.4 -114.4 0
v -38.4 -113.6 0
v -40 -114.4 0
v -40 -113.6 0
v -41.6 -114.4 0
v -41.6 -113.6 0
v -43.2 -114.4 0
v -43.2 -113.6 0
v -1.6 -119.2 0
v -3.2 -119.2 0
v -3.2 -118.4 0
v -1.6 -118.4 0
v -4.8 -119.2 0
v -4.8 -118.4 0
v -6.4 -119.2 0
v -6.4 -118.4 0
v -8 -119.2 0
v -8 -118.4 0
v -9.6 -119.2 0
v -9.6 -118.4 0
v -11.2 -119.2 0
v -11.2 -118.4 0
v -12.8 -119.2 0
v -12.8 -118.4 0
v -14.4 -119.2 0
v -14.4 -118.4 0
v -16 -119.2 0
v -16 -118.4 0
v -17.6 -119.2 0
v -17.6 -118.4 0
v -19.2 -119.2 0
v -19.2 -118.4 0
v -20.8 -119.2 0
v -20.8 -118.4 0
v -22.4 -119.2 0
v -22.4 -118.4 0
v -24 -119.2 0
v -24 -118.4 0
v -25.6 -119.2 0
v -25.6 -118.4 0
v -27.2 -119.2 0
v -27.2 -118.4 0
v -28.8 -119.2 0
v -28.8 -118.4 0
v -30.4 -119.2 0
v -30.4 -118.4 0
v -32 -119.2 0
v -32 -118.4 0
v -33.6 -119.2 0
v -33.6 -118.4 0
v -35.2 -119.2 0
v -35.2 -118.4 0
v -36.8 -119.2 0
v -36.8 -118.4 0
v -38.4 -119.2 0
v -38.4 -118.4 0
v -6.4 -124 0
v -8 -124 0
v -8 -123.2 0
v -6.4 -123.2 0
v -9.6 -124 0
v -9.6 -123.2 0
v -11.2 -124 0
v -11.2 -123.2 0
v -12.8 -124 0
v -12.8 -123.2 0
v -14.4 -124 0
v -14.4 -123.2 0
v -16 -124 0
v -16 -123.2 0
v -17.6 -124 0
v -17.6 -123.2 0
v -19.2 -124 0
v -19.2 -123.2 0
v -20.8 -124 0
v -20.8 -123.2 0
v -22.4 -124 0
v -22.4 -123.2 0
v -24 -124 0
v -24 -123.2 0
v -25.6 -124 0
v -25.6 -123.2 0
v -27.2 -124 0
v -27.2 -123.2 0
v -28.8 -124 0
v -28.8 -123.2 0
v -30.4 -124 0
v -30.4 -123.2 0
v -32 -124 0
v -32 -123.2 0
v -33.6 -124 0
v -33.6 -123.2 0
v -35.2 -124 0
v -35.2 -123.2 0
v -36.8 -124 0
v -36.8 -123.2 0
v -38.4 -124 0
v -38.4 -123.2 0
v -40 -124 0
v -40 -123.2 0
v -41.6 -124 0
v -41.6 -123.2 0
v -43.2 -124 0
v -43.2 -123.2 0
v -1.6 -128.8 0
v -3.2 -128.8 0
v -3.2 -128 0
v -1.6 -128 0
v -4.8 -128.8 0
v -4.8 -128 0
v -6.4 -128.8 0
v -6.4 -128 0
v -8 -128.8 0
v -8 -128 0
v -9.6 -128.8 0
v -9.6 -128 0
v -11.2 -128.8 0
v -11.2 -128 0
v -12.8 -128.8 0
v -12.8 -128 0
v -14.4 -128.8 0
v -14.4 -128 0
v -16 -128.8 0
v -16 -128 0
v -17.6 -128.8 0
v -17.6 -128 0
v -19.2 -128.8 0
v -19.2 -128 0
v -20.8 -128.8 0
v -20.8 -128 0
v -22.4 -128.8 0
v -22.4 -128 0
v -24 -128.8 0
v -24 -128 0
v -25.6 -128.8 0
v -25.6 -128 0
v -27.2 -128.8 0
v -27.2 -128 0
v -28.8 -128.8 0
v -28.8 -128 0
v -30.4 -128.8 0
v -30.4 -128 0
v -32 -128.8 0
v -32 -128 0
v -33.6 -128.8 0
v -33.6 -128 0
v -35.2 -128.8 0
v -35.2 -128 0
v -36.8 -128.8 0
v -36.8 -128 0
v -38.4 -128.8 0
v -38.4 -128 0

# Texture cooridinates (Count = 6)
vt 0.06678874 0.8334554
vt 0.1332113 0.8334554
vt 0.1332113 0.8748779
vt 0.06678874 0.8748779
vt 0.06678874 0.8542888
vt 0.1332113 0.8542888

# Normal
vn 0 0 -1

# Groups (Count = 1)

g mesh_0001
f 1/1/1 2/2/1 3/3/1 4/4/1
f 2/1/1 5/2/1 6/3/1 3/4/1
f 5/1/1 7/2/1 8/3/1 6/4/1
f 7/1/1 9/2/1 10/3/1 8/4/1
f 9/1/1 11/2/1 12/3/1 10/4/1
f 11/1/1 13/2/1 14/3/1 12/4/1
f 13/1/1 15/2/1 16/3/1 14/4/1
f 15/1/1 17/2/1 18/3/1 16/4/1
f 17/1/1 19/2/1 20/3/1 18/4/1
f 19/1/1 21/2/1 22/3/1 20/4/1
f 21/1/1 23/2/1 24/3/1 22/4/1
f 23/1/1 25/2/1 26/3/1 24/4/1
f 25/1/1 27/2/1 28/3/1 26/4/1
f 27/1/1 29/2/1 30/3/1 28/4/1
f 29/1/1 31/2/1 32/3/1 30/4/1
f 31/1/1 33/2/1 34/3/1 32/4/1
f 33/1/1 35/2/1 36/3/1 34/4/1
f 35/1/1 37/2/1 38/3/1 36/4/1
f 37/1/1 39/2/1 40/3/1 38/4/1
f 39/1/1 41/2/1 42/3/1 40/4/1
f 41/1/1 43/2/1 44/3/1 42/4/1
f 43/1/1 45/2/1 46/3/1 44/4/1
f 45/1/1 47/2/1 48/3/1 46/4/1
f 47/1/1 49/2/1 50/3/1 48/4/1
f 49/1/1 51/2/1 52/3/1 50/4/1
f 51/1/1 53/2/1 54/3/1 52/4/1
f 55/1/1 56/2/1 57/3/1 58/4/1
f 59/1/1 60/2/1 56/3/1 55/4/1
f 61/1/1 62/2/1 60/3/1 59/4/1
f 63/1/1 64/2/1 62/3/1 61/4/1
f 65/1/1 66/2/1 67/3/1 68/4/1
f 69/1/1 70/2/1 64/3/1 63/4/1
f 71/1/1 72/2/1 66/3/1 65/4/1
f 73/1/1 74/2/1 70/3/1 69/4/1
f 75/1/1 76/2/1 72/3/1 71/4/1
f 77/1/1 78/2/1 76/3/1 75/4/1
f 79/1/1 80/2/1 78/3/1 77/4/1
f 81/1/1 82/2/1 80/3/1 79/4/1
f 83/1/1 84/2/1 85/3/1 86/4/1
f 84/1/1 87/2/1 88/3/1 85/4/1
f 87/1/1 89/2/1 90/3/1 88/4/1
f 89/1/1 91/2/1 92/3/1 90/4/1
f 91/1/1 93/2/1 94/3/1 92/4/1
f 93/1/1 95/2/1 96/3/1 94/4/1
f 95/1/1 97/2/1 98/3/1 96/4/1
f 97/1/1 99/2/1 100/3/1 98/4/1
f 99/1/1 101/2/1 102/3/1 100/4/1
f 101/1/1 103/2/1 104/3/1 102/4/1
f 103/1/1 105/2/1 106/3/1 104/4/1
f 105/1/1 107/2/1 108/3/1 106/4/1
f 107/1/1 109/2/1 110/3/1 108/4/1
f 109/1/1 111/2/1 112/3/1 110/4/1
f 111/1/1 113/2/1 114/3/1 112/4/1
f 113/1/1 115/2/1 116/3/1 114/4/1
f 115/1/1 117/2/1 118/3/1 116/4/1
f 117/1/1 119/2/1 120/3/1 118/4/1
f 119/1/1 121/2/1 122/3/1 120/4/1
f 121/1/1 123/2/1 124/3/1 122/4/1
f 123/1/1 125/2/1 126/3/1 124/4/1
f 125/1/1 127/2/1 128/3/1 126/4/1
f 127/1/1 129/2/1 130/3/1 128/4/1
f 129/1/1 131/2/1 132/3/1 130/4/1
f 131/1/1 133/2/1 134/3/1 132/4/1
f 133/1/1 135/2/1 136/3/1 134/4/1

g mesh_0002
f 137/5/1 138/6/1 139/3/1 140/4/1
f 138/5/1 141/6/1 142/3/1 139/4/1
f 141/5/1 143/6/1 144/3/1 142/4/1
f 143/5/1 145/6/1 146/3/1 144/4/1
f 145/5/1 147/6/1 148/3/1 146/4/1
f 147/5/1 149/6/1 150/3/1 148/4/1
f 149/5/1 151/6/1 152/3/1 150/4/1
f 151/5/1 153/6/1 154/3/1 152/4/1
f 153/5/1 155/6/1 58/3/1 154/4/1
f 156/5/1 157/6/1 158/3/1 57/4/1
f 157/5/1 159/6/1 160/3/1 158/4/1
f 159/5/1 161/6/1 162/3/1 160/4/1
f 161/5/1 163/6/1 164/3/1 162/4/1
f 163/5/1 165/6/1 166/3/1 164/4/1
f 165/5/1 167/6/1 168/3/1 166/4/1
f 167/5/1 169/6/1 170/3/1 168/4/1
f 169/5/1 171/6/1 172/3/1 170/4/1
f 171/5/1 173/6/1 174/3/1 172/4/1
f 173/5/1 175/6/1 176/3/1 174/4/1
f 175/5/1 177/6/1 178/3/1 176/4/1
f 177/5/1 179/6/1 180/3/1 178/4/1
f 179/5/1 181/6/1 182/3/1 180/4/1
f 183/5/1 184/6/1 185/3/1 186/4/1
f 184/5/1 187/6/1 188/3/1 185/4/1
f 187/5/1 189/6/1 190/3/1 188/4/1
f 189/5/1 191/6/1 192/3/1 190/4/1
f 191/5/1 193/6/1 194/3/1 192/4/1
f 193/5/1 195/6/1 196/3/1 194/4/1
f 195/5/1 197/6/1 198/3/1 196/4/1
f 197/5/1 199/6/1 200/3/1 198/4/1
f 199/5/1 201/6/1 202/3/1 200/4/1
f 68/5/1 67/6/1 203/3/1 204/4/1
f 67/5/1 205/6/1 206/3/1 203/4/1
f 205/5/1 207/6/1 208/3/1 206/4/1
f 207/5/1 209/6/1 210/3/1 208/4/1
f 209/5/1 211/6/1 212/3/1 210/4/1
f 213/5/1 214/6/1 215/3/1 216/4/1
f 214/5/1 217/6/1 218/3/1 215/4/1
f 217/5/1 219/6/1 220/3/1 218/4/1
f 219/5/1 221/6/1 222/3/1 220/4/1
f 221/5/1 223/6/1 224/3/1 222/4/1
f 223/5/1 225/6/1 226/3/1 224/4/1
f 225/5/1 227/6/1 228/3/1 226/4/1
f 227/5/1 229/6/1 230/3/1 228/4/1
f 229/5/1 231/6/1 73/3/1 230/4/1
f 231/5/1 232/6/1 74/3/1 73/4/1
f 233/5/1 234/6/1 235/3/1 236/4/1
f 234/5/1 237/6/1 238/3/1 235/4/1
f 237/5/1 239/6/1 240/3/1 238/4/1
f 239/5/1 241/6/1 242/3/1 240/4/1
f 243/5/1 244/6/1 245/3/1 246/4/1
f 244/5/1 247/6/1 248/3/1 245/4/1
f 247/5/1 249/6/1 250/3/1 248/4/1
f 249/5/1 251/6/1 252/3/1 250/4/1
f 251/5/1 253/6/1 254/3/1 252/4/1
f 253/5/1 255/6/1 256/3/1 254/4/1
f 255/5/1 257/6/1 258/3/1 256/4/1
f 257/5/1 259/6/1 260/3/1 258/4/1
f 259/5/1 261/6/1 262/3/1 260/4/1
f 261/5/1 263/6/1 264/3/1 262/4/1
f 263/5/1 265/6/1 266/3/1 264/4/1
f 265/5/1 267/6/1 268/3/1 266/4/1
f 267/5/1 269/6/1 270/3/1 268/4/1
f 269/5/1 271/6/1 272/3/1 270/4/1
f 271/5/1 273/6/1 274/3/1 272/4/1
f 273/5/1 275/6/1 276/3/1 274/4/1
f 275/5/1 81/6/1 277/3/1 276/4/1
f 82/5/1 278/6/1 279/3/1 280/4/1
f 278/5/1 281/6/1 282/3/1 279/4/1
f 281/5/1 283/6/1 284/3/1 282/4/1
f 283/5/1 285/6/1 286/3/1 284/4/1
f 287/5/1 288/6/1 289/3/1 290/4/1
f 288/5/1 291/6/1 292/3/1 289/4/1
f 291/5/1 293/6/1 294/3/1 292/4/1
f 293/5/1 295/6/1 296/3/1 294/4/1
f 295/5/1 297/6/1 298/3/1 296/4/1
f 297/5/1 299/6/1 300/3/1 298/4/1
f 299/5/1 301/6/1 302/3/1 300/4/1
f 301/5/1 303/6/1 304/3/1 302/4/1
f 303/5/1 305/6/1 306/3/1 304/4/1
f 305/5/1 307/6/1 308/3/1 306/4/1
f 307/5/1 309/6/1 310/3/1 308/4/1
f 309/5/1 311/6/1 312/3/1 310/4/1
f 311/5/1 313/6/1 314/3/1 312/4/1
f 313/5/1 315/6/1 316/3/1 314/4/1
f 315/5/1 317/6/1 318/3/1 316/4/1
f 317/5/1 319/6/1 320/3/1 318/4/1
f 319/5/1 321/6/1 322/3/1 320/4/1
f 321/5/1 323/6/1 324/3/1 322/4/1
f 323/5/1 325/6/1 326/3/1 324/4/1
f 325/5/1 327/6/1 328/3/1 326/4/1
f 327/5/1 329/6/1 330/3/1 328/4/1
f 329/5/1 331/6/1 332/3/1 330/4/1
f 331/5/1 333/6/1 334/3/1 332/4/1
f 335/5/1 336/6/1 337/3/1 338/4/1
f 336/5/1 339/6/1 340/3/1 337/4/1
f 339/5/1 341/6/1 342/3/1 340/4/1
f 341/5/1 343/6/1 344/3/1 342/4/1
f 343/5/1 345/6/1 346/3/1 344/4/1
f 345/5/1 347/6/1 348/3/1 346/4/1
f 347/5/1 349/6/1 350/3/1 348/4/1
f 349/5/1 351/6/1 352/3/1 350/4/1
f 351/5/1 353/6/1 354/3/1 352/4/1
f 353/5/1 355/6/1 356/3/1 354/4/1
f 355/5/1 357/6/1 358/3/1 356/4/1
f 357/5/1 359/6/1 360/3/1 358/4/1
f 359/5/1 361/6/1 362/3/1 360/4/1
f 361/5/1 363/6/1 364/3/1 362/4/1
f 363/5/1 365/6/1 366/3/1 364/4/1
f 365/5/1 367/6/1 368/3/1 366/4/1
f 367/5/1 369/6/1 370/3/1 368/4/1
f 369/5/1 371/6/1 372/3/1 370/4/1
f 371/5/1 373/6/1 374/3/1 372/4/1
f 373/5/1 375/6/1 376/3/1 374/4/1
f 375/5/1 377/6/1 378/3/1 376/4/1
f 377/5/1 379/6/1 380/3/1 378/4/1
f 379/5/1 381/6/1 382/3/1 380/4/1
f 383/5/1 384/6/1 385/3/1 386/4/1
f 384/5/1 387/6/1 388/3/1 385/4/1
f 387/5/1 389/6/1 390/3/1 388/4/1
f 389/5/1 391/6/1 392/3/1 390/4/1
f 391/5/1 393/6/1 394/3/1 392/4/1
f 393/5/1 395/6/1 396/3/1 394/4/1
f 395/5/1 397/6/1 398/3/1 396/4/1
f 397/5/1 399/6/1 400/3/1 398/4/1
f 399/5/1 401/6/1 402/3/1 400/4/1
f 401/5/1 403/6/1 404/3/1 402/4/1
f 403/5/1 405/6/1 406/3/1 404/4/1
f 405/5/1 407/6/1 408/3/1 406/4/1
f 407/5/1 409/6/1 410/3/1 408/4/1
f 409/5/1 411/6/1 412/3/1 410/4/1
f 411/5/1 413/6/1 414/3/1 412/4/1
f 413/5/1 415/6/1 416/3/1 414/4/1
f 415/5/1 417/6/1 418/3/1 416/4/1
f 417/5/1 419/6/1 420/3/1 418/4/1
f 419/5/1 421/6/1 422/3/1 420/4/1
f 421/5/1 423/6/1 424/3/1 422/4/1
f 423/5/1 425/6/1 426/3/1 424/4/1
f 425/5/1 427/6/1 428/3/1 426/4/1
f 427/5/1 429/6/1 430/3/1 428/4/1
f 431/5/1 432/6/1 433/3/1 434/4/1
f 432/5/1 435/6/1 436/3/1 433/4/1
f 435/5/1 437/6/1 438/3/1 436/4/1
f 437/5/1 439/6/1 440/3/1 438/4/1
f 439/5/1 441/6/1 442/3/1 440/4/1
f 441/5/1 443/6/1 444/3/1 442/4/1
f 443/5/1 445/6/1 446/3/1 444/4/1
f 445/5/1 447/6/1 448/3/1 446/4/1
f 447/5/1 449/6/1 450/3/1 448/4/1
f 449/5/1 451/6/1 452/3/1 450/4/1
f 451/5/1 453/6/1 454/3/1 452/4/1
f 453/5/1 455/6/1 456/3/1 454/4/1
f 455/5/1 457/6/1 458/3/1 456/4/1
f 457/5/1 459/6/1 460/3/1 458/4/1
f 459/5/1 461/6/1 462/3/1 460/4/1
f 461/5/1 463/6/1 464/3/1 462/4/1
f 463/5/1 465/6/1 466/3/1 464/4/1
f 465/5/1 467/6/1 468/3/1 466/4/1
f 467/5/1 469/6/1 470/3/1 468/4/1
f 469/5/1 471/6/1 472/3/1 470/4/1
f 471/5/1 473/6/1 474/3/1 472/4/1
f 473/5/1 475/6/1 476/3/1 474/4/1
f 475/5/1 477/6/1 478/3/1 476/4/1

