# Wavefront OBJ file automatically generated by Tiled2Unity

# Vertices (Count = 473)
v -1.6 -1.6 0
v -3.2 -1.6 0
v -3.2 0 0
v -1.6 0 0
v -4.8 -1.6 0
v -4.8 0 0
v -6.4 -1.6 0
v -6.4 0 0
v -8 -1.6 0
v -8 0 0
v -9.6 -1.6 0
v -9.6 0 0
v -11.2 -1.6 0
v -11.2 0 0
v -12.8 -1.6 0
v -12.8 0 0
v -14.4 -1.6 0
v -14.4 0 0
v -16 -1.6 0
v -16 0 0
v -17.6 -1.6 0
v -17.6 0 0
v -19.2 -1.6 0
v -19.2 0 0
v -20.8 -1.6 0
v -20.8 0 0
v -22.4 -1.6 0
v -22.4 0 0
v -24 -1.6 0
v -24 0 0
v -25.6 -1.6 0
v -25.6 0 0
v -27.2 -1.6 0
v -27.2 0 0
v -28.8 -1.6 0
v -28.8 0 0
v -30.4 -1.6 0
v -30.4 0 0
v -32 -1.6 0
v -32 0 0
v -33.6 -1.6 0
v -33.6 0 0
v -35.2 -1.6 0
v -35.2 0 0
v -36.8 -1.6 0
v -36.8 0 0
v -38.4 -1.6 0
v -38.4 0 0
v -40 -1.6 0
v -40 0 0
v -41.6 -1.6 0
v -41.6 0 0
v -43.2 -1.6 0
v -43.2 0 0
v -1.6 -134.4 0
v -3.2 -134.4 0
v -3.2 -132.8 0
v -1.6 -132.8 0
v -4.8 -134.4 0
v -4.8 -132.8 0
v -6.4 -134.4 0
v -6.4 -132.8 0
v -8 -134.4 0
v -8 -132.8 0
v -9.6 -134.4 0
v -9.6 -132.8 0
v -11.2 -134.4 0
v -11.2 -132.8 0
v -12.8 -134.4 0
v -12.8 -132.8 0
v -14.4 -134.4 0
v -14.4 -132.8 0
v -16 -134.4 0
v -16 -132.8 0
v -17.6 -134.4 0
v -17.6 -132.8 0
v -19.2 -134.4 0
v -19.2 -132.8 0
v -20.8 -134.4 0
v -20.8 -132.8 0
v -22.4 -134.4 0
v -22.4 -132.8 0
v -24 -134.4 0
v -24 -132.8 0
v -25.6 -134.4 0
v -25.6 -132.8 0
v -27.2 -134.4 0
v -27.2 -132.8 0
v -28.8 -134.4 0
v -28.8 -132.8 0
v -30.4 -134.4 0
v -30.4 -132.8 0
v -32 -134.4 0
v -32 -132.8 0
v -33.6 -134.4 0
v -33.6 -132.8 0
v -35.2 -134.4 0
v -35.2 -132.8 0
v -36.8 -134.4 0
v -36.8 -132.8 0
v -38.4 -134.4 0
v -38.4 -132.8 0
v -40 -134.4 0
v -40 -132.8 0
v -41.6 -134.4 0
v -41.6 -132.8 0
v -43.2 -134.4 0
v -43.2 -132.8 0
v -16 -10.4 0
v -17.6 -10.4 0
v -17.6 -9.6 0
v -16 -9.6 0
v -19.2 -10.4 0
v -19.2 -9.6 0
v -20.8 -10.4 0
v -20.8 -9.6 0
v -22.4 -10.4 0
v -22.4 -9.6 0
v -24 -10.4 0
v -24 -9.6 0
v -25.6 -10.4 0
v -25.6 -9.6 0
v -27.2 -10.4 0
v -27.2 -9.6 0
v -28.8 -10.4 0
v -28.8 -9.6 0
v -30.4 -10.4 0
v -30.4 -9.6 0
v -32 -10.4 0
v -32 -9.6 0
v -33.6 -10.4 0
v -33.6 -9.6 0
v -35.2 -10.4 0
v -35.2 -9.6 0
v -36.8 -10.4 0
v -36.8 -9.6 0
v -38.4 -10.4 0
v -38.4 -9.6 0
v -40 -10.4 0
v -40 -9.6 0
v -41.6 -10.4 0
v -41.6 -9.6 0
v -43.2 -10.4 0
v -43.2 -9.6 0
v -22.4 -30.4 0
v -24 -30.4 0
v -24 -29.6 0
v -22.4 -29.6 0
v -25.6 -30.4 0
v -25.6 -29.6 0
v -27.2 -30.4 0
v -27.2 -29.6 0
v -28.8 -30.4 0
v -28.8 -29.6 0
v -30.4 -30.4 0
v -30.4 -29.6 0
v -32 -30.4 0
v -32 -29.6 0
v -33.6 -30.4 0
v -33.6 -29.6 0
v -35.2 -30.4 0
v -35.2 -29.6 0
v -25.6 -37.6 0
v -27.2 -37.6 0
v -27.2 -36.8 0
v -25.6 -36.8 0
v -28.8 -37.6 0
v -28.8 -36.8 0
v -30.4 -37.6 0
v -30.4 -36.8 0
v -32 -37.6 0
v -32 -36.8 0
v -33.6 -37.6 0
v -33.6 -36.8 0
v -35.2 -37.6 0
v -35.2 -36.8 0
v -36.8 -37.6 0
v -36.8 -36.8 0
v -38.4 -37.6 0
v -38.4 -36.8 0
v -6.8 -45.6 0
v -8.400001 -45.6 0
v -8.400001 -44.8 0
v -6.8 -44.8 0
v -10 -45.6 0
v -10 -44.8 0
v -11.6 -45.6 0
v -11.6 -44.8 0
v -13.2 -45.6 0
v -13.2 -44.8 0
v -20.8 -48.8 0
v -22.4 -48.8 0
v -22.4 -48 0
v -20.8 -48 0
v -24 -48.8 0
v -24 -48 0
v -25.6 -48.8 0
v -25.6 -48 0
v -27.2 -48.8 0
v -27.2 -48 0
v -1.6 -52.8 0
v -3.2 -52.8 0
v -3.2 -52 0
v -1.6 -52 0
v -4.8 -52.8 0
v -4.8 -52 0
v -6.4 -52.8 0
v -6.4 -52 0
v -8 -52.8 0
v -8 -52 0
v -9.6 -52.8 0
v -9.6 -52 0
v -11.2 -52.8 0
v -11.2 -52 0
v -12.8 -52.8 0
v -12.8 -52 0
v -14.4 -52.8 0
v -14.4 -52 0
v -16 -52.8 0
v -16 -52 0
v -17.6 -52.8 0
v -17.6 -52 0
v -19.2 -52.8 0
v -19.2 -52 0
v -20.8 -52.8 0
v -20.8 -52 0
v -22.4 -52.8 0
v -22.4 -52 0
v -24 -52.8 0
v -24 -52 0
v -25.6 -52.8 0
v -25.6 -52 0
v -27.2 -52.8 0
v -27.2 -52 0
v -28.8 -52.8 0
v -28.8 -52 0
v -30.4 -52.8 0
v -30.4 -52 0
v -32 -52.8 0
v -32 -52 0
v -33.6 -52.8 0
v -33.6 -52 0
v -35.2 -52.8 0
v -35.2 -52 0
v -36.8 -52.8 0
v -36.8 -52 0
v -38.4 -52.8 0
v -38.4 -52 0
v -40 -52.8 0
v -40 -52 0
v -41.6 -52.8 0
v -41.6 -52 0
v -43.2 -52.8 0
v -43.2 -52 0
v -1.6 -58.4 0
v -3.2 -58.4 0
v -3.2 -57.6 0
v -1.6 -57.6 0
v -4.8 -58.4 0
v -4.8 -57.6 0
v -7.2 -62 0
v -8.8 -62 0
v -8.8 -61.2 0
v -7.2 -61.2 0
v -10.4 -62 0
v -10.4 -61.2 0
v -12 -62 0
v -12 -61.2 0
v -13.6 -62 0
v -13.6 -61.2 0
v -15.2 -62 0
v -15.2 -61.2 0
v -16.8 -62 0
v -16.8 -61.2 0
v -18.4 -62 0
v -18.4 -61.2 0
v -20 -62 0
v -20 -61.2 0
v -21.6 -62 0
v -21.6 -61.2 0
v -23.2 -62 0
v -23.2 -61.2 0
v -24.8 -62 0
v -24.8 -61.2 0
v -26.4 -62 0
v -26.4 -61.2 0
v -28 -62 0
v -28 -61.2 0
v -29.6 -62 0
v -29.6 -61.2 0
v -31.2 -62 0
v -31.2 -61.2 0
v -32.8 -62 0
v -32.8 -61.2 0
v -34.4 -62 0
v -34.4 -61.2 0
v -36 -62 0
v -36 -61.2 0
v -1.6 -68.4 0
v -3.2 -68.4 0
v -3.2 -67.6 0
v -1.6 -67.6 0
v -4.8 -68.4 0
v -4.8 -67.6 0
v -6.4 -68.4 0
v -6.4 -67.6 0
v -8 -68.4 0
v -8 -67.6 0
v -24 -73.6 0
v -25.6 -73.6 0
v -25.6 -72.8 0
v -24 -72.8 0
v -27.2 -73.6 0
v -27.2 -72.8 0
v -28.8 -73.6 0
v -28.8 -72.8 0
v -30.4 -73.6 0
v -30.4 -72.8 0
v -32 -73.6 0
v -32 -72.8 0
v -33.6 -73.6 0
v -33.6 -72.8 0
v -35.2 -73.6 0
v -35.2 -72.8 0
v -36.8 -73.6 0
v -36.8 -72.8 0
v -1.6 -85.6 0
v -3.2 -85.6 0
v -3.2 -84.8 0
v -1.6 -84.8 0
v -4.8 -85.6 0
v -4.8 -84.8 0
v -6.4 -85.6 0
v -6.4 -84.8 0
v -8 -85.6 0
v -8 -84.8 0
v -9.6 -85.6 0
v -9.6 -84.8 0
v -11.2 -85.6 0
v -11.2 -84.8 0
v -12.8 -85.6 0
v -12.8 -84.8 0
v -14.4 -85.6 0
v -14.4 -84.8 0
v -29.2 -96.8 0
v -30.8 -96.8 0
v -30.8 -96 0
v -29.2 -96 0
v -32.4 -96.8 0
v -32.4 -96 0
v -34 -96.8 0
v -34 -96 0
v -35.6 -96.8 0
v -35.6 -96 0
v -14.8 -112.8 0
v -16.4 -112.8 0
v -16.4 -112 0
v -14.8 -112 0
v -18 -112.8 0
v -18 -112 0
v -19.6 -112.8 0
v -19.6 -112 0
v -21.2 -112.8 0
v -21.2 -112 0
v -34 -120 0
v -35.6 -120 0
v -35.6 -119.2 0
v -34 -119.2 0
v -37.2 -120 0
v -37.2 -119.2 0
v -38.8 -120 0
v -38.8 -119.2 0
v -40.4 -120 0
v -40.4 -119.2 0
v -21.6 -123.6 0
v -23.2 -123.6 0
v -23.2 -122.8 0
v -21.6 -122.8 0
v -24.8 -123.6 0
v -24.8 -122.8 0
v -26.4 -123.6 0
v -26.4 -122.8 0
v -28 -123.6 0
v -28 -122.8 0
v -8.400001 -127.2 0
v -10 -127.2 0
v -10 -126.4 0
v -8.400001 -126.4 0
v -11.6 -127.2 0
v -11.6 -126.4 0
v -13.2 -127.2 0
v -13.2 -126.4 0
v -14.8 -127.2 0
v -14.8 -126.4 0
v -8 -11.2 0
v -8.8 -11.2 0
v -8.8 -9.6 0
v -8 -9.6 0
v -8 -12.8 0
v -8.8 -12.8 0
v -12.8 -14.4 0
v -13.6 -14.4 0
v -13.6 -12.8 0
v -12.8 -12.8 0
v -12.8 -16 0
v -13.6 -16 0
v -8.8 -18.8 0
v -9.6 -18.8 0
v -9.6 -17.2 0
v -8.8 -17.2 0
v -8.8 -20.4 0
v -9.6 -20.4 0
v -18.4 -20.4 0
v -19.2 -20.4 0
v -19.2 -18.8 0
v -18.4 -18.8 0
v -18.4 -22 0
v -19.2 -22 0
v -12.8 -24.4 0
v -13.6 -24.4 0
v -13.6 -22.8 0
v -12.8 -22.8 0
v -12.8 -26 0
v -13.6 -26 0
v -36.8 -61.2 0
v -36.8 -59.6 0
v -36 -59.6 0
v -36 -62.8 0
v -36.8 -62.8 0
v -7.2 -63.6 0
v -8 -63.6 0
v -8 -62 0
v -36 -64.4 0
v -36.8 -64.4 0
v -7.2 -65.2 0
v -8 -65.2 0
v -36 -66 0
v -36.8 -66 0
v -7.2 -66.8 0
v -8 -66.8 0
v -36 -67.6 0
v -36.8 -67.6 0
v -7.2 -68.4 0
v -12 -71.6 0
v -12.8 -71.6 0
v -12.8 -70 0
v -12 -70 0
v -12 -73.2 0
v -12.8 -73.2 0
v -6.4 -78 0
v -7.2 -78 0
v -7.2 -76.4 0
v -6.4 -76.4 0
v -6.4 -79.6 0
v -7.2 -79.6 0
v -6 -100.4 0
v -6.8 -100.4 0
v -6.8 -98.8 0
v -6 -98.8 0
v -6 -102 0
v -6.8 -102 0
v -11.2 -103.6 0
v -12 -103.6 0
v -12 -102 0
v -11.2 -102 0
v -11.2 -105.2 0
v -12 -105.2 0
v -6 -106.8 0
v -6.8 -106.8 0
v -6.8 -105.2 0
v -6 -105.2 0
v -6 -108.4 0
v -6.8 -108.4 0

# Texture cooridinates (Count = 8)
vt 0.06678874 0.9584554
vt 0.1332113 0.9584554
vt 0.1332113 0.9998779
vt 0.06678874 0.9998779
vt 0.06678874 0.9792888
vt 0.1332113 0.9792888
vt 0.09987793 0.9584554
vt 0.09987793 0.9998779

# Normal
vn 0 0 -1

# Groups (Count = 1)

g mesh_0001
f 1/1/1 2/2/1 3/3/1 4/4/1
f 2/1/1 5/2/1 6/3/1 3/4/1
f 5/1/1 7/2/1 8/3/1 6/4/1
f 7/1/1 9/2/1 10/3/1 8/4/1
f 9/1/1 11/2/1 12/3/1 10/4/1
f 11/1/1 13/2/1 14/3/1 12/4/1
f 13/1/1 15/2/1 16/3/1 14/4/1
f 15/1/1 17/2/1 18/3/1 16/4/1
f 17/1/1 19/2/1 20/3/1 18/4/1
f 19/1/1 21/2/1 22/3/1 20/4/1
f 21/1/1 23/2/1 24/3/1 22/4/1
f 23/1/1 25/2/1 26/3/1 24/4/1
f 25/1/1 27/2/1 28/3/1 26/4/1
f 27/1/1 29/2/1 30/3/1 28/4/1
f 29/1/1 31/2/1 32/3/1 30/4/1
f 31/1/1 33/2/1 34/3/1 32/4/1
f 33/1/1 35/2/1 36/3/1 34/4/1
f 35/1/1 37/2/1 38/3/1 36/4/1
f 37/1/1 39/2/1 40/3/1 38/4/1
f 39/1/1 41/2/1 42/3/1 40/4/1
f 41/1/1 43/2/1 44/3/1 42/4/1
f 43/1/1 45/2/1 46/3/1 44/4/1
f 45/1/1 47/2/1 48/3/1 46/4/1
f 47/1/1 49/2/1 50/3/1 48/4/1
f 49/1/1 51/2/1 52/3/1 50/4/1
f 51/1/1 53/2/1 54/3/1 52/4/1
f 55/1/1 56/2/1 57/3/1 58/4/1
f 56/1/1 59/2/1 60/3/1 57/4/1
f 59/1/1 61/2/1 62/3/1 60/4/1
f 61/1/1 63/2/1 64/3/1 62/4/1
f 63/1/1 65/2/1 66/3/1 64/4/1
f 65/1/1 67/2/1 68/3/1 66/4/1
f 67/1/1 69/2/1 70/3/1 68/4/1
f 69/1/1 71/2/1 72/3/1 70/4/1
f 71/1/1 73/2/1 74/3/1 72/4/1
f 73/1/1 75/2/1 76/3/1 74/4/1
f 75/1/1 77/2/1 78/3/1 76/4/1
f 77/1/1 79/2/1 80/3/1 78/4/1
f 79/1/1 81/2/1 82/3/1 80/4/1
f 81/1/1 83/2/1 84/3/1 82/4/1
f 83/1/1 85/2/1 86/3/1 84/4/1
f 85/1/1 87/2/1 88/3/1 86/4/1
f 87/1/1 89/2/1 90/3/1 88/4/1
f 89/1/1 91/2/1 92/3/1 90/4/1
f 91/1/1 93/2/1 94/3/1 92/4/1
f 93/1/1 95/2/1 96/3/1 94/4/1
f 95/1/1 97/2/1 98/3/1 96/4/1
f 97/1/1 99/2/1 100/3/1 98/4/1
f 99/1/1 101/2/1 102/3/1 100/4/1
f 101/1/1 103/2/1 104/3/1 102/4/1
f 103/1/1 105/2/1 106/3/1 104/4/1
f 105/1/1 107/2/1 108/3/1 106/4/1

g mesh_0002
f 109/5/1 110/6/1 111/3/1 112/4/1
f 110/5/1 113/6/1 114/3/1 111/4/1
f 113/5/1 115/6/1 116/3/1 114/4/1
f 115/5/1 117/6/1 118/3/1 116/4/1
f 117/5/1 119/6/1 120/3/1 118/4/1
f 119/5/1 121/6/1 122/3/1 120/4/1
f 121/5/1 123/6/1 124/3/1 122/4/1
f 123/5/1 125/6/1 126/3/1 124/4/1
f 125/5/1 127/6/1 128/3/1 126/4/1
f 127/5/1 129/6/1 130/3/1 128/4/1
f 129/5/1 131/6/1 132/3/1 130/4/1
f 131/5/1 133/6/1 134/3/1 132/4/1
f 133/5/1 135/6/1 136/3/1 134/4/1
f 135/5/1 137/6/1 138/3/1 136/4/1
f 137/5/1 139/6/1 140/3/1 138/4/1
f 139/5/1 141/6/1 142/3/1 140/4/1
f 141/5/1 143/6/1 144/3/1 142/4/1
f 145/5/1 146/6/1 147/3/1 148/4/1
f 146/5/1 149/6/1 150/3/1 147/4/1
f 149/5/1 151/6/1 152/3/1 150/4/1
f 151/5/1 153/6/1 154/3/1 152/4/1
f 153/5/1 155/6/1 156/3/1 154/4/1
f 155/5/1 157/6/1 158/3/1 156/4/1
f 157/5/1 159/6/1 160/3/1 158/4/1
f 159/5/1 161/6/1 162/3/1 160/4/1
f 163/5/1 164/6/1 165/3/1 166/4/1
f 164/5/1 167/6/1 168/3/1 165/4/1
f 167/5/1 169/6/1 170/3/1 168/4/1
f 169/5/1 171/6/1 172/3/1 170/4/1
f 171/5/1 173/6/1 174/3/1 172/4/1
f 173/5/1 175/6/1 176/3/1 174/4/1
f 175/5/1 177/6/1 178/3/1 176/4/1
f 177/5/1 179/6/1 180/3/1 178/4/1
f 181/5/1 182/6/1 183/3/1 184/4/1
f 182/5/1 185/6/1 186/3/1 183/4/1
f 185/5/1 187/6/1 188/3/1 186/4/1
f 187/5/1 189/6/1 190/3/1 188/4/1
f 191/5/1 192/6/1 193/3/1 194/4/1
f 192/5/1 195/6/1 196/3/1 193/4/1
f 195/5/1 197/6/1 198/3/1 196/4/1
f 197/5/1 199/6/1 200/3/1 198/4/1
f 201/5/1 202/6/1 203/3/1 204/4/1
f 202/5/1 205/6/1 206/3/1 203/4/1
f 205/5/1 207/6/1 208/3/1 206/4/1
f 207/5/1 209/6/1 210/3/1 208/4/1
f 209/5/1 211/6/1 212/3/1 210/4/1
f 211/5/1 213/6/1 214/3/1 212/4/1
f 213/5/1 215/6/1 216/3/1 214/4/1
f 215/5/1 217/6/1 218/3/1 216/4/1
f 217/5/1 219/6/1 220/3/1 218/4/1
f 219/5/1 221/6/1 222/3/1 220/4/1
f 221/5/1 223/6/1 224/3/1 222/4/1
f 223/5/1 225/6/1 226/3/1 224/4/1
f 225/5/1 227/6/1 228/3/1 226/4/1
f 227/5/1 229/6/1 230/3/1 228/4/1
f 229/5/1 231/6/1 232/3/1 230/4/1
f 231/5/1 233/6/1 234/3/1 232/4/1
f 233/5/1 235/6/1 236/3/1 234/4/1
f 235/5/1 237/6/1 238/3/1 236/4/1
f 237/5/1 239/6/1 240/3/1 238/4/1
f 239/5/1 241/6/1 242/3/1 240/4/1
f 241/5/1 243/6/1 244/3/1 242/4/1
f 243/5/1 245/6/1 246/3/1 244/4/1
f 245/5/1 247/6/1 248/3/1 246/4/1
f 247/5/1 249/6/1 250/3/1 248/4/1
f 249/5/1 251/6/1 252/3/1 250/4/1
f 251/5/1 253/6/1 254/3/1 252/4/1
f 255/5/1 256/6/1 257/3/1 258/4/1
f 256/5/1 259/6/1 260/3/1 257/4/1
f 261/5/1 262/6/1 263/3/1 264/4/1
f 262/5/1 265/6/1 266/3/1 263/4/1
f 265/5/1 267/6/1 268/3/1 266/4/1
f 267/5/1 269/6/1 270/3/1 268/4/1
f 269/5/1 271/6/1 272/3/1 270/4/1
f 271/5/1 273/6/1 274/3/1 272/4/1
f 273/5/1 275/6/1 276/3/1 274/4/1
f 275/5/1 277/6/1 278/3/1 276/4/1
f 277/5/1 279/6/1 280/3/1 278/4/1
f 279/5/1 281/6/1 282/3/1 280/4/1
f 281/5/1 283/6/1 284/3/1 282/4/1
f 283/5/1 285/6/1 286/3/1 284/4/1
f 285/5/1 287/6/1 288/3/1 286/4/1
f 287/5/1 289/6/1 290/3/1 288/4/1
f 289/5/1 291/6/1 292/3/1 290/4/1
f 291/5/1 293/6/1 294/3/1 292/4/1
f 293/5/1 295/6/1 296/3/1 294/4/1
f 295/5/1 297/6/1 298/3/1 296/4/1
f 299/5/1 300/6/1 301/3/1 302/4/1
f 300/5/1 303/6/1 304/3/1 301/4/1
f 303/5/1 305/6/1 306/3/1 304/4/1
f 305/5/1 307/6/1 308/3/1 306/4/1
f 309/5/1 310/6/1 311/3/1 312/4/1
f 310/5/1 313/6/1 314/3/1 311/4/1
f 313/5/1 315/6/1 316/3/1 314/4/1
f 315/5/1 317/6/1 318/3/1 316/4/1
f 317/5/1 319/6/1 320/3/1 318/4/1
f 319/5/1 321/6/1 322/3/1 320/4/1
f 321/5/1 323/6/1 324/3/1 322/4/1
f 323/5/1 325/6/1 326/3/1 324/4/1
f 327/5/1 328/6/1 329/3/1 330/4/1
f 328/5/1 331/6/1 332/3/1 329/4/1
f 331/5/1 333/6/1 334/3/1 332/4/1
f 333/5/1 335/6/1 336/3/1 334/4/1
f 335/5/1 337/6/1 338/3/1 336/4/1
f 337/5/1 339/6/1 340/3/1 338/4/1
f 339/5/1 341/6/1 342/3/1 340/4/1
f 341/5/1 343/6/1 344/3/1 342/4/1
f 345/5/1 346/6/1 347/3/1 348/4/1
f 346/5/1 349/6/1 350/3/1 347/4/1
f 349/5/1 351/6/1 352/3/1 350/4/1
f 351/5/1 353/6/1 354/3/1 352/4/1
f 355/5/1 356/6/1 357/3/1 358/4/1
f 356/5/1 359/6/1 360/3/1 357/4/1
f 359/5/1 361/6/1 362/3/1 360/4/1
f 361/5/1 363/6/1 364/3/1 362/4/1
f 365/5/1 366/6/1 367/3/1 368/4/1
f 366/5/1 369/6/1 370/3/1 367/4/1
f 369/5/1 371/6/1 372/3/1 370/4/1
f 371/5/1 373/6/1 374/3/1 372/4/1
f 375/5/1 376/6/1 377/3/1 378/4/1
f 376/5/1 379/6/1 380/3/1 377/4/1
f 379/5/1 381/6/1 382/3/1 380/4/1
f 381/5/1 383/6/1 384/3/1 382/4/1
f 385/5/1 386/6/1 387/3/1 388/4/1
f 386/5/1 389/6/1 390/3/1 387/4/1
f 389/5/1 391/6/1 392/3/1 390/4/1
f 391/5/1 393/6/1 394/3/1 392/4/1

g mesh_0003
f 395/1/1 396/7/1 397/8/1 398/4/1
f 399/1/1 400/7/1 396/8/1 395/4/1
f 401/1/1 402/7/1 403/8/1 404/4/1
f 405/1/1 406/7/1 402/8/1 401/4/1
f 407/1/1 408/7/1 409/8/1 410/4/1
f 411/1/1 412/7/1 408/8/1 407/4/1
f 413/1/1 414/7/1 415/8/1 416/4/1
f 417/1/1 418/7/1 414/8/1 413/4/1
f 419/1/1 420/7/1 421/8/1 422/4/1
f 423/1/1 424/7/1 420/8/1 419/4/1
f 298/1/1 425/7/1 426/8/1 427/4/1
f 428/1/1 429/7/1 425/8/1 298/4/1
f 430/1/1 431/7/1 432/8/1 261/4/1
f 433/1/1 434/7/1 429/8/1 428/4/1
f 435/1/1 436/7/1 431/8/1 430/4/1
f 437/1/1 438/7/1 434/8/1 433/4/1
f 439/1/1 440/7/1 436/8/1 435/4/1
f 441/1/1 442/7/1 438/8/1 437/4/1
f 443/1/1 307/7/1 440/8/1 439/4/1
f 444/1/1 445/7/1 446/8/1 447/4/1
f 448/1/1 449/7/1 445/8/1 444/4/1
f 450/1/1 451/7/1 452/8/1 453/4/1
f 454/1/1 455/7/1 451/8/1 450/4/1
f 456/1/1 457/7/1 458/8/1 459/4/1
f 460/1/1 461/7/1 457/8/1 456/4/1
f 462/1/1 463/7/1 464/8/1 465/4/1
f 466/1/1 467/7/1 463/8/1 462/4/1
f 468/1/1 469/7/1 470/8/1 471/4/1
f 472/1/1 473/7/1 469/8/1 468/4/1

