# Wavefront OBJ file automatically generated by Tiled2Unity

# Vertices (Count = 104)
v -20 -96 0
v -21.6 -96 0
v -21.6 -95.2 0
v -20 -95.2 0
v -23.2 -96 0
v -23.2 -95.2 0
v -24.8 -96 0
v -24.8 -95.2 0
v -26.4 -96 0
v -26.4 -95.2 0
v -34.4 -96 0
v -36 -96 0
v -36 -95.2 0
v -34.4 -95.2 0
v -37.6 -96 0
v -37.6 -95.2 0
v -39.2 -96 0
v -39.2 -95.2 0
v -40.8 -96 0
v -40.8 -95.2 0
v -32.4 -112.4 0
v -34 -112.4 0
v -34 -111.6 0
v -32.4 -111.6 0
v -35.6 -112.4 0
v -35.6 -111.6 0
v -37.2 -112.4 0
v -37.2 -111.6 0
v -38.8 -112.4 0
v -38.8 -111.6 0
v -6.4 -116 0
v -7.2 -116 0
v -7.2 -114.4 0
v -6.4 -114.4 0
v -12.4 -119.2 0
v -13.2 -119.2 0
v -13.2 -117.6 0
v -12.4 -117.6 0
v -3.6 -122.4 0
v -4.4 -122.4 0
v -4.4 -120.8 0
v -3.6 -120.8 0
v -9.6 -126 0
v -10.4 -126 0
v -10.4 -124.4 0
v -9.6 -124.4 0
v -3.6 -129.6 0
v -4.4 -129.6 0
v -4.4 -128 0
v -3.6 -128 0
v -1.6 -134.4 0
v -3.2 -134.4 0
v -3.2 -132.8 0
v -1.6 -132.8 0
v -4.8 -134.4 0
v -4.8 -132.8 0
v -6.4 -134.4 0
v -6.4 -132.8 0
v -8 -134.4 0
v -8 -132.8 0
v -9.6 -134.4 0
v -9.6 -132.8 0
v -11.2 -134.4 0
v -11.2 -132.8 0
v -12.8 -134.4 0
v -12.8 -132.8 0
v -14.4 -134.4 0
v -14.4 -132.8 0
v -16 -134.4 0
v -16 -132.8 0
v -17.6 -134.4 0
v -17.6 -132.8 0
v -19.2 -134.4 0
v -19.2 -132.8 0
v -20.8 -134.4 0
v -20.8 -132.8 0
v -22.4 -134.4 0
v -22.4 -132.8 0
v -24 -134.4 0
v -24 -132.8 0
v -25.6 -134.4 0
v -25.6 -132.8 0
v -27.2 -134.4 0
v -27.2 -132.8 0
v -28.8 -134.4 0
v -28.8 -132.8 0
v -30.4 -134.4 0
v -30.4 -132.8 0
v -32 -134.4 0
v -32 -132.8 0
v -33.6 -134.4 0
v -33.6 -132.8 0
v -35.2 -134.4 0
v -35.2 -132.8 0
v -36.8 -134.4 0
v -36.8 -132.8 0
v -38.4 -134.4 0
v -38.4 -132.8 0
v -40 -134.4 0
v -40 -132.8 0
v -41.6 -134.4 0
v -41.6 -132.8 0
v -43.2 -134.4 0
v -43.2 -132.8 0

# Texture cooridinates (Count = 11)
vt 0.06678874 0.8542888
vt 0.1332113 0.8542888
vt 0.1332113 0.8748779
vt 0.06678874 0.8748779
vt 0.06678874 0.8334554
vt 0.09987793 0.8334554
vt 0.09987793 0.8748779
vt 0.0001220703 0.5417887
vt 0.0665446 0.5417887
vt 0.0665446 0.5832113
vt 0.0001220703 0.5832113

# Normal
vn 0 0 -1

# Groups (Count = 1)

g mesh_0001
f 1/1/1 2/2/1 3/3/1 4/4/1
f 2/1/1 5/2/1 6/3/1 3/4/1
f 5/1/1 7/2/1 8/3/1 6/4/1
f 7/1/1 9/2/1 10/3/1 8/4/1
f 11/1/1 12/2/1 13/3/1 14/4/1
f 12/1/1 15/2/1 16/3/1 13/4/1
f 15/1/1 17/2/1 18/3/1 16/4/1
f 17/1/1 19/2/1 20/3/1 18/4/1
f 21/1/1 22/2/1 23/3/1 24/4/1
f 22/1/1 25/2/1 26/3/1 23/4/1
f 25/1/1 27/2/1 28/3/1 26/4/1
f 27/1/1 29/2/1 30/3/1 28/4/1

g mesh_0002
f 31/5/1 32/6/1 33/7/1 34/4/1
f 35/5/1 36/6/1 37/7/1 38/4/1
f 39/5/1 40/6/1 41/7/1 42/4/1
f 43/5/1 44/6/1 45/7/1 46/4/1
f 47/5/1 48/6/1 49/7/1 50/4/1

g mesh_0003
f 51/8/1 52/9/1 53/10/1 54/11/1
f 52/8/1 55/9/1 56/10/1 53/11/1
f 55/8/1 57/9/1 58/10/1 56/11/1
f 57/8/1 59/9/1 60/10/1 58/11/1
f 59/8/1 61/9/1 62/10/1 60/11/1
f 61/8/1 63/9/1 64/10/1 62/11/1
f 63/8/1 65/9/1 66/10/1 64/11/1
f 65/8/1 67/9/1 68/10/1 66/11/1
f 67/8/1 69/9/1 70/10/1 68/11/1
f 69/8/1 71/9/1 72/10/1 70/11/1
f 71/8/1 73/9/1 74/10/1 72/11/1
f 73/8/1 75/9/1 76/10/1 74/11/1
f 75/8/1 77/9/1 78/10/1 76/11/1
f 77/8/1 79/9/1 80/10/1 78/11/1
f 79/8/1 81/9/1 82/10/1 80/11/1
f 81/8/1 83/9/1 84/10/1 82/11/1
f 83/8/1 85/9/1 86/10/1 84/11/1
f 85/8/1 87/9/1 88/10/1 86/11/1
f 87/8/1 89/9/1 90/10/1 88/11/1
f 89/8/1 91/9/1 92/10/1 90/11/1
f 91/8/1 93/9/1 94/10/1 92/11/1
f 93/8/1 95/9/1 96/10/1 94/11/1
f 95/8/1 97/9/1 98/10/1 96/11/1
f 97/8/1 99/9/1 100/10/1 98/11/1
f 99/8/1 101/9/1 102/10/1 100/11/1
f 101/8/1 103/9/1 104/10/1 102/11/1

