# Wavefront OBJ file automatically generated by Tiled2Unity

# Vertices (Count = 445)
v -1.6 -1.6 0
v -3.2 -1.6 0
v -3.2 0 0
v -1.6 0 0
v -4.8 -1.6 0
v -4.8 0 0
v -6.4 -1.6 0
v -6.4 0 0
v -8 -1.6 0
v -8 0 0
v -9.6 -1.6 0
v -9.6 0 0
v -11.2 -1.6 0
v -11.2 0 0
v -12.8 -1.6 0
v -12.8 0 0
v -14.4 -1.6 0
v -14.4 0 0
v -16 -1.6 0
v -16 0 0
v -17.6 -1.6 0
v -17.6 0 0
v -19.2 -1.6 0
v -19.2 0 0
v -20.8 -1.6 0
v -20.8 0 0
v -22.4 -1.6 0
v -22.4 0 0
v -24 -1.6 0
v -24 0 0
v -25.6 -1.6 0
v -25.6 0 0
v -27.2 -1.6 0
v -27.2 0 0
v -28.8 -1.6 0
v -28.8 0 0
v -30.4 -1.6 0
v -30.4 0 0
v -32 -1.6 0
v -32 0 0
v -33.6 -1.6 0
v -33.6 0 0
v -35.2 -1.6 0
v -35.2 0 0
v -36.8 -1.6 0
v -36.8 0 0
v -38.4 -1.6 0
v -38.4 0 0
v -40 -1.6 0
v -40 0 0
v -41.6 -1.6 0
v -41.6 0 0
v -43.2 -1.6 0
v -43.2 0 0
v -36.8 -104 0
v -38.4 -104 0
v -38.4 -102.4 0
v -36.8 -102.4 0
v -36.8 -105.6 0
v -38.4 -105.6 0
v -36.8 -107.2 0
v -38.4 -107.2 0
v -36.8 -108.8 0
v -38.4 -108.8 0
v -1.6 -134.4 0
v -3.2 -134.4 0
v -3.2 -132.8 0
v -1.6 -132.8 0
v -4.8 -134.4 0
v -4.8 -132.8 0
v -6.4 -134.4 0
v -6.4 -132.8 0
v -8 -134.4 0
v -8 -132.8 0
v -9.6 -134.4 0
v -9.6 -132.8 0
v -11.2 -134.4 0
v -11.2 -132.8 0
v -12.8 -134.4 0
v -12.8 -132.8 0
v -14.4 -134.4 0
v -14.4 -132.8 0
v -16 -134.4 0
v -16 -132.8 0
v -17.6 -134.4 0
v -17.6 -132.8 0
v -19.2 -134.4 0
v -19.2 -132.8 0
v -20.8 -134.4 0
v -20.8 -132.8 0
v -22.4 -134.4 0
v -22.4 -132.8 0
v -24 -134.4 0
v -24 -132.8 0
v -25.6 -134.4 0
v -25.6 -132.8 0
v -27.2 -134.4 0
v -27.2 -132.8 0
v -28.8 -134.4 0
v -28.8 -132.8 0
v -30.4 -134.4 0
v -30.4 -132.8 0
v -32 -134.4 0
v -32 -132.8 0
v -33.6 -134.4 0
v -33.6 -132.8 0
v -35.2 -134.4 0
v -35.2 -132.8 0
v -36.8 -134.4 0
v -36.8 -132.8 0
v -38.4 -134.4 0
v -38.4 -132.8 0
v -40 -134.4 0
v -40 -132.8 0
v -41.6 -134.4 0
v -41.6 -132.8 0
v -43.2 -134.4 0
v -43.2 -132.8 0
v -11.2 -9.6 0
v -12.8 -9.6 0
v -12.8 -8.8 0
v -11.2 -8.8 0
v -14.4 -9.6 0
v -14.4 -8.8 0
v -16 -9.6 0
v -16 -8.8 0
v -17.6 -9.6 0
v -17.6 -8.8 0
v -19.2 -9.6 0
v -19.2 -8.8 0
v -20.8 -9.6 0
v -20.8 -8.8 0
v -22.4 -9.6 0
v -22.4 -8.8 0
v -24 -9.6 0
v -24 -8.8 0
v -25.6 -9.6 0
v -25.6 -8.8 0
v -27.2 -9.6 0
v -27.2 -8.8 0
v -28.8 -9.6 0
v -28.8 -8.8 0
v -30.4 -9.6 0
v -30.4 -8.8 0
v -32 -9.6 0
v -32 -8.8 0
v -33.6 -9.6 0
v -33.6 -8.8 0
v -27.2 -75.2 0
v -28.8 -75.2 0
v -28.8 -74.4 0
v -27.2 -74.4 0
v -30.4 -75.2 0
v -30.4 -74.4 0
v -32 -75.2 0
v -32 -74.4 0
v -33.6 -75.2 0
v -33.6 -74.4 0
v -35.2 -75.2 0
v -35.2 -74.4 0
v -36.8 -75.2 0
v -36.8 -74.4 0
v -38.4 -75.2 0
v -38.4 -74.4 0
v -40 -75.2 0
v -40 -74.4 0
v -41.6 -75.2 0
v -41.6 -74.4 0
v -43.2 -75.2 0
v -43.2 -74.4 0
v -1.6 -83.6 0
v -3.2 -83.6 0
v -3.2 -82.8 0
v -1.6 -82.8 0
v -4.8 -83.6 0
v -4.8 -82.8 0
v -6.4 -83.6 0
v -6.4 -82.8 0
v -8 -83.6 0
v -8 -82.8 0
v -9.6 -83.6 0
v -9.6 -82.8 0
v -11.2 -83.6 0
v -11.2 -82.8 0
v -12.8 -83.6 0
v -12.8 -82.8 0
v -14.4 -83.6 0
v -14.4 -82.8 0
v -16 -83.6 0
v -16 -82.8 0
v -17.6 -83.6 0
v -17.6 -82.8 0
v -27.2 -92.8 0
v -28.8 -92.8 0
v -28.8 -92 0
v -27.2 -92 0
v -30.4 -92.8 0
v -30.4 -92 0
v -32 -92.8 0
v -32 -92 0
v -33.6 -92.8 0
v -33.6 -92 0
v -35.2 -92.8 0
v -35.2 -92 0
v -36.8 -92.8 0
v -36.8 -92 0
v -38.4 -92.8 0
v -38.4 -92 0
v -40 -92.8 0
v -40 -92 0
v -41.6 -92.8 0
v -41.6 -92 0
v -43.2 -92.8 0
v -43.2 -92 0
v -20.8 -95.2 0
v -22.4 -95.2 0
v -22.4 -94.4 0
v -20.8 -94.4 0
v -24 -95.2 0
v -24 -94.4 0
v -14.4 -97.6 0
v -16 -97.6 0
v -16 -96.8 0
v -14.4 -96.8 0
v -17.6 -97.6 0
v -17.6 -96.8 0
v -8 -100 0
v -9.6 -100 0
v -9.6 -99.2 0
v -8 -99.2 0
v -11.2 -100 0
v -11.2 -99.2 0
v -1.6 -103.2 0
v -3.2 -103.2 0
v -3.2 -102.4 0
v -1.6 -102.4 0
v -4.8 -103.2 0
v -4.8 -102.4 0
v -6.4 -103.2 0
v -6.4 -102.4 0
v -8 -103.2 0
v -8 -102.4 0
v -9.6 -103.2 0
v -9.6 -102.4 0
v -11.2 -103.2 0
v -11.2 -102.4 0
v -12.8 -103.2 0
v -12.8 -102.4 0
v -14.4 -103.2 0
v -14.4 -102.4 0
v -16 -103.2 0
v -16 -102.4 0
v -17.6 -103.2 0
v -17.6 -102.4 0
v -19.2 -103.2 0
v -19.2 -102.4 0
v -20.8 -103.2 0
v -20.8 -102.4 0
v -22.4 -103.2 0
v -22.4 -102.4 0
v -24 -103.2 0
v -24 -102.4 0
v -25.6 -103.2 0
v -25.6 -102.4 0
v -27.2 -103.2 0
v -27.2 -102.4 0
v -28.8 -103.2 0
v -28.8 -102.4 0
v -30.4 -103.2 0
v -30.4 -102.4 0
v -32 -103.2 0
v -32 -102.4 0
v -33.6 -103.2 0
v -33.6 -102.4 0
v -35.2 -103.2 0
v -35.2 -102.4 0
v -36.8 -103.2 0
v -8 -112 0
v -9.6 -112 0
v -9.6 -111.2 0
v -8 -111.2 0
v -11.2 -112 0
v -11.2 -111.2 0
v -12.8 -112 0
v -12.8 -111.2 0
v -14.4 -112 0
v -14.4 -111.2 0
v -16 -112 0
v -16 -111.2 0
v -17.6 -112 0
v -17.6 -111.2 0
v -19.2 -112 0
v -19.2 -111.2 0
v -20.8 -112 0
v -20.8 -111.2 0
v -22.4 -112 0
v -22.4 -111.2 0
v -24 -112 0
v -24 -111.2 0
v -25.6 -112 0
v -25.6 -111.2 0
v -27.2 -112 0
v -27.2 -111.2 0
v -28.8 -112 0
v -28.8 -111.2 0
v -30.4 -112 0
v -30.4 -111.2 0
v -32 -112 0
v -32 -111.2 0
v -33.6 -112 0
v -33.6 -111.2 0
v -35.2 -112 0
v -35.2 -111.2 0
v -36.8 -112 0
v -36.8 -111.2 0
v -38.4 -112 0
v -38.4 -111.2 0
v -40 -112 0
v -40 -111.2 0
v -41.6 -112 0
v -41.6 -111.2 0
v -43.2 -112 0
v -43.2 -111.2 0
v -1.6 -116 0
v -3.2 -116 0
v -3.2 -115.2 0
v -1.6 -115.2 0
v -4.8 -116 0
v -4.8 -115.2 0
v -6.4 -116 0
v -6.4 -115.2 0
v -8 -116 0
v -8 -115.2 0
v -9.6 -116 0
v -9.6 -115.2 0
v -11.2 -116 0
v -11.2 -115.2 0
v -12.8 -116 0
v -12.8 -115.2 0
v -12.8 -116.8 0
v -14.4 -116.8 0
v -14.4 -116 0
v -16 -116.8 0
v -16 -116 0
v -17.6 -116.8 0
v -17.6 -116 0
v -19.2 -116.8 0
v -19.2 -116 0
v -19.2 -117.6 0
v -20.8 -117.6 0
v -20.8 -116.8 0
v -22.4 -117.6 0
v -22.4 -116.8 0
v -24 -117.6 0
v -24 -116.8 0
v -25.6 -117.6 0
v -25.6 -116.8 0
v -27.2 -117.6 0
v -27.2 -116.8 0
v -28.8 -117.6 0
v -28.8 -116.8 0
v -30.4 -117.6 0
v -30.4 -116.8 0
v -32 -117.6 0
v -32 -116.8 0
v -33.6 -117.6 0
v -33.6 -116.8 0
v -35.2 -117.6 0
v -35.2 -116.8 0
v -36.8 -117.6 0
v -36.8 -116.8 0
v -38.4 -117.6 0
v -38.4 -116.8 0
v -6.4 -123.2 0
v -8 -123.2 0
v -8 -122.4 0
v -6.4 -122.4 0
v -9.6 -123.2 0
v -9.6 -122.4 0
v -11.2 -123.2 0
v -11.2 -122.4 0
v -12.8 -123.2 0
v -12.8 -122.4 0
v -19.2 -123.2 0
v -20.8 -123.2 0
v -20.8 -122.4 0
v -19.2 -122.4 0
v -22.4 -123.2 0
v -22.4 -122.4 0
v -24 -123.2 0
v -24 -122.4 0
v -25.6 -123.2 0
v -25.6 -122.4 0
v -32 -123.2 0
v -33.6 -123.2 0
v -33.6 -122.4 0
v -32 -122.4 0
v -35.2 -123.2 0
v -35.2 -122.4 0
v -36.8 -123.2 0
v -36.8 -122.4 0
v -38.4 -123.2 0
v -38.4 -122.4 0
v -40 -123.2 0
v -40 -122.4 0
v -41.6 -123.2 0
v -41.6 -122.4 0
v -43.2 -123.2 0
v -43.2 -122.4 0
v -1.6 -128.8 0
v -3.2 -128.8 0
v -3.2 -128 0
v -1.6 -128 0
v -4.8 -128.8 0
v -4.8 -128 0
v -6.4 -128.8 0
v -6.4 -128 0
v -8 -128.8 0
v -8 -128 0
v -9.6 -128.8 0
v -9.6 -128 0
v -11.2 -128.8 0
v -11.2 -128 0
v -12.8 -128.8 0
v -12.8 -128 0
v -19.2 -128.8 0
v -20.8 -128.8 0
v -20.8 -128 0
v -19.2 -128 0
v -22.4 -128.8 0
v -22.4 -128 0
v -24 -128.8 0
v -24 -128 0
v -25.6 -128.8 0
v -25.6 -128 0
v -32 -128.8 0
v -33.6 -128.8 0
v -33.6 -128 0
v -32 -128 0
v -35.2 -128.8 0
v -35.2 -128 0
v -36.8 -128.8 0
v -36.8 -128 0
v -38.4 -128.8 0
v -38.4 -128 0

# Texture cooridinates (Count = 6)
vt 0.06678874 0.8334554
vt 0.1332113 0.8334554
vt 0.1332113 0.8748779
vt 0.06678874 0.8748779
vt 0.06678874 0.8542888
vt 0.1332113 0.8542888

# Normal
vn 0 0 -1

# Groups (Count = 1)

g mesh_0001
f 1/1/1 2/2/1 3/3/1 4/4/1
f 2/1/1 5/2/1 6/3/1 3/4/1
f 5/1/1 7/2/1 8/3/1 6/4/1
f 7/1/1 9/2/1 10/3/1 8/4/1
f 9/1/1 11/2/1 12/3/1 10/4/1
f 11/1/1 13/2/1 14/3/1 12/4/1
f 13/1/1 15/2/1 16/3/1 14/4/1
f 15/1/1 17/2/1 18/3/1 16/4/1
f 17/1/1 19/2/1 20/3/1 18/4/1
f 19/1/1 21/2/1 22/3/1 20/4/1
f 21/1/1 23/2/1 24/3/1 22/4/1
f 23/1/1 25/2/1 26/3/1 24/4/1
f 25/1/1 27/2/1 28/3/1 26/4/1
f 27/1/1 29/2/1 30/3/1 28/4/1
f 29/1/1 31/2/1 32/3/1 30/4/1
f 31/1/1 33/2/1 34/3/1 32/4/1
f 33/1/1 35/2/1 36/3/1 34/4/1
f 35/1/1 37/2/1 38/3/1 36/4/1
f 37/1/1 39/2/1 40/3/1 38/4/1
f 39/1/1 41/2/1 42/3/1 40/4/1
f 41/1/1 43/2/1 44/3/1 42/4/1
f 43/1/1 45/2/1 46/3/1 44/4/1
f 45/1/1 47/2/1 48/3/1 46/4/1
f 47/1/1 49/2/1 50/3/1 48/4/1
f 49/1/1 51/2/1 52/3/1 50/4/1
f 51/1/1 53/2/1 54/3/1 52/4/1
f 55/1/1 56/2/1 57/3/1 58/4/1
f 59/1/1 60/2/1 56/3/1 55/4/1
f 61/1/1 62/2/1 60/3/1 59/4/1
f 63/1/1 64/2/1 62/3/1 61/4/1
f 65/1/1 66/2/1 67/3/1 68/4/1
f 66/1/1 69/2/1 70/3/1 67/4/1
f 69/1/1 71/2/1 72/3/1 70/4/1
f 71/1/1 73/2/1 74/3/1 72/4/1
f 73/1/1 75/2/1 76/3/1 74/4/1
f 75/1/1 77/2/1 78/3/1 76/4/1
f 77/1/1 79/2/1 80/3/1 78/4/1
f 79/1/1 81/2/1 82/3/1 80/4/1
f 81/1/1 83/2/1 84/3/1 82/4/1
f 83/1/1 85/2/1 86/3/1 84/4/1
f 85/1/1 87/2/1 88/3/1 86/4/1
f 87/1/1 89/2/1 90/3/1 88/4/1
f 89/1/1 91/2/1 92/3/1 90/4/1
f 91/1/1 93/2/1 94/3/1 92/4/1
f 93/1/1 95/2/1 96/3/1 94/4/1
f 95/1/1 97/2/1 98/3/1 96/4/1
f 97/1/1 99/2/1 100/3/1 98/4/1
f 99/1/1 101/2/1 102/3/1 100/4/1
f 101/1/1 103/2/1 104/3/1 102/4/1
f 103/1/1 105/2/1 106/3/1 104/4/1
f 105/1/1 107/2/1 108/3/1 106/4/1
f 107/1/1 109/2/1 110/3/1 108/4/1
f 109/1/1 111/2/1 112/3/1 110/4/1
f 111/1/1 113/2/1 114/3/1 112/4/1
f 113/1/1 115/2/1 116/3/1 114/4/1
f 115/1/1 117/2/1 118/3/1 116/4/1

g mesh_0002
f 119/5/1 120/6/1 121/3/1 122/4/1
f 120/5/1 123/6/1 124/3/1 121/4/1
f 123/5/1 125/6/1 126/3/1 124/4/1
f 125/5/1 127/6/1 128/3/1 126/4/1
f 127/5/1 129/6/1 130/3/1 128/4/1
f 129/5/1 131/6/1 132/3/1 130/4/1
f 131/5/1 133/6/1 134/3/1 132/4/1
f 133/5/1 135/6/1 136/3/1 134/4/1
f 135/5/1 137/6/1 138/3/1 136/4/1
f 137/5/1 139/6/1 140/3/1 138/4/1
f 139/5/1 141/6/1 142/3/1 140/4/1
f 141/5/1 143/6/1 144/3/1 142/4/1
f 143/5/1 145/6/1 146/3/1 144/4/1
f 145/5/1 147/6/1 148/3/1 146/4/1
f 149/5/1 150/6/1 151/3/1 152/4/1
f 150/5/1 153/6/1 154/3/1 151/4/1
f 153/5/1 155/6/1 156/3/1 154/4/1
f 155/5/1 157/6/1 158/3/1 156/4/1
f 157/5/1 159/6/1 160/3/1 158/4/1
f 159/5/1 161/6/1 162/3/1 160/4/1
f 161/5/1 163/6/1 164/3/1 162/4/1
f 163/5/1 165/6/1 166/3/1 164/4/1
f 165/5/1 167/6/1 168/3/1 166/4/1
f 167/5/1 169/6/1 170/3/1 168/4/1
f 171/5/1 172/6/1 173/3/1 174/4/1
f 172/5/1 175/6/1 176/3/1 173/4/1
f 175/5/1 177/6/1 178/3/1 176/4/1
f 177/5/1 179/6/1 180/3/1 178/4/1
f 179/5/1 181/6/1 182/3/1 180/4/1
f 181/5/1 183/6/1 184/3/1 182/4/1
f 183/5/1 185/6/1 186/3/1 184/4/1
f 185/5/1 187/6/1 188/3/1 186/4/1
f 187/5/1 189/6/1 190/3/1 188/4/1
f 189/5/1 191/6/1 192/3/1 190/4/1
f 193/5/1 194/6/1 195/3/1 196/4/1
f 194/5/1 197/6/1 198/3/1 195/4/1
f 197/5/1 199/6/1 200/3/1 198/4/1
f 199/5/1 201/6/1 202/3/1 200/4/1
f 201/5/1 203/6/1 204/3/1 202/4/1
f 203/5/1 205/6/1 206/3/1 204/4/1
f 205/5/1 207/6/1 208/3/1 206/4/1
f 207/5/1 209/6/1 210/3/1 208/4/1
f 209/5/1 211/6/1 212/3/1 210/4/1
f 211/5/1 213/6/1 214/3/1 212/4/1
f 215/5/1 216/6/1 217/3/1 218/4/1
f 216/5/1 219/6/1 220/3/1 217/4/1
f 221/5/1 222/6/1 223/3/1 224/4/1
f 222/5/1 225/6/1 226/3/1 223/4/1
f 227/5/1 228/6/1 229/3/1 230/4/1
f 228/5/1 231/6/1 232/3/1 229/4/1
f 233/5/1 234/6/1 235/3/1 236/4/1
f 234/5/1 237/6/1 238/3/1 235/4/1
f 237/5/1 239/6/1 240/3/1 238/4/1
f 239/5/1 241/6/1 242/3/1 240/4/1
f 241/5/1 243/6/1 244/3/1 242/4/1
f 243/5/1 245/6/1 246/3/1 244/4/1
f 245/5/1 247/6/1 248/3/1 246/4/1
f 247/5/1 249/6/1 250/3/1 248/4/1
f 249/5/1 251/6/1 252/3/1 250/4/1
f 251/5/1 253/6/1 254/3/1 252/4/1
f 253/5/1 255/6/1 256/3/1 254/4/1
f 255/5/1 257/6/1 258/3/1 256/4/1
f 257/5/1 259/6/1 260/3/1 258/4/1
f 259/5/1 261/6/1 262/3/1 260/4/1
f 261/5/1 263/6/1 264/3/1 262/4/1
f 263/5/1 265/6/1 266/3/1 264/4/1
f 265/5/1 267/6/1 268/3/1 266/4/1
f 267/5/1 269/6/1 270/3/1 268/4/1
f 269/5/1 271/6/1 272/3/1 270/4/1
f 271/5/1 273/6/1 274/3/1 272/4/1
f 273/5/1 275/6/1 276/3/1 274/4/1
f 275/5/1 277/6/1 58/3/1 276/4/1
f 278/5/1 279/6/1 280/3/1 281/4/1
f 279/5/1 282/6/1 283/3/1 280/4/1
f 282/5/1 284/6/1 285/3/1 283/4/1
f 284/5/1 286/6/1 287/3/1 285/4/1
f 286/5/1 288/6/1 289/3/1 287/4/1
f 288/5/1 290/6/1 291/3/1 289/4/1
f 290/5/1 292/6/1 293/3/1 291/4/1
f 292/5/1 294/6/1 295/3/1 293/4/1
f 294/5/1 296/6/1 297/3/1 295/4/1
f 296/5/1 298/6/1 299/3/1 297/4/1
f 298/5/1 300/6/1 301/3/1 299/4/1
f 300/5/1 302/6/1 303/3/1 301/4/1
f 302/5/1 304/6/1 305/3/1 303/4/1
f 304/5/1 306/6/1 307/3/1 305/4/1
f 306/5/1 308/6/1 309/3/1 307/4/1
f 308/5/1 310/6/1 311/3/1 309/4/1
f 310/5/1 312/6/1 313/3/1 311/4/1
f 312/5/1 314/6/1 315/3/1 313/4/1
f 314/5/1 316/6/1 317/3/1 315/4/1
f 316/5/1 318/6/1 319/3/1 317/4/1
f 318/5/1 320/6/1 321/3/1 319/4/1
f 320/5/1 322/6/1 323/3/1 321/4/1
f 324/5/1 325/6/1 326/3/1 327/4/1
f 325/5/1 328/6/1 329/3/1 326/4/1
f 328/5/1 330/6/1 331/3/1 329/4/1
f 330/5/1 332/6/1 333/3/1 331/4/1
f 332/5/1 334/6/1 335/3/1 333/4/1
f 334/5/1 336/6/1 337/3/1 335/4/1
f 336/5/1 338/6/1 339/3/1 337/4/1
f 340/5/1 341/6/1 342/3/1 338/4/1
f 341/5/1 343/6/1 344/3/1 342/4/1
f 343/5/1 345/6/1 346/3/1 344/4/1
f 345/5/1 347/6/1 348/3/1 346/4/1
f 349/5/1 350/6/1 351/3/1 347/4/1
f 350/5/1 352/6/1 353/3/1 351/4/1
f 352/5/1 354/6/1 355/3/1 353/4/1
f 354/5/1 356/6/1 357/3/1 355/4/1
f 356/5/1 358/6/1 359/3/1 357/4/1
f 358/5/1 360/6/1 361/3/1 359/4/1
f 360/5/1 362/6/1 363/3/1 361/4/1
f 362/5/1 364/6/1 365/3/1 363/4/1
f 364/5/1 366/6/1 367/3/1 365/4/1
f 366/5/1 368/6/1 369/3/1 367/4/1
f 368/5/1 370/6/1 371/3/1 369/4/1
f 370/5/1 372/6/1 373/3/1 371/4/1
f 374/5/1 375/6/1 376/3/1 377/4/1
f 375/5/1 378/6/1 379/3/1 376/4/1
f 378/5/1 380/6/1 381/3/1 379/4/1
f 380/5/1 382/6/1 383/3/1 381/4/1
f 384/5/1 385/6/1 386/3/1 387/4/1
f 385/5/1 388/6/1 389/3/1 386/4/1
f 388/5/1 390/6/1 391/3/1 389/4/1
f 390/5/1 392/6/1 393/3/1 391/4/1
f 394/5/1 395/6/1 396/3/1 397/4/1
f 395/5/1 398/6/1 399/3/1 396/4/1
f 398/5/1 400/6/1 401/3/1 399/4/1
f 400/5/1 402/6/1 403/3/1 401/4/1
f 402/5/1 404/6/1 405/3/1 403/4/1
f 404/5/1 406/6/1 407/3/1 405/4/1
f 406/5/1 408/6/1 409/3/1 407/4/1
f 410/5/1 411/6/1 412/3/1 413/4/1
f 411/5/1 414/6/1 415/3/1 412/4/1
f 414/5/1 416/6/1 417/3/1 415/4/1
f 416/5/1 418/6/1 419/3/1 417/4/1
f 418/5/1 420/6/1 421/3/1 419/4/1
f 420/5/1 422/6/1 423/3/1 421/4/1
f 422/5/1 424/6/1 425/3/1 423/4/1
f 426/5/1 427/6/1 428/3/1 429/4/1
f 427/5/1 430/6/1 431/3/1 428/4/1
f 430/5/1 432/6/1 433/3/1 431/4/1
f 432/5/1 434/6/1 435/3/1 433/4/1
f 436/5/1 437/6/1 438/3/1 439/4/1
f 437/5/1 440/6/1 441/3/1 438/4/1
f 440/5/1 442/6/1 443/3/1 441/4/1
f 442/5/1 444/6/1 445/3/1 443/4/1

