# Wavefront OBJ file automatically generated by Tiled2Unity

# Vertices (Count = 357)
v -1.6 -1.6 0
v -3.2 -1.6 0
v -3.2 0 0
v -1.6 0 0
v -4.8 -1.6 0
v -4.8 0 0
v -6.4 -1.6 0
v -6.4 0 0
v -8 -1.6 0
v -8 0 0
v -9.6 -1.6 0
v -9.6 0 0
v -11.2 -1.6 0
v -11.2 0 0
v -12.8 -1.6 0
v -12.8 0 0
v -14.4 -1.6 0
v -14.4 0 0
v -16 -1.6 0
v -16 0 0
v -17.6 -1.6 0
v -17.6 0 0
v -19.2 -1.6 0
v -19.2 0 0
v -20.8 -1.6 0
v -20.8 0 0
v -22.4 -1.6 0
v -22.4 0 0
v -24 -1.6 0
v -24 0 0
v -25.6 -1.6 0
v -25.6 0 0
v -27.2 -1.6 0
v -27.2 0 0
v -28.8 -1.6 0
v -28.8 0 0
v -30.4 -1.6 0
v -30.4 0 0
v -32 -1.6 0
v -32 0 0
v -33.6 -1.6 0
v -33.6 0 0
v -35.2 -1.6 0
v -35.2 0 0
v -36.8 -1.6 0
v -36.8 0 0
v -38.4 -1.6 0
v -38.4 0 0
v -40 -1.6 0
v -40 0 0
v -41.6 -1.6 0
v -41.6 0 0
v -43.2 -1.6 0
v -43.2 0 0
v -1.6 -134.4 0
v -3.2 -134.4 0
v -3.2 -132.8 0
v -1.6 -132.8 0
v -4.8 -134.4 0
v -4.8 -132.8 0
v -6.4 -134.4 0
v -6.4 -132.8 0
v -8 -134.4 0
v -8 -132.8 0
v -9.6 -134.4 0
v -9.6 -132.8 0
v -11.2 -134.4 0
v -11.2 -132.8 0
v -12.8 -134.4 0
v -12.8 -132.8 0
v -14.4 -134.4 0
v -14.4 -132.8 0
v -16 -134.4 0
v -16 -132.8 0
v -17.6 -134.4 0
v -17.6 -132.8 0
v -19.2 -134.4 0
v -19.2 -132.8 0
v -20.8 -134.4 0
v -20.8 -132.8 0
v -22.4 -134.4 0
v -22.4 -132.8 0
v -24 -134.4 0
v -24 -132.8 0
v -25.6 -134.4 0
v -25.6 -132.8 0
v -27.2 -134.4 0
v -27.2 -132.8 0
v -28.8 -134.4 0
v -28.8 -132.8 0
v -30.4 -134.4 0
v -30.4 -132.8 0
v -32 -134.4 0
v -32 -132.8 0
v -33.6 -134.4 0
v -33.6 -132.8 0
v -35.2 -134.4 0
v -35.2 -132.8 0
v -36.8 -134.4 0
v -36.8 -132.8 0
v -38.4 -134.4 0
v -38.4 -132.8 0
v -40 -134.4 0
v -40 -132.8 0
v -41.6 -134.4 0
v -41.6 -132.8 0
v -43.2 -134.4 0
v -43.2 -132.8 0
v -24.4 -75.6 0
v -26 -75.6 0
v -26 -74.8 0
v -24.4 -74.8 0
v -25.6 -75.6 0
v -27.2 -75.6 0
v -27.2 -74.8 0
v -25.6 -74.8 0
v -28.8 -75.6 0
v -28.8 -74.8 0
v -30.4 -75.6 0
v -30.4 -74.8 0
v -32 -75.6 0
v -32 -74.8 0
v -33.6 -75.6 0
v -33.6 -74.8 0
v -35.2 -75.6 0
v -35.2 -74.8 0
v -36.8 -75.6 0
v -36.8 -74.8 0
v -38.4 -75.6 0
v -38.4 -74.8 0
v -40 -75.6 0
v -40 -74.8 0
v -41.6 -75.6 0
v -41.6 -74.8 0
v -43.2 -75.6 0
v -43.2 -74.8 0
v -2 -82.8 0
v -3.6 -82.8 0
v -3.6 -82 0
v -2 -82 0
v -5.2 -82.8 0
v -5.2 -82 0
v -6.8 -82.8 0
v -6.8 -82 0
v -8.400001 -82.8 0
v -8.400001 -82 0
v -10 -82.8 0
v -10 -82 0
v -11.6 -82.8 0
v -11.6 -82 0
v -13.2 -82.8 0
v -13.2 -82 0
v -14.8 -82.8 0
v -14.8 -82 0
v -16.4 -82.8 0
v -16.4 -82 0
v -18 -82.8 0
v -18 -82 0
v -19.6 -82.8 0
v -19.6 -82 0
v -21.2 -82.8 0
v -21.2 -82 0
v -22.8 -82.8 0
v -22.8 -82 0
v -24.4 -82.8 0
v -24.4 -82 0
v -25.2 -82.8 0
v -26.8 -82.8 0
v -26.8 -82 0
v -25.2 -82 0
v -28.4 -82.8 0
v -28.4 -82 0
v -30 -82.8 0
v -30 -82 0
v -31.6 -82.8 0
v -31.6 -82 0
v -33.2 -82.8 0
v -33.2 -82 0
v -34.8 -82.8 0
v -34.8 -82 0
v -22.4 -88.8 0
v -24 -88.8 0
v -24 -88 0
v -22.4 -88 0
v -25.6 -88.8 0
v -25.6 -88 0
v -27.2 -88.8 0
v -27.2 -88 0
v -28.8 -88.8 0
v -28.8 -88 0
v -30.4 -88.8 0
v -30.4 -88 0
v -32 -88.8 0
v -32 -88 0
v -33.6 -88.8 0
v -33.6 -88 0
v -35.2 -88.8 0
v -35.2 -88 0
v -36.8 -88.8 0
v -36.8 -88 0
v -38.4 -88.8 0
v -38.4 -88 0
v -40 -88.8 0
v -40 -88 0
v -41.6 -88.8 0
v -41.6 -88 0
v -43.2 -88.8 0
v -43.2 -88 0
v -8.400001 -91.2 0
v -10 -91.2 0
v -10 -90.4 0
v -8.400001 -90.4 0
v -11.6 -91.2 0
v -11.6 -90.4 0
v -13.2 -91.2 0
v -13.2 -90.4 0
v -14.8 -91.2 0
v -14.8 -90.4 0
v -8.400001 -98 0
v -10 -98 0
v -10 -97.2 0
v -8.400001 -97.2 0
v -11.6 -98 0
v -11.6 -97.2 0
v -13.2 -98 0
v -13.2 -97.2 0
v -14.8 -98 0
v -14.8 -97.2 0
v -23.6 -98 0
v -25.2 -98 0
v -25.2 -97.2 0
v -23.6 -97.2 0
v -26.8 -98 0
v -26.8 -97.2 0
v -28.4 -98 0
v -28.4 -97.2 0
v -30 -98 0
v -30 -97.2 0
v -11.2 -108 0
v -12.8 -108 0
v -12.8 -107.2 0
v -11.2 -107.2 0
v -14.4 -108 0
v -14.4 -107.2 0
v -16 -108 0
v -16 -107.2 0
v -17.6 -108 0
v -17.6 -107.2 0
v -24 -108 0
v -25.6 -108 0
v -25.6 -107.2 0
v -24 -107.2 0
v -27.2 -108 0
v -27.2 -107.2 0
v -28.8 -108 0
v -28.8 -107.2 0
v -30.4 -108 0
v -30.4 -107.2 0
v -32 -108 0
v -32 -107.2 0
v -33.6 -108 0
v -33.6 -107.2 0
v -35.2 -108 0
v -35.2 -107.2 0
v -36.8 -108 0
v -36.8 -107.2 0
v -38.4 -108 0
v -38.4 -107.2 0
v -40 -108 0
v -40 -107.2 0
v -41.6 -108 0
v -41.6 -107.2 0
v -43.2 -108 0
v -43.2 -107.2 0
v -1.6 -114 0
v -3.2 -114 0
v -3.2 -113.2 0
v -1.6 -113.2 0
v -4.8 -114 0
v -4.8 -113.2 0
v -6.4 -114 0
v -6.4 -113.2 0
v -8 -114 0
v -8 -113.2 0
v -9.6 -114 0
v -9.6 -113.2 0
v -11.2 -114 0
v -11.2 -113.2 0
v -17.6 -115.6 0
v -19.2 -115.6 0
v -19.2 -114.8 0
v -17.6 -114.8 0
v -20.8 -115.6 0
v -20.8 -114.8 0
v -22.4 -115.6 0
v -22.4 -114.8 0
v -24 -115.6 0
v -24 -114.8 0
v -30.4 -117.6 0
v -32 -117.6 0
v -32 -116.8 0
v -30.4 -116.8 0
v -33.6 -117.6 0
v -33.6 -116.8 0
v -35.2 -117.6 0
v -35.2 -116.8 0
v -36.8 -117.6 0
v -36.8 -116.8 0
v -27.2 -123.2 0
v -28.8 -123.2 0
v -28.8 -122.4 0
v -27.2 -122.4 0
v -30.4 -123.2 0
v -30.4 -122.4 0
v -32 -123.2 0
v -32 -122.4 0
v -33.6 -123.2 0
v -33.6 -122.4 0
v -35.2 -123.2 0
v -35.2 -122.4 0
v -36.8 -123.2 0
v -36.8 -122.4 0
v -38.4 -123.2 0
v -38.4 -122.4 0
v -40 -123.2 0
v -40 -122.4 0
v -41.6 -123.2 0
v -41.6 -122.4 0
v -43.2 -123.2 0
v -43.2 -122.4 0
v -24.4 -76.4 0
v -25.2 -76.4 0
v -25.2 -74.8 0
v -24.4 -78 0
v -25.2 -78 0
v -24.4 -79.6 0
v -25.2 -79.6 0
v -24.4 -81.2 0
v -25.2 -81.2 0
v -36 -97.2 0
v -36.8 -97.2 0
v -36.8 -95.6 0
v -36 -95.6 0
v -36 -98.8 0
v -36.8 -98.8 0
v -36 -100.4 0
v -36.8 -100.4 0
v -7.2 -122 0
v -8 -122 0
v -8 -120.4 0
v -7.2 -120.4 0
v -7.2 -123.6 0
v -8 -123.6 0
v -7.2 -125.2 0
v -8 -125.2 0
v -7.2 -126.8 0
v -8 -126.8 0

# Texture cooridinates (Count = 8)
vt 0.06678874 0.9584554
vt 0.1332113 0.9584554
vt 0.1332113 0.9998779
vt 0.06678874 0.9998779
vt 0.06678874 0.9792888
vt 0.1332113 0.9792888
vt 0.09987793 0.9584554
vt 0.09987793 0.9998779

# Normal
vn 0 0 -1

# Groups (Count = 1)

g mesh_0001
f 1/1/1 2/2/1 3/3/1 4/4/1
f 2/1/1 5/2/1 6/3/1 3/4/1
f 5/1/1 7/2/1 8/3/1 6/4/1
f 7/1/1 9/2/1 10/3/1 8/4/1
f 9/1/1 11/2/1 12/3/1 10/4/1
f 11/1/1 13/2/1 14/3/1 12/4/1
f 13/1/1 15/2/1 16/3/1 14/4/1
f 15/1/1 17/2/1 18/3/1 16/4/1
f 17/1/1 19/2/1 20/3/1 18/4/1
f 19/1/1 21/2/1 22/3/1 20/4/1
f 21/1/1 23/2/1 24/3/1 22/4/1
f 23/1/1 25/2/1 26/3/1 24/4/1
f 25/1/1 27/2/1 28/3/1 26/4/1
f 27/1/1 29/2/1 30/3/1 28/4/1
f 29/1/1 31/2/1 32/3/1 30/4/1
f 31/1/1 33/2/1 34/3/1 32/4/1
f 33/1/1 35/2/1 36/3/1 34/4/1
f 35/1/1 37/2/1 38/3/1 36/4/1
f 37/1/1 39/2/1 40/3/1 38/4/1
f 39/1/1 41/2/1 42/3/1 40/4/1
f 41/1/1 43/2/1 44/3/1 42/4/1
f 43/1/1 45/2/1 46/3/1 44/4/1
f 45/1/1 47/2/1 48/3/1 46/4/1
f 47/1/1 49/2/1 50/3/1 48/4/1
f 49/1/1 51/2/1 52/3/1 50/4/1
f 51/1/1 53/2/1 54/3/1 52/4/1
f 55/1/1 56/2/1 57/3/1 58/4/1
f 56/1/1 59/2/1 60/3/1 57/4/1
f 59/1/1 61/2/1 62/3/1 60/4/1
f 61/1/1 63/2/1 64/3/1 62/4/1
f 63/1/1 65/2/1 66/3/1 64/4/1
f 65/1/1 67/2/1 68/3/1 66/4/1
f 67/1/1 69/2/1 70/3/1 68/4/1
f 69/1/1 71/2/1 72/3/1 70/4/1
f 71/1/1 73/2/1 74/3/1 72/4/1
f 73/1/1 75/2/1 76/3/1 74/4/1
f 75/1/1 77/2/1 78/3/1 76/4/1
f 77/1/1 79/2/1 80/3/1 78/4/1
f 79/1/1 81/2/1 82/3/1 80/4/1
f 81/1/1 83/2/1 84/3/1 82/4/1
f 83/1/1 85/2/1 86/3/1 84/4/1
f 85/1/1 87/2/1 88/3/1 86/4/1
f 87/1/1 89/2/1 90/3/1 88/4/1
f 89/1/1 91/2/1 92/3/1 90/4/1
f 91/1/1 93/2/1 94/3/1 92/4/1
f 93/1/1 95/2/1 96/3/1 94/4/1
f 95/1/1 97/2/1 98/3/1 96/4/1
f 97/1/1 99/2/1 100/3/1 98/4/1
f 99/1/1 101/2/1 102/3/1 100/4/1
f 101/1/1 103/2/1 104/3/1 102/4/1
f 103/1/1 105/2/1 106/3/1 104/4/1
f 105/1/1 107/2/1 108/3/1 106/4/1

g mesh_0002
f 109/5/1 110/6/1 111/3/1 112/4/1
f 113/5/1 114/6/1 115/3/1 116/4/1
f 114/5/1 117/6/1 118/3/1 115/4/1
f 117/5/1 119/6/1 120/3/1 118/4/1
f 119/5/1 121/6/1 122/3/1 120/4/1
f 121/5/1 123/6/1 124/3/1 122/4/1
f 123/5/1 125/6/1 126/3/1 124/4/1
f 125/5/1 127/6/1 128/3/1 126/4/1
f 127/5/1 129/6/1 130/3/1 128/4/1
f 129/5/1 131/6/1 132/3/1 130/4/1
f 131/5/1 133/6/1 134/3/1 132/4/1
f 133/5/1 135/6/1 136/3/1 134/4/1
f 137/5/1 138/6/1 139/3/1 140/4/1
f 138/5/1 141/6/1 142/3/1 139/4/1
f 141/5/1 143/6/1 144/3/1 142/4/1
f 143/5/1 145/6/1 146/3/1 144/4/1
f 145/5/1 147/6/1 148/3/1 146/4/1
f 147/5/1 149/6/1 150/3/1 148/4/1
f 149/5/1 151/6/1 152/3/1 150/4/1
f 151/5/1 153/6/1 154/3/1 152/4/1
f 153/5/1 155/6/1 156/3/1 154/4/1
f 155/5/1 157/6/1 158/3/1 156/4/1
f 157/5/1 159/6/1 160/3/1 158/4/1
f 159/5/1 161/6/1 162/3/1 160/4/1
f 161/5/1 163/6/1 164/3/1 162/4/1
f 163/5/1 165/6/1 166/3/1 164/4/1
f 167/5/1 168/6/1 169/3/1 170/4/1
f 168/5/1 171/6/1 172/3/1 169/4/1
f 171/5/1 173/6/1 174/3/1 172/4/1
f 173/5/1 175/6/1 176/3/1 174/4/1
f 175/5/1 177/6/1 178/3/1 176/4/1
f 177/5/1 179/6/1 180/3/1 178/4/1
f 181/5/1 182/6/1 183/3/1 184/4/1
f 182/5/1 185/6/1 186/3/1 183/4/1
f 185/5/1 187/6/1 188/3/1 186/4/1
f 187/5/1 189/6/1 190/3/1 188/4/1
f 189/5/1 191/6/1 192/3/1 190/4/1
f 191/5/1 193/6/1 194/3/1 192/4/1
f 193/5/1 195/6/1 196/3/1 194/4/1
f 195/5/1 197/6/1 198/3/1 196/4/1
f 197/5/1 199/6/1 200/3/1 198/4/1
f 199/5/1 201/6/1 202/3/1 200/4/1
f 201/5/1 203/6/1 204/3/1 202/4/1
f 203/5/1 205/6/1 206/3/1 204/4/1
f 205/5/1 207/6/1 208/3/1 206/4/1
f 209/5/1 210/6/1 211/3/1 212/4/1
f 210/5/1 213/6/1 214/3/1 211/4/1
f 213/5/1 215/6/1 216/3/1 214/4/1
f 215/5/1 217/6/1 218/3/1 216/4/1
f 219/5/1 220/6/1 221/3/1 222/4/1
f 220/5/1 223/6/1 224/3/1 221/4/1
f 223/5/1 225/6/1 226/3/1 224/4/1
f 225/5/1 227/6/1 228/3/1 226/4/1
f 229/5/1 230/6/1 231/3/1 232/4/1
f 230/5/1 233/6/1 234/3/1 231/4/1
f 233/5/1 235/6/1 236/3/1 234/4/1
f 235/5/1 237/6/1 238/3/1 236/4/1
f 239/5/1 240/6/1 241/3/1 242/4/1
f 240/5/1 243/6/1 244/3/1 241/4/1
f 243/5/1 245/6/1 246/3/1 244/4/1
f 245/5/1 247/6/1 248/3/1 246/4/1
f 249/5/1 250/6/1 251/3/1 252/4/1
f 250/5/1 253/6/1 254/3/1 251/4/1
f 253/5/1 255/6/1 256/3/1 254/4/1
f 255/5/1 257/6/1 258/3/1 256/4/1
f 257/5/1 259/6/1 260/3/1 258/4/1
f 259/5/1 261/6/1 262/3/1 260/4/1
f 261/5/1 263/6/1 264/3/1 262/4/1
f 263/5/1 265/6/1 266/3/1 264/4/1
f 265/5/1 267/6/1 268/3/1 266/4/1
f 267/5/1 269/6/1 270/3/1 268/4/1
f 269/5/1 271/6/1 272/3/1 270/4/1
f 271/5/1 273/6/1 274/3/1 272/4/1
f 275/5/1 276/6/1 277/3/1 278/4/1
f 276/5/1 279/6/1 280/3/1 277/4/1
f 279/5/1 281/6/1 282/3/1 280/4/1
f 281/5/1 283/6/1 284/3/1 282/4/1
f 283/5/1 285/6/1 286/3/1 284/4/1
f 285/5/1 287/6/1 288/3/1 286/4/1
f 289/5/1 290/6/1 291/3/1 292/4/1
f 290/5/1 293/6/1 294/3/1 291/4/1
f 293/5/1 295/6/1 296/3/1 294/4/1
f 295/5/1 297/6/1 298/3/1 296/4/1
f 299/5/1 300/6/1 301/3/1 302/4/1
f 300/5/1 303/6/1 304/3/1 301/4/1
f 303/5/1 305/6/1 306/3/1 304/4/1
f 305/5/1 307/6/1 308/3/1 306/4/1
f 309/5/1 310/6/1 311/3/1 312/4/1
f 310/5/1 313/6/1 314/3/1 311/4/1
f 313/5/1 315/6/1 316/3/1 314/4/1
f 315/5/1 317/6/1 318/3/1 316/4/1
f 317/5/1 319/6/1 320/3/1 318/4/1
f 319/5/1 321/6/1 322/3/1 320/4/1
f 321/5/1 323/6/1 324/3/1 322/4/1
f 323/5/1 325/6/1 326/3/1 324/4/1
f 325/5/1 327/6/1 328/3/1 326/4/1
f 327/5/1 329/6/1 330/3/1 328/4/1

g mesh_0003
f 331/1/1 332/7/1 333/8/1 112/4/1
f 334/1/1 335/7/1 332/8/1 331/4/1
f 336/1/1 337/7/1 335/8/1 334/4/1
f 338/1/1 339/7/1 337/8/1 336/4/1
f 165/1/1 167/7/1 339/8/1 338/4/1
f 340/1/1 341/7/1 342/8/1 343/4/1
f 344/1/1 345/7/1 341/8/1 340/4/1
f 346/1/1 347/7/1 345/8/1 344/4/1
f 348/1/1 349/7/1 350/8/1 351/4/1
f 352/1/1 353/7/1 349/8/1 348/4/1
f 354/1/1 355/7/1 353/8/1 352/4/1
f 356/1/1 357/7/1 355/8/1 354/4/1

