# Wavefront OBJ file automatically generated by Tiled2Unity

# Vertices (Count = 84)
v -32.4 -112.4 0
v -34 -112.4 0
v -34 -111.6 0
v -32.4 -111.6 0
v -35.6 -112.4 0
v -35.6 -111.6 0
v -37.2 -112.4 0
v -37.2 -111.6 0
v -38.8 -112.4 0
v -38.8 -111.6 0
v -6.4 -116 0
v -7.2 -116 0
v -7.2 -114.4 0
v -6.4 -114.4 0
v -12.4 -119.2 0
v -13.2 -119.2 0
v -13.2 -117.6 0
v -12.4 -117.6 0
v -3.6 -122.4 0
v -4.4 -122.4 0
v -4.4 -120.8 0
v -3.6 -120.8 0
v -9.6 -126 0
v -10.4 -126 0
v -10.4 -124.4 0
v -9.6 -124.4 0
v -3.6 -129.6 0
v -4.4 -129.6 0
v -4.4 -128 0
v -3.6 -128 0
v -1.6 -134.4 0
v -3.2 -134.4 0
v -3.2 -132.8 0
v -1.6 -132.8 0
v -4.8 -134.4 0
v -4.8 -132.8 0
v -6.4 -134.4 0
v -6.4 -132.8 0
v -8 -134.4 0
v -8 -132.8 0
v -9.6 -134.4 0
v -9.6 -132.8 0
v -11.2 -134.4 0
v -11.2 -132.8 0
v -12.8 -134.4 0
v -12.8 -132.8 0
v -14.4 -134.4 0
v -14.4 -132.8 0
v -16 -134.4 0
v -16 -132.8 0
v -17.6 -134.4 0
v -17.6 -132.8 0
v -19.2 -134.4 0
v -19.2 -132.8 0
v -20.8 -134.4 0
v -20.8 -132.8 0
v -22.4 -134.4 0
v -22.4 -132.8 0
v -24 -134.4 0
v -24 -132.8 0
v -25.6 -134.4 0
v -25.6 -132.8 0
v -27.2 -134.4 0
v -27.2 -132.8 0
v -28.8 -134.4 0
v -28.8 -132.8 0
v -30.4 -134.4 0
v -30.4 -132.8 0
v -32 -134.4 0
v -32 -132.8 0
v -33.6 -134.4 0
v -33.6 -132.8 0
v -35.2 -134.4 0
v -35.2 -132.8 0
v -36.8 -134.4 0
v -36.8 -132.8 0
v -38.4 -134.4 0
v -38.4 -132.8 0
v -40 -134.4 0
v -40 -132.8 0
v -41.6 -134.4 0
v -41.6 -132.8 0
v -43.2 -134.4 0
v -43.2 -132.8 0

# Texture cooridinates (Count = 11)
vt 0.06678874 0.8542888
vt 0.1332113 0.8542888
vt 0.1332113 0.8748779
vt 0.06678874 0.8748779
vt 0.06678874 0.8334554
vt 0.09987793 0.8334554
vt 0.09987793 0.8748779
vt 0.0001220703 0.5417887
vt 0.0665446 0.5417887
vt 0.0665446 0.5832113
vt 0.0001220703 0.5832113

# Normal
vn 0 0 -1

# Groups (Count = 1)

g mesh_0001
f 1/1/1 2/2/1 3/3/1 4/4/1
f 2/1/1 5/2/1 6/3/1 3/4/1
f 5/1/1 7/2/1 8/3/1 6/4/1
f 7/1/1 9/2/1 10/3/1 8/4/1

g mesh_0002
f 11/5/1 12/6/1 13/7/1 14/4/1
f 15/5/1 16/6/1 17/7/1 18/4/1
f 19/5/1 20/6/1 21/7/1 22/4/1
f 23/5/1 24/6/1 25/7/1 26/4/1
f 27/5/1 28/6/1 29/7/1 30/4/1

g mesh_0003
f 31/8/1 32/9/1 33/10/1 34/11/1
f 32/8/1 35/9/1 36/10/1 33/11/1
f 35/8/1 37/9/1 38/10/1 36/11/1
f 37/8/1 39/9/1 40/10/1 38/11/1
f 39/8/1 41/9/1 42/10/1 40/11/1
f 41/8/1 43/9/1 44/10/1 42/11/1
f 43/8/1 45/9/1 46/10/1 44/11/1
f 45/8/1 47/9/1 48/10/1 46/11/1
f 47/8/1 49/9/1 50/10/1 48/11/1
f 49/8/1 51/9/1 52/10/1 50/11/1
f 51/8/1 53/9/1 54/10/1 52/11/1
f 53/8/1 55/9/1 56/10/1 54/11/1
f 55/8/1 57/9/1 58/10/1 56/11/1
f 57/8/1 59/9/1 60/10/1 58/11/1
f 59/8/1 61/9/1 62/10/1 60/11/1
f 61/8/1 63/9/1 64/10/1 62/11/1
f 63/8/1 65/9/1 66/10/1 64/11/1
f 65/8/1 67/9/1 68/10/1 66/11/1
f 67/8/1 69/9/1 70/10/1 68/11/1
f 69/8/1 71/9/1 72/10/1 70/11/1
f 71/8/1 73/9/1 74/10/1 72/11/1
f 73/8/1 75/9/1 76/10/1 74/11/1
f 75/8/1 77/9/1 78/10/1 76/11/1
f 77/8/1 79/9/1 80/10/1 78/11/1
f 79/8/1 81/9/1 82/10/1 80/11/1
f 81/8/1 83/9/1 84/10/1 82/11/1

