# Wavefront OBJ file automatically generated by Tiled2Unity

# Vertices (Count = 290)
v -1.6 -1.6 0
v -3.2 -1.6 0
v -3.2 0 0
v -1.6 0 0
v -4.8 -1.6 0
v -4.8 0 0
v -6.4 -1.6 0
v -6.4 0 0
v -8 -1.6 0
v -8 0 0
v -9.6 -1.6 0
v -9.6 0 0
v -11.2 -1.6 0
v -11.2 0 0
v -12.8 -1.6 0
v -12.8 0 0
v -14.4 -1.6 0
v -14.4 0 0
v -16 -1.6 0
v -16 0 0
v -17.6 -1.6 0
v -17.6 0 0
v -19.2 -1.6 0
v -19.2 0 0
v -20.8 -1.6 0
v -20.8 0 0
v -22.4 -1.6 0
v -22.4 0 0
v -24 -1.6 0
v -24 0 0
v -25.6 -1.6 0
v -25.6 0 0
v -27.2 -1.6 0
v -27.2 0 0
v -28.8 -1.6 0
v -28.8 0 0
v -30.4 -1.6 0
v -30.4 0 0
v -32 -1.6 0
v -32 0 0
v -33.6 -1.6 0
v -33.6 0 0
v -35.2 -1.6 0
v -35.2 0 0
v -36.8 -1.6 0
v -36.8 0 0
v -38.4 -1.6 0
v -38.4 0 0
v -40 -1.6 0
v -40 0 0
v -41.6 -1.6 0
v -41.6 0 0
v -43.2 -1.6 0
v -43.2 0 0
v -1.6 -134.4 0
v -3.2 -134.4 0
v -3.2 -132.8 0
v -1.6 -132.8 0
v -4.8 -134.4 0
v -4.8 -132.8 0
v -6.4 -134.4 0
v -6.4 -132.8 0
v -8 -134.4 0
v -8 -132.8 0
v -9.6 -134.4 0
v -9.6 -132.8 0
v -11.2 -134.4 0
v -11.2 -132.8 0
v -12.8 -134.4 0
v -12.8 -132.8 0
v -14.4 -134.4 0
v -14.4 -132.8 0
v -16 -134.4 0
v -16 -132.8 0
v -17.6 -134.4 0
v -17.6 -132.8 0
v -19.2 -134.4 0
v -19.2 -132.8 0
v -20.8 -134.4 0
v -20.8 -132.8 0
v -22.4 -134.4 0
v -22.4 -132.8 0
v -24 -134.4 0
v -24 -132.8 0
v -25.6 -134.4 0
v -25.6 -132.8 0
v -27.2 -134.4 0
v -27.2 -132.8 0
v -28.8 -134.4 0
v -28.8 -132.8 0
v -30.4 -134.4 0
v -30.4 -132.8 0
v -32 -134.4 0
v -32 -132.8 0
v -33.6 -134.4 0
v -33.6 -132.8 0
v -35.2 -134.4 0
v -35.2 -132.8 0
v -36.8 -134.4 0
v -36.8 -132.8 0
v -38.4 -134.4 0
v -38.4 -132.8 0
v -40 -134.4 0
v -40 -132.8 0
v -41.6 -134.4 0
v -41.6 -132.8 0
v -43.2 -134.4 0
v -43.2 -132.8 0
v -1.6 -63.6 0
v -3.2 -63.6 0
v -3.2 -62.8 0
v -1.6 -62.8 0
v -4.8 -63.6 0
v -4.8 -62.8 0
v -6.4 -63.6 0
v -6.4 -62.8 0
v -8 -63.6 0
v -8 -62.8 0
v -36.8 -75.6 0
v -38.4 -75.6 0
v -38.4 -74.8 0
v -36.8 -74.8 0
v -40 -75.6 0
v -40 -74.8 0
v -41.6 -75.6 0
v -41.6 -74.8 0
v -43.2 -75.6 0
v -43.2 -74.8 0
v -10.8 -86.8 0
v -12.4 -86.8 0
v -12.4 -86 0
v -10.8 -86 0
v -14 -86.8 0
v -14 -86 0
v -15.6 -86.8 0
v -15.6 -86 0
v -17.2 -86.8 0
v -17.2 -86 0
v -18.8 -86.8 0
v -18.8 -86 0
v -20.4 -86.8 0
v -20.4 -86 0
v -22 -86.8 0
v -22 -86 0
v -23.6 -86.8 0
v -23.6 -86 0
v -25.2 -86.8 0
v -25.2 -86 0
v -26.8 -86.8 0
v -26.8 -86 0
v -36.8 -86.8 0
v -38.4 -86.8 0
v -38.4 -86 0
v -36.8 -86 0
v -40 -86.8 0
v -40 -86 0
v -41.6 -86.8 0
v -41.6 -86 0
v -43.2 -86.8 0
v -43.2 -86 0
v -10.8 -100 0
v -12.4 -100 0
v -12.4 -99.2 0
v -10.8 -99.2 0
v -14 -100 0
v -14 -99.2 0
v -15.6 -100 0
v -15.6 -99.2 0
v -17.2 -100 0
v -17.2 -99.2 0
v -18.8 -100 0
v -18.8 -99.2 0
v -28.4 -100 0
v -30 -100 0
v -30 -99.2 0
v -28.4 -99.2 0
v -31.6 -100 0
v -31.6 -99.2 0
v -33.2 -100 0
v -33.2 -99.2 0
v -34.8 -100 0
v -34.8 -99.2 0
v -25.2 -105.6 0
v -26.8 -105.6 0
v -26.8 -104.8 0
v -25.2 -104.8 0
v -28.4 -105.6 0
v -28.4 -104.8 0
v -30 -105.6 0
v -30 -104.8 0
v -31.6 -105.6 0
v -31.6 -104.8 0
v -33.2 -105.6 0
v -33.2 -104.8 0
v -34.8 -105.6 0
v -34.8 -104.8 0
v -36.4 -105.6 0
v -36.4 -104.8 0
v -38 -105.6 0
v -38 -104.8 0
v -39.6 -105.6 0
v -39.6 -104.8 0
v -24 -120.8 0
v -25.6 -120.8 0
v -25.6 -120 0
v -24 -120 0
v -27.2 -120.8 0
v -27.2 -120 0
v -28.8 -120.8 0
v -28.8 -120 0
v -30.4 -120.8 0
v -30.4 -120 0
v -36.8 -124 0
v -38.4 -124 0
v -38.4 -123.2 0
v -36.8 -123.2 0
v -40 -124 0
v -40 -123.2 0
v -41.6 -124 0
v -41.6 -123.2 0
v -43.2 -124 0
v -43.2 -123.2 0
v -14.4 -127.2 0
v -16 -127.2 0
v -16 -126.4 0
v -14.4 -126.4 0
v -17.6 -127.2 0
v -17.6 -126.4 0
v -19.2 -127.2 0
v -19.2 -126.4 0
v -20.8 -127.2 0
v -20.8 -126.4 0
v -22.4 -127.2 0
v -22.4 -126.4 0
v -24 -127.2 0
v -24 -126.4 0
v -25.6 -127.2 0
v -25.6 -126.4 0
v -27.2 -127.2 0
v -27.2 -126.4 0
v -28.8 -127.2 0
v -28.8 -126.4 0
v -30.4 -127.2 0
v -30.4 -126.4 0
v -1.6 -130.4 0
v -3.2 -130.4 0
v -3.2 -129.6 0
v -1.6 -129.6 0
v -4.8 -130.4 0
v -4.8 -129.6 0
v -6.4 -130.4 0
v -6.4 -129.6 0
v -8 -130.4 0
v -8 -129.6 0
v -7.2 -89.6 0
v -8 -89.6 0
v -8 -88 0
v -7.2 -88 0
v -7.2 -91.2 0
v -8 -91.2 0
v -7.2 -92.8 0
v -8 -92.8 0
v -17.6 -106.4 0
v -18.4 -106.4 0
v -18.4 -104.8 0
v -17.6 -104.8 0
v -17.6 -108 0
v -18.4 -108 0
v -17.6 -109.6 0
v -18.4 -109.6 0
v -25.2 -109.6 0
v -26 -109.6 0
v -26 -108 0
v -25.2 -108 0
v -17.6 -111.2 0
v -18.4 -111.2 0
v -25.2 -111.2 0
v -26 -111.2 0
v -17.6 -112.8 0
v -18.4 -112.8 0
v -25.2 -112.8 0
v -26 -112.8 0
v -17.6 -114.4 0
v -18.4 -114.4 0
v -25.2 -114.4 0
v -26 -114.4 0
v -17.6 -116 0
v -18.4 -116 0
v -17.6 -117.6 0
v -18.4 -117.6 0

# Texture cooridinates (Count = 8)
vt 0.06678874 0.9584554
vt 0.1332113 0.9584554
vt 0.1332113 0.9998779
vt 0.06678874 0.9998779
vt 0.06678874 0.9792888
vt 0.1332113 0.9792888
vt 0.09987793 0.9584554
vt 0.09987793 0.9998779

# Normal
vn 0 0 -1

# Groups (Count = 1)

g mesh_0001
f 1/1/1 2/2/1 3/3/1 4/4/1
f 2/1/1 5/2/1 6/3/1 3/4/1
f 5/1/1 7/2/1 8/3/1 6/4/1
f 7/1/1 9/2/1 10/3/1 8/4/1
f 9/1/1 11/2/1 12/3/1 10/4/1
f 11/1/1 13/2/1 14/3/1 12/4/1
f 13/1/1 15/2/1 16/3/1 14/4/1
f 15/1/1 17/2/1 18/3/1 16/4/1
f 17/1/1 19/2/1 20/3/1 18/4/1
f 19/1/1 21/2/1 22/3/1 20/4/1
f 21/1/1 23/2/1 24/3/1 22/4/1
f 23/1/1 25/2/1 26/3/1 24/4/1
f 25/1/1 27/2/1 28/3/1 26/4/1
f 27/1/1 29/2/1 30/3/1 28/4/1
f 29/1/1 31/2/1 32/3/1 30/4/1
f 31/1/1 33/2/1 34/3/1 32/4/1
f 33/1/1 35/2/1 36/3/1 34/4/1
f 35/1/1 37/2/1 38/3/1 36/4/1
f 37/1/1 39/2/1 40/3/1 38/4/1
f 39/1/1 41/2/1 42/3/1 40/4/1
f 41/1/1 43/2/1 44/3/1 42/4/1
f 43/1/1 45/2/1 46/3/1 44/4/1
f 45/1/1 47/2/1 48/3/1 46/4/1
f 47/1/1 49/2/1 50/3/1 48/4/1
f 49/1/1 51/2/1 52/3/1 50/4/1
f 51/1/1 53/2/1 54/3/1 52/4/1
f 55/1/1 56/2/1 57/3/1 58/4/1
f 56/1/1 59/2/1 60/3/1 57/4/1
f 59/1/1 61/2/1 62/3/1 60/4/1
f 61/1/1 63/2/1 64/3/1 62/4/1
f 63/1/1 65/2/1 66/3/1 64/4/1
f 65/1/1 67/2/1 68/3/1 66/4/1
f 67/1/1 69/2/1 70/3/1 68/4/1
f 69/1/1 71/2/1 72/3/1 70/4/1
f 71/1/1 73/2/1 74/3/1 72/4/1
f 73/1/1 75/2/1 76/3/1 74/4/1
f 75/1/1 77/2/1 78/3/1 76/4/1
f 77/1/1 79/2/1 80/3/1 78/4/1
f 79/1/1 81/2/1 82/3/1 80/4/1
f 81/1/1 83/2/1 84/3/1 82/4/1
f 83/1/1 85/2/1 86/3/1 84/4/1
f 85/1/1 87/2/1 88/3/1 86/4/1
f 87/1/1 89/2/1 90/3/1 88/4/1
f 89/1/1 91/2/1 92/3/1 90/4/1
f 91/1/1 93/2/1 94/3/1 92/4/1
f 93/1/1 95/2/1 96/3/1 94/4/1
f 95/1/1 97/2/1 98/3/1 96/4/1
f 97/1/1 99/2/1 100/3/1 98/4/1
f 99/1/1 101/2/1 102/3/1 100/4/1
f 101/1/1 103/2/1 104/3/1 102/4/1
f 103/1/1 105/2/1 106/3/1 104/4/1
f 105/1/1 107/2/1 108/3/1 106/4/1

g mesh_0002
f 109/5/1 110/6/1 111/3/1 112/4/1
f 110/5/1 113/6/1 114/3/1 111/4/1
f 113/5/1 115/6/1 116/3/1 114/4/1
f 115/5/1 117/6/1 118/3/1 116/4/1
f 119/5/1 120/6/1 121/3/1 122/4/1
f 120/5/1 123/6/1 124/3/1 121/4/1
f 123/5/1 125/6/1 126/3/1 124/4/1
f 125/5/1 127/6/1 128/3/1 126/4/1
f 129/5/1 130/6/1 131/3/1 132/4/1
f 130/5/1 133/6/1 134/3/1 131/4/1
f 133/5/1 135/6/1 136/3/1 134/4/1
f 135/5/1 137/6/1 138/3/1 136/4/1
f 137/5/1 139/6/1 140/3/1 138/4/1
f 139/5/1 141/6/1 142/3/1 140/4/1
f 141/5/1 143/6/1 144/3/1 142/4/1
f 143/5/1 145/6/1 146/3/1 144/4/1
f 145/5/1 147/6/1 148/3/1 146/4/1
f 147/5/1 149/6/1 150/3/1 148/4/1
f 151/5/1 152/6/1 153/3/1 154/4/1
f 152/5/1 155/6/1 156/3/1 153/4/1
f 155/5/1 157/6/1 158/3/1 156/4/1
f 157/5/1 159/6/1 160/3/1 158/4/1
f 161/5/1 162/6/1 163/3/1 164/4/1
f 162/5/1 165/6/1 166/3/1 163/4/1
f 165/5/1 167/6/1 168/3/1 166/4/1
f 167/5/1 169/6/1 170/3/1 168/4/1
f 169/5/1 171/6/1 172/3/1 170/4/1
f 173/5/1 174/6/1 175/3/1 176/4/1
f 174/5/1 177/6/1 178/3/1 175/4/1
f 177/5/1 179/6/1 180/3/1 178/4/1
f 179/5/1 181/6/1 182/3/1 180/4/1
f 183/5/1 184/6/1 185/3/1 186/4/1
f 184/5/1 187/6/1 188/3/1 185/4/1
f 187/5/1 189/6/1 190/3/1 188/4/1
f 189/5/1 191/6/1 192/3/1 190/4/1
f 191/5/1 193/6/1 194/3/1 192/4/1
f 193/5/1 195/6/1 196/3/1 194/4/1
f 195/5/1 197/6/1 198/3/1 196/4/1
f 197/5/1 199/6/1 200/3/1 198/4/1
f 199/5/1 201/6/1 202/3/1 200/4/1
f 203/5/1 204/6/1 205/3/1 206/4/1
f 204/5/1 207/6/1 208/3/1 205/4/1
f 207/5/1 209/6/1 210/3/1 208/4/1
f 209/5/1 211/6/1 212/3/1 210/4/1
f 213/5/1 214/6/1 215/3/1 216/4/1
f 214/5/1 217/6/1 218/3/1 215/4/1
f 217/5/1 219/6/1 220/3/1 218/4/1
f 219/5/1 221/6/1 222/3/1 220/4/1
f 223/5/1 224/6/1 225/3/1 226/4/1
f 224/5/1 227/6/1 228/3/1 225/4/1
f 227/5/1 229/6/1 230/3/1 228/4/1
f 229/5/1 231/6/1 232/3/1 230/4/1
f 231/5/1 233/6/1 234/3/1 232/4/1
f 233/5/1 235/6/1 236/3/1 234/4/1
f 235/5/1 237/6/1 238/3/1 236/4/1
f 237/5/1 239/6/1 240/3/1 238/4/1
f 239/5/1 241/6/1 242/3/1 240/4/1
f 241/5/1 243/6/1 244/3/1 242/4/1
f 245/5/1 246/6/1 247/3/1 248/4/1
f 246/5/1 249/6/1 250/3/1 247/4/1
f 249/5/1 251/6/1 252/3/1 250/4/1
f 251/5/1 253/6/1 254/3/1 252/4/1

g mesh_0003
f 255/1/1 256/7/1 257/8/1 258/4/1
f 259/1/1 260/7/1 256/8/1 255/4/1
f 261/1/1 262/7/1 260/8/1 259/4/1
f 263/1/1 264/7/1 265/8/1 266/4/1
f 267/1/1 268/7/1 264/8/1 263/4/1
f 269/1/1 270/7/1 268/8/1 267/4/1
f 271/1/1 272/7/1 273/8/1 274/4/1
f 275/1/1 276/7/1 270/8/1 269/4/1
f 277/1/1 278/7/1 272/8/1 271/4/1
f 279/1/1 280/7/1 276/8/1 275/4/1
f 281/1/1 282/7/1 278/8/1 277/4/1
f 283/1/1 284/7/1 280/8/1 279/4/1
f 285/1/1 286/7/1 282/8/1 281/4/1
f 287/1/1 288/7/1 284/8/1 283/4/1
f 289/1/1 290/7/1 288/8/1 287/4/1

