# Wavefront OBJ file automatically generated by Tiled2Unity

# Vertices (Count = 116)
v -33.2 -68 0
v -34 -68 0
v -34 -66.4 0
v -33.2 -66.4 0
v -33.2 -69.6 0
v -34 -69.6 0
v -38.4 -72 0
v -39.2 -72 0
v -39.2 -70.4 0
v -38.4 -70.4 0
v -38.4 -73.6 0
v -39.2 -73.6 0
v -6.4 -116 0
v -7.2 -116 0
v -7.2 -114.4 0
v -6.4 -114.4 0
v -12.4 -119.2 0
v -13.2 -119.2 0
v -13.2 -117.6 0
v -12.4 -117.6 0
v -3.6 -122.4 0
v -4.4 -122.4 0
v -4.4 -120.8 0
v -3.6 -120.8 0
v -9.6 -126 0
v -10.4 -126 0
v -10.4 -124.4 0
v -9.6 -124.4 0
v -3.6 -129.6 0
v -4.4 -129.6 0
v -4.4 -128 0
v -3.6 -128 0
v -20 -90.4 0
v -21.6 -90.4 0
v -21.6 -89.6 0
v -20 -89.6 0
v -23.2 -90.4 0
v -23.2 -89.6 0
v -24.8 -90.4 0
v -24.8 -89.6 0
v -26.4 -90.4 0
v -26.4 -89.6 0
v -20 -96 0
v -21.6 -96 0
v -21.6 -95.2 0
v -20 -95.2 0
v -23.2 -96 0
v -23.2 -95.2 0
v -24.8 -96 0
v -24.8 -95.2 0
v -26.4 -96 0
v -26.4 -95.2 0
v -32.4 -112.4 0
v -34 -112.4 0
v -34 -111.6 0
v -32.4 -111.6 0
v -35.6 -112.4 0
v -35.6 -111.6 0
v -37.2 -112.4 0
v -37.2 -111.6 0
v -38.8 -112.4 0
v -38.8 -111.6 0
v -1.6 -134.4 0
v -3.2 -134.4 0
v -3.2 -132.8 0
v -1.6 -132.8 0
v -4.8 -134.4 0
v -4.8 -132.8 0
v -6.4 -134.4 0
v -6.4 -132.8 0
v -8 -134.4 0
v -8 -132.8 0
v -9.6 -134.4 0
v -9.6 -132.8 0
v -11.2 -134.4 0
v -11.2 -132.8 0
v -12.8 -134.4 0
v -12.8 -132.8 0
v -14.4 -134.4 0
v -14.4 -132.8 0
v -16 -134.4 0
v -16 -132.8 0
v -17.6 -134.4 0
v -17.6 -132.8 0
v -19.2 -134.4 0
v -19.2 -132.8 0
v -20.8 -134.4 0
v -20.8 -132.8 0
v -22.4 -134.4 0
v -22.4 -132.8 0
v -24 -134.4 0
v -24 -132.8 0
v -25.6 -134.4 0
v -25.6 -132.8 0
v -27.2 -134.4 0
v -27.2 -132.8 0
v -28.8 -134.4 0
v -28.8 -132.8 0
v -30.4 -134.4 0
v -30.4 -132.8 0
v -32 -134.4 0
v -32 -132.8 0
v -33.6 -134.4 0
v -33.6 -132.8 0
v -35.2 -134.4 0
v -35.2 -132.8 0
v -36.8 -134.4 0
v -36.8 -132.8 0
v -38.4 -134.4 0
v -38.4 -132.8 0
v -40 -134.4 0
v -40 -132.8 0
v -41.6 -134.4 0
v -41.6 -132.8 0
v -43.2 -134.4 0
v -43.2 -132.8 0

# Texture cooridinates (Count = 10)
vt 0.7501221 0.0001220703
vt 0.8748779 0.0001220703
vt 0.8748779 0.2498779
vt 0.7501221 0.2498779
vt 0.5001221 0.2501221
vt 0.7498779 0.2501221
vt 0.7498779 0.3748779
vt 0.5001221 0.3748779
vt 0.9998779 0.0001220703
vt 0.9998779 0.2498779

# Normal
vn 0 0 -1

# Groups (Count = 1)

g mesh_0001
f 1/1/1 2/2/1 3/3/1 4/4/1
f 5/1/1 6/2/1 2/3/1 1/4/1
f 7/1/1 8/2/1 9/3/1 10/4/1
f 11/1/1 12/2/1 8/3/1 7/4/1
f 13/1/1 14/2/1 15/3/1 16/4/1
f 17/1/1 18/2/1 19/3/1 20/4/1
f 21/1/1 22/2/1 23/3/1 24/4/1
f 25/1/1 26/2/1 27/3/1 28/4/1
f 29/1/1 30/2/1 31/3/1 32/4/1

g mesh_0002
f 33/5/1 34/6/1 35/7/1 36/8/1
f 34/5/1 37/6/1 38/7/1 35/8/1
f 37/5/1 39/6/1 40/7/1 38/8/1
f 39/5/1 41/6/1 42/7/1 40/8/1
f 43/5/1 44/6/1 45/7/1 46/8/1
f 44/5/1 47/6/1 48/7/1 45/8/1
f 47/5/1 49/6/1 50/7/1 48/8/1
f 49/5/1 51/6/1 52/7/1 50/8/1
f 53/5/1 54/6/1 55/7/1 56/8/1
f 54/5/1 57/6/1 58/7/1 55/8/1
f 57/5/1 59/6/1 60/7/1 58/8/1
f 59/5/1 61/6/1 62/7/1 60/8/1

g mesh_0003
f 63/1/1 64/9/1 65/10/1 66/4/1
f 64/1/1 67/9/1 68/10/1 65/4/1
f 67/1/1 69/9/1 70/10/1 68/4/1
f 69/1/1 71/9/1 72/10/1 70/4/1
f 71/1/1 73/9/1 74/10/1 72/4/1
f 73/1/1 75/9/1 76/10/1 74/4/1
f 75/1/1 77/9/1 78/10/1 76/4/1
f 77/1/1 79/9/1 80/10/1 78/4/1
f 79/1/1 81/9/1 82/10/1 80/4/1
f 81/1/1 83/9/1 84/10/1 82/4/1
f 83/1/1 85/9/1 86/10/1 84/4/1
f 85/1/1 87/9/1 88/10/1 86/4/1
f 87/1/1 89/9/1 90/10/1 88/4/1
f 89/1/1 91/9/1 92/10/1 90/4/1
f 91/1/1 93/9/1 94/10/1 92/4/1
f 93/1/1 95/9/1 96/10/1 94/4/1
f 95/1/1 97/9/1 98/10/1 96/4/1
f 97/1/1 99/9/1 100/10/1 98/4/1
f 99/1/1 101/9/1 102/10/1 100/4/1
f 101/1/1 103/9/1 104/10/1 102/4/1
f 103/1/1 105/9/1 106/10/1 104/4/1
f 105/1/1 107/9/1 108/10/1 106/4/1
f 107/1/1 109/9/1 110/10/1 108/4/1
f 109/1/1 111/9/1 112/10/1 110/4/1
f 111/1/1 113/9/1 114/10/1 112/4/1
f 113/1/1 115/9/1 116/10/1 114/4/1

