# Wavefront OBJ file automatically generated by Tiled2Unity

# Vertices (Count = 641)
v -1.6 -1.6 0
v -3.2 -1.6 0
v -3.2 0 0
v -1.6 0 0
v -4.8 -1.6 0
v -4.8 0 0
v -6.4 -1.6 0
v -6.4 0 0
v -8 -1.6 0
v -8 0 0
v -9.6 -1.6 0
v -9.6 0 0
v -11.2 -1.6 0
v -11.2 0 0
v -12.8 -1.6 0
v -12.8 0 0
v -14.4 -1.6 0
v -14.4 0 0
v -16 -1.6 0
v -16 0 0
v -17.6 -1.6 0
v -17.6 0 0
v -19.2 -1.6 0
v -19.2 0 0
v -20.8 -1.6 0
v -20.8 0 0
v -22.4 -1.6 0
v -22.4 0 0
v -24 -1.6 0
v -24 0 0
v -25.6 -1.6 0
v -25.6 0 0
v -27.2 -1.6 0
v -27.2 0 0
v -28.8 -1.6 0
v -28.8 0 0
v -30.4 -1.6 0
v -30.4 0 0
v -32 -1.6 0
v -32 0 0
v -33.6 -1.6 0
v -33.6 0 0
v -35.2 -1.6 0
v -35.2 0 0
v -36.8 -1.6 0
v -36.8 0 0
v -38.4 -1.6 0
v -38.4 0 0
v -40 -1.6 0
v -40 0 0
v -41.6 -1.6 0
v -41.6 0 0
v -43.2 -1.6 0
v -43.2 0 0
v -1.6 -134.4 0
v -3.2 -134.4 0
v -3.2 -132.8 0
v -1.6 -132.8 0
v -4.8 -134.4 0
v -4.8 -132.8 0
v -6.4 -134.4 0
v -6.4 -132.8 0
v -8 -134.4 0
v -8 -132.8 0
v -9.6 -134.4 0
v -9.6 -132.8 0
v -11.2 -134.4 0
v -11.2 -132.8 0
v -12.8 -134.4 0
v -12.8 -132.8 0
v -14.4 -134.4 0
v -14.4 -132.8 0
v -16 -134.4 0
v -16 -132.8 0
v -17.6 -134.4 0
v -17.6 -132.8 0
v -19.2 -134.4 0
v -19.2 -132.8 0
v -20.8 -134.4 0
v -20.8 -132.8 0
v -22.4 -134.4 0
v -22.4 -132.8 0
v -24 -134.4 0
v -24 -132.8 0
v -25.6 -134.4 0
v -25.6 -132.8 0
v -27.2 -134.4 0
v -27.2 -132.8 0
v -28.8 -134.4 0
v -28.8 -132.8 0
v -30.4 -134.4 0
v -30.4 -132.8 0
v -32 -134.4 0
v -32 -132.8 0
v -33.6 -134.4 0
v -33.6 -132.8 0
v -35.2 -134.4 0
v -35.2 -132.8 0
v -36.8 -134.4 0
v -36.8 -132.8 0
v -38.4 -134.4 0
v -38.4 -132.8 0
v -40 -134.4 0
v -40 -132.8 0
v -41.6 -134.4 0
v -41.6 -132.8 0
v -43.2 -134.4 0
v -43.2 -132.8 0
v -13.2 -3.2 0
v -14 -3.2 0
v -14 -1.6 0
v -13.2 -1.6 0
v -13.2 -4.8 0
v -14 -4.8 0
v -36.4 -39.2 0
v -37.2 -39.2 0
v -37.2 -37.6 0
v -36.4 -37.6 0
v -36.4 -40.8 0
v -37.2 -40.8 0
v -36.4 -42.4 0
v -37.2 -42.4 0
v -36.4 -44 0
v -37.2 -44 0
v -20.4 -68 0
v -21.2 -68 0
v -21.2 -66.4 0
v -20.4 -66.4 0
v -10.8 -69.6 0
v -11.6 -69.6 0
v -11.6 -68 0
v -10.8 -68 0
v -20.4 -69.6 0
v -21.2 -69.6 0
v -30 -69.6 0
v -30.8 -69.6 0
v -30.8 -68 0
v -30 -68 0
v -10.8 -71.2 0
v -11.6 -71.2 0
v -30 -71.2 0
v -30.8 -71.2 0
v -24.4 -76.4 0
v -25.2 -76.4 0
v -25.2 -74.8 0
v -24.4 -74.8 0
v -24.4 -78 0
v -25.2 -78 0
v -24.4 -79.6 0
v -25.2 -79.6 0
v -24.4 -81.2 0
v -25.2 -81.2 0
v -24.4 -82.8 0
v -25.2 -82.8 0
v -22.4 -84.4 0
v -23.2 -84.4 0
v -23.2 -82.8 0
v -22.4 -82.8 0
v -22.4 -88 0
v -23.2 -88 0
v -23.2 -86.4 0
v -22.4 -86.4 0
v -36 -97.2 0
v -36.8 -97.2 0
v -36.8 -95.6 0
v -36 -95.6 0
v -36 -98.8 0
v -36.8 -98.8 0
v -36 -100.4 0
v -36.8 -100.4 0
v -7.2 -122 0
v -8 -122 0
v -8 -120.4 0
v -7.2 -120.4 0
v -7.2 -123.6 0
v -8 -123.6 0
v -7.2 -125.2 0
v -8 -125.2 0
v -7.2 -126.8 0
v -8 -126.8 0
v -7.6 -5.6 0
v -9.2 -5.6 0
v -9.2 -4.8 0
v -7.6 -4.8 0
v -10.8 -5.6 0
v -10.8 -4.8 0
v -12.4 -5.6 0
v -12.4 -4.8 0
v -14 -5.6 0
v -1.6 -40.4 0
v -3.2 -40.4 0
v -3.2 -39.6 0
v -1.6 -39.6 0
v -4.8 -40.4 0
v -4.8 -39.6 0
v -6.4 -40.4 0
v -6.4 -39.6 0
v -8 -40.4 0
v -8 -39.6 0
v -9.6 -40.4 0
v -9.6 -39.6 0
v -11.2 -40.4 0
v -11.2 -39.6 0
v -12.8 -40.4 0
v -12.8 -39.6 0
v -14.4 -40.4 0
v -14.4 -39.6 0
v -16 -40.4 0
v -16 -39.6 0
v -17.6 -40.4 0
v -17.6 -39.6 0
v -19.2 -40.4 0
v -19.2 -39.6 0
v -20.8 -40.4 0
v -20.8 -39.6 0
v -22.4 -40.4 0
v -22.4 -39.6 0
v -24 -40.4 0
v -24 -39.6 0
v -25.6 -40.4 0
v -25.6 -39.6 0
v -27.2 -40.4 0
v -27.2 -39.6 0
v -28.8 -40.4 0
v -28.8 -39.6 0
v -30.4 -40.4 0
v -30.4 -39.6 0
v -32 -40.4 0
v -32 -39.6 0
v -33.6 -40.4 0
v -33.6 -39.6 0
v -35.2 -40.4 0
v -35.2 -39.6 0
v -36.8 -40.4 0
v -36.8 -39.6 0
v -9.2 -50.8 0
v -10.8 -50.8 0
v -10.8 -50 0
v -9.2 -50 0
v -12.4 -50.8 0
v -12.4 -50 0
v -14 -50.8 0
v -14 -50 0
v -15.6 -50.8 0
v -15.6 -50 0
v -17.2 -50.8 0
v -17.2 -50 0
v -18.8 -50.8 0
v -18.8 -50 0
v -20.4 -50.8 0
v -20.4 -50 0
v -22 -50.8 0
v -22 -50 0
v -23.6 -50.8 0
v -23.6 -50 0
v -25.2 -50.8 0
v -25.2 -50 0
v -26.8 -50.8 0
v -26.8 -50 0
v -28.4 -50.8 0
v -28.4 -50 0
v -30 -50.8 0
v -30 -50 0
v -31.6 -50.8 0
v -31.6 -50 0
v -20.8 -60.8 0
v -22.4 -60.8 0
v -22.4 -60 0
v -20.8 -60 0
v -24 -60.8 0
v -24 -60 0
v -25.6 -60.8 0
v -25.6 -60 0
v -27.2 -60.8 0
v -27.2 -60 0
v -28.8 -60.8 0
v -28.8 -60 0
v -30.4 -60.8 0
v -30.4 -60 0
v -32 -60.8 0
v -32 -60 0
v -33.6 -60.8 0
v -33.6 -60 0
v -35.2 -60.8 0
v -35.2 -60 0
v -36.8 -60.8 0
v -36.8 -60 0
v -38.4 -60.8 0
v -38.4 -60 0
v -8 -66.4 0
v -9.6 -66.4 0
v -9.6 -65.6 0
v -8 -65.6 0
v -11.2 -66.4 0
v -11.2 -65.6 0
v -12.8 -66.4 0
v -12.8 -65.6 0
v -14.4 -66.4 0
v -14.4 -65.6 0
v -16 -66.4 0
v -16 -65.6 0
v -17.6 -66.4 0
v -17.6 -65.6 0
v -19.2 -66.4 0
v -19.2 -65.6 0
v -20.8 -66.4 0
v -20.8 -65.6 0
v -22.4 -66.4 0
v -22.4 -65.6 0
v -24 -66.4 0
v -24 -65.6 0
v -25.6 -66.4 0
v -25.6 -65.6 0
v -27.2 -66.4 0
v -27.2 -65.6 0
v -28.8 -66.4 0
v -28.8 -65.6 0
v -30.4 -66.4 0
v -30.4 -65.6 0
v -32 -66.4 0
v -32 -65.6 0
v -33.6 -66.4 0
v -33.6 -65.6 0
v -35.2 -66.4 0
v -35.2 -65.6 0
v -36.8 -66.4 0
v -36.8 -65.6 0
v -38.4 -66.4 0
v -38.4 -65.6 0
v -1.6 -72 0
v -3.2 -72 0
v -3.2 -71.2 0
v -1.6 -71.2 0
v -4.8 -72 0
v -4.8 -71.2 0
v -6.4 -72 0
v -6.4 -71.2 0
v -8 -72 0
v -8 -71.2 0
v -9.6 -72 0
v -9.6 -71.2 0
v -11.2 -72 0
v -11.2 -71.2 0
v -12.8 -72 0
v -12.8 -71.2 0
v -14.4 -72 0
v -14.4 -71.2 0
v -16 -72 0
v -16 -71.2 0
v -17.6 -72 0
v -17.6 -71.2 0
v -19.2 -72 0
v -19.2 -71.2 0
v -20.8 -72 0
v -20.8 -71.2 0
v -22.4 -72 0
v -22.4 -71.2 0
v -24 -72 0
v -24 -71.2 0
v -25.6 -72 0
v -25.6 -71.2 0
v -27.2 -72 0
v -27.2 -71.2 0
v -28.8 -72 0
v -28.8 -71.2 0
v -30.4 -72 0
v -30.4 -71.2 0
v -32 -72 0
v -32 -71.2 0
v -33.6 -72 0
v -33.6 -71.2 0
v -35.2 -72 0
v -35.2 -71.2 0
v -36.8 -72 0
v -36.8 -71.2 0
v -38.4 -72 0
v -38.4 -71.2 0
v -40 -72 0
v -40 -71.2 0
v -41.6 -72 0
v -41.6 -71.2 0
v -43.2 -72 0
v -43.2 -71.2 0
v -5.2 -75.6 0
v -6.8 -75.6 0
v -6.8 -74.8 0
v -5.2 -74.8 0
v -8.400001 -75.6 0
v -8.400001 -74.8 0
v -10 -75.6 0
v -10 -74.8 0
v -11.6 -75.6 0
v -11.6 -74.8 0
v -13.2 -75.6 0
v -13.2 -74.8 0
v -14.8 -75.6 0
v -14.8 -74.8 0
v -16.4 -75.6 0
v -16.4 -74.8 0
v -18 -75.6 0
v -18 -74.8 0
v -19.6 -75.6 0
v -19.6 -74.8 0
v -21.2 -75.6 0
v -21.2 -74.8 0
v -22.8 -75.6 0
v -22.8 -74.8 0
v -24.4 -75.6 0
v -26 -75.6 0
v -26 -74.8 0
v -25.6 -75.6 0
v -27.2 -75.6 0
v -27.2 -74.8 0
v -25.6 -74.8 0
v -28.8 -75.6 0
v -28.8 -74.8 0
v -30.4 -75.6 0
v -30.4 -74.8 0
v -32 -75.6 0
v -32 -74.8 0
v -33.6 -75.6 0
v -33.6 -74.8 0
v -35.2 -75.6 0
v -35.2 -74.8 0
v -36.8 -75.6 0
v -36.8 -74.8 0
v -38.4 -75.6 0
v -38.4 -74.8 0
v -40 -75.6 0
v -40 -74.8 0
v -41.6 -75.6 0
v -41.6 -74.8 0
v -43.2 -75.6 0
v -43.2 -74.8 0
v -1.6 -79.2 0
v -3.2 -79.2 0
v -3.2 -78.4 0
v -1.6 -78.4 0
v -4.8 -79.2 0
v -4.8 -78.4 0
v -6.4 -79.2 0
v -6.4 -78.4 0
v -8 -79.2 0
v -8 -78.4 0
v -9.6 -79.2 0
v -9.6 -78.4 0
v -11.2 -79.2 0
v -11.2 -78.4 0
v -12.8 -79.2 0
v -12.8 -78.4 0
v -14.4 -79.2 0
v -14.4 -78.4 0
v -16 -79.2 0
v -16 -78.4 0
v -17.6 -79.2 0
v -17.6 -78.4 0
v -19.2 -79.2 0
v -19.2 -78.4 0
v -20.8 -79.2 0
v -20.8 -78.4 0
v -2 -82.8 0
v -3.6 -82.8 0
v -3.6 -82 0
v -2 -82 0
v -5.2 -82.8 0
v -5.2 -82 0
v -6.8 -82.8 0
v -6.8 -82 0
v -8.400001 -82.8 0
v -8.400001 -82 0
v -10 -82.8 0
v -10 -82 0
v -11.6 -82.8 0
v -11.6 -82 0
v -13.2 -82.8 0
v -13.2 -82 0
v -14.8 -82.8 0
v -14.8 -82 0
v -16.4 -82.8 0
v -16.4 -82 0
v -18 -82.8 0
v -18 -82 0
v -19.6 -82.8 0
v -19.6 -82 0
v -21.2 -82.8 0
v -21.2 -82 0
v -22.8 -82.8 0
v -22.8 -82 0
v -24.4 -82 0
v -26.8 -82.8 0
v -26.8 -82 0
v -25.2 -82 0
v -28.4 -82.8 0
v -28.4 -82 0
v -30 -82.8 0
v -30 -82 0
v -31.6 -82.8 0
v -31.6 -82 0
v -33.2 -82.8 0
v -33.2 -82 0
v -34.8 -82.8 0
v -34.8 -82 0
v -22.4 -88.8 0
v -24 -88.8 0
v -24 -88 0
v -25.6 -88.8 0
v -25.6 -88 0
v -27.2 -88.8 0
v -27.2 -88 0
v -28.8 -88.8 0
v -28.8 -88 0
v -30.4 -88.8 0
v -30.4 -88 0
v -32 -88.8 0
v -32 -88 0
v -33.6 -88.8 0
v -33.6 -88 0
v -35.2 -88.8 0
v -35.2 -88 0
v -36.8 -88.8 0
v -36.8 -88 0
v -38.4 -88.8 0
v -38.4 -88 0
v -40 -88.8 0
v -40 -88 0
v -41.6 -88.8 0
v -41.6 -88 0
v -43.2 -88.8 0
v -43.2 -88 0
v -8.400001 -91.2 0
v -10 -91.2 0
v -10 -90.4 0
v -8.400001 -90.4 0
v -11.6 -91.2 0
v -11.6 -90.4 0
v -13.2 -91.2 0
v -13.2 -90.4 0
v -14.8 -91.2 0
v -14.8 -90.4 0
v -8.400001 -98 0
v -10 -98 0
v -10 -97.2 0
v -8.400001 -97.2 0
v -11.6 -98 0
v -11.6 -97.2 0
v -13.2 -98 0
v -13.2 -97.2 0
v -14.8 -98 0
v -14.8 -97.2 0
v -23.6 -98 0
v -25.2 -98 0
v -25.2 -97.2 0
v -23.6 -97.2 0
v -26.8 -98 0
v -26.8 -97.2 0
v -28.4 -98 0
v -28.4 -97.2 0
v -30 -98 0
v -30 -97.2 0
v -24 -108 0
v -25.6 -108 0
v -25.6 -107.2 0
v -24 -107.2 0
v -27.2 -108 0
v -27.2 -107.2 0
v -28.8 -108 0
v -28.8 -107.2 0
v -30.4 -108 0
v -30.4 -107.2 0
v -32 -108 0
v -32 -107.2 0
v -33.6 -108 0
v -33.6 -107.2 0
v -35.2 -108 0
v -35.2 -107.2 0
v -36.8 -108 0
v -36.8 -107.2 0
v -38.4 -108 0
v -38.4 -107.2 0
v -40 -108 0
v -40 -107.2 0
v -41.6 -108 0
v -41.6 -107.2 0
v -43.2 -108 0
v -43.2 -107.2 0
v -1.6 -114 0
v -3.2 -114 0
v -3.2 -113.2 0
v -1.6 -113.2 0
v -4.8 -114 0
v -4.8 -113.2 0
v -6.4 -114 0
v -6.4 -113.2 0
v -8 -114 0
v -8 -113.2 0
v -9.6 -114 0
v -9.6 -113.2 0
v -11.2 -114 0
v -11.2 -113.2 0
v -17.6 -115.6 0
v -19.2 -115.6 0
v -19.2 -114.8 0
v -17.6 -114.8 0
v -20.8 -115.6 0
v -20.8 -114.8 0
v -22.4 -115.6 0
v -22.4 -114.8 0
v -24 -115.6 0
v -24 -114.8 0
v -30.4 -117.6 0
v -32 -117.6 0
v -32 -116.8 0
v -30.4 -116.8 0
v -33.6 -117.6 0
v -33.6 -116.8 0
v -35.2 -117.6 0
v -35.2 -116.8 0
v -36.8 -117.6 0
v -36.8 -116.8 0
v -27.2 -123.2 0
v -28.8 -123.2 0
v -28.8 -122.4 0
v -27.2 -122.4 0
v -30.4 -123.2 0
v -30.4 -122.4 0
v -32 -123.2 0
v -32 -122.4 0
v -33.6 -123.2 0
v -33.6 -122.4 0
v -35.2 -123.2 0
v -35.2 -122.4 0
v -36.8 -123.2 0
v -36.8 -122.4 0
v -38.4 -123.2 0
v -38.4 -122.4 0
v -40 -123.2 0
v -40 -122.4 0
v -41.6 -123.2 0
v -41.6 -122.4 0
v -43.2 -123.2 0
v -43.2 -122.4 0

# Texture cooridinates (Count = 8)
vt 0.06678874 0.9584554
vt 0.1332113 0.9584554
vt 0.1332113 0.9998779
vt 0.06678874 0.9998779
vt 0.09987793 0.9584554
vt 0.09987793 0.9998779
vt 0.06678874 0.9792888
vt 0.1332113 0.9792888

# Normal
vn 0 0 -1

# Groups (Count = 1)

g mesh_0001
f 1/1/1 2/2/1 3/3/1 4/4/1
f 2/1/1 5/2/1 6/3/1 3/4/1
f 5/1/1 7/2/1 8/3/1 6/4/1
f 7/1/1 9/2/1 10/3/1 8/4/1
f 9/1/1 11/2/1 12/3/1 10/4/1
f 11/1/1 13/2/1 14/3/1 12/4/1
f 13/1/1 15/2/1 16/3/1 14/4/1
f 15/1/1 17/2/1 18/3/1 16/4/1
f 17/1/1 19/2/1 20/3/1 18/4/1
f 19/1/1 21/2/1 22/3/1 20/4/1
f 21/1/1 23/2/1 24/3/1 22/4/1
f 23/1/1 25/2/1 26/3/1 24/4/1
f 25/1/1 27/2/1 28/3/1 26/4/1
f 27/1/1 29/2/1 30/3/1 28/4/1
f 29/1/1 31/2/1 32/3/1 30/4/1
f 31/1/1 33/2/1 34/3/1 32/4/1
f 33/1/1 35/2/1 36/3/1 34/4/1
f 35/1/1 37/2/1 38/3/1 36/4/1
f 37/1/1 39/2/1 40/3/1 38/4/1
f 39/1/1 41/2/1 42/3/1 40/4/1
f 41/1/1 43/2/1 44/3/1 42/4/1
f 43/1/1 45/2/1 46/3/1 44/4/1
f 45/1/1 47/2/1 48/3/1 46/4/1
f 47/1/1 49/2/1 50/3/1 48/4/1
f 49/1/1 51/2/1 52/3/1 50/4/1
f 51/1/1 53/2/1 54/3/1 52/4/1
f 55/1/1 56/2/1 57/3/1 58/4/1
f 56/1/1 59/2/1 60/3/1 57/4/1
f 59/1/1 61/2/1 62/3/1 60/4/1
f 61/1/1 63/2/1 64/3/1 62/4/1
f 63/1/1 65/2/1 66/3/1 64/4/1
f 65/1/1 67/2/1 68/3/1 66/4/1
f 67/1/1 69/2/1 70/3/1 68/4/1
f 69/1/1 71/2/1 72/3/1 70/4/1
f 71/1/1 73/2/1 74/3/1 72/4/1
f 73/1/1 75/2/1 76/3/1 74/4/1
f 75/1/1 77/2/1 78/3/1 76/4/1
f 77/1/1 79/2/1 80/3/1 78/4/1
f 79/1/1 81/2/1 82/3/1 80/4/1
f 81/1/1 83/2/1 84/3/1 82/4/1
f 83/1/1 85/2/1 86/3/1 84/4/1
f 85/1/1 87/2/1 88/3/1 86/4/1
f 87/1/1 89/2/1 90/3/1 88/4/1
f 89/1/1 91/2/1 92/3/1 90/4/1
f 91/1/1 93/2/1 94/3/1 92/4/1
f 93/1/1 95/2/1 96/3/1 94/4/1
f 95/1/1 97/2/1 98/3/1 96/4/1
f 97/1/1 99/2/1 100/3/1 98/4/1
f 99/1/1 101/2/1 102/3/1 100/4/1
f 101/1/1 103/2/1 104/3/1 102/4/1
f 103/1/1 105/2/1 106/3/1 104/4/1
f 105/1/1 107/2/1 108/3/1 106/4/1

g mesh_0002
f 109/1/1 110/5/1 111/6/1 112/4/1
f 113/1/1 114/5/1 110/6/1 109/4/1
f 115/1/1 116/5/1 117/6/1 118/4/1
f 119/1/1 120/5/1 116/6/1 115/4/1
f 121/1/1 122/5/1 120/6/1 119/4/1
f 123/1/1 124/5/1 122/6/1 121/4/1
f 125/1/1 126/5/1 127/6/1 128/4/1
f 129/1/1 130/5/1 131/6/1 132/4/1
f 133/1/1 134/5/1 126/6/1 125/4/1
f 135/1/1 136/5/1 137/6/1 138/4/1
f 139/1/1 140/5/1 130/6/1 129/4/1
f 141/1/1 142/5/1 136/6/1 135/4/1
f 143/1/1 144/5/1 145/6/1 146/4/1
f 147/1/1 148/5/1 144/6/1 143/4/1
f 149/1/1 150/5/1 148/6/1 147/4/1
f 151/1/1 152/5/1 150/6/1 149/4/1
f 153/1/1 154/5/1 152/6/1 151/4/1
f 155/1/1 156/5/1 157/6/1 158/4/1
f 159/1/1 160/5/1 161/6/1 162/4/1
f 163/1/1 164/5/1 165/6/1 166/4/1
f 167/1/1 168/5/1 164/6/1 163/4/1
f 169/1/1 170/5/1 168/6/1 167/4/1
f 171/1/1 172/5/1 173/6/1 174/4/1
f 175/1/1 176/5/1 172/6/1 171/4/1
f 177/1/1 178/5/1 176/6/1 175/4/1
f 179/1/1 180/5/1 178/6/1 177/4/1

g mesh_0003
f 181/7/1 182/8/1 183/3/1 184/4/1
f 182/7/1 185/8/1 186/3/1 183/4/1
f 185/7/1 187/8/1 188/3/1 186/4/1
f 187/7/1 189/8/1 114/3/1 188/4/1
f 190/7/1 191/8/1 192/3/1 193/4/1
f 191/7/1 194/8/1 195/3/1 192/4/1
f 194/7/1 196/8/1 197/3/1 195/4/1
f 196/7/1 198/8/1 199/3/1 197/4/1
f 198/7/1 200/8/1 201/3/1 199/4/1
f 200/7/1 202/8/1 203/3/1 201/4/1
f 202/7/1 204/8/1 205/3/1 203/4/1
f 204/7/1 206/8/1 207/3/1 205/4/1
f 206/7/1 208/8/1 209/3/1 207/4/1
f 208/7/1 210/8/1 211/3/1 209/4/1
f 210/7/1 212/8/1 213/3/1 211/4/1
f 212/7/1 214/8/1 215/3/1 213/4/1
f 214/7/1 216/8/1 217/3/1 215/4/1
f 216/7/1 218/8/1 219/3/1 217/4/1
f 218/7/1 220/8/1 221/3/1 219/4/1
f 220/7/1 222/8/1 223/3/1 221/4/1
f 222/7/1 224/8/1 225/3/1 223/4/1
f 224/7/1 226/8/1 227/3/1 225/4/1
f 226/7/1 228/8/1 229/3/1 227/4/1
f 228/7/1 230/8/1 231/3/1 229/4/1
f 230/7/1 232/8/1 233/3/1 231/4/1
f 232/7/1 234/8/1 235/3/1 233/4/1
f 236/7/1 237/8/1 238/3/1 239/4/1
f 237/7/1 240/8/1 241/3/1 238/4/1
f 240/7/1 242/8/1 243/3/1 241/4/1
f 242/7/1 244/8/1 245/3/1 243/4/1
f 244/7/1 246/8/1 247/3/1 245/4/1
f 246/7/1 248/8/1 249/3/1 247/4/1
f 248/7/1 250/8/1 251/3/1 249/4/1
f 250/7/1 252/8/1 253/3/1 251/4/1
f 252/7/1 254/8/1 255/3/1 253/4/1
f 254/7/1 256/8/1 257/3/1 255/4/1
f 256/7/1 258/8/1 259/3/1 257/4/1
f 258/7/1 260/8/1 261/3/1 259/4/1
f 260/7/1 262/8/1 263/3/1 261/4/1
f 262/7/1 264/8/1 265/3/1 263/4/1
f 266/7/1 267/8/1 268/3/1 269/4/1
f 267/7/1 270/8/1 271/3/1 268/4/1
f 270/7/1 272/8/1 273/3/1 271/4/1
f 272/7/1 274/8/1 275/3/1 273/4/1
f 274/7/1 276/8/1 277/3/1 275/4/1
f 276/7/1 278/8/1 279/3/1 277/4/1
f 278/7/1 280/8/1 281/3/1 279/4/1
f 280/7/1 282/8/1 283/3/1 281/4/1
f 282/7/1 284/8/1 285/3/1 283/4/1
f 284/7/1 286/8/1 287/3/1 285/4/1
f 286/7/1 288/8/1 289/3/1 287/4/1
f 290/7/1 291/8/1 292/3/1 293/4/1
f 291/7/1 294/8/1 295/3/1 292/4/1
f 294/7/1 296/8/1 297/3/1 295/4/1
f 296/7/1 298/8/1 299/3/1 297/4/1
f 298/7/1 300/8/1 301/3/1 299/4/1
f 300/7/1 302/8/1 303/3/1 301/4/1
f 302/7/1 304/8/1 305/3/1 303/4/1
f 304/7/1 306/8/1 307/3/1 305/4/1
f 306/7/1 308/8/1 309/3/1 307/4/1
f 308/7/1 310/8/1 311/3/1 309/4/1
f 310/7/1 312/8/1 313/3/1 311/4/1
f 312/7/1 314/8/1 315/3/1 313/4/1
f 314/7/1 316/8/1 317/3/1 315/4/1
f 316/7/1 318/8/1 319/3/1 317/4/1
f 318/7/1 320/8/1 321/3/1 319/4/1
f 320/7/1 322/8/1 323/3/1 321/4/1
f 322/7/1 324/8/1 325/3/1 323/4/1
f 324/7/1 326/8/1 327/3/1 325/4/1
f 326/7/1 328/8/1 329/3/1 327/4/1
f 330/7/1 331/8/1 332/3/1 333/4/1
f 331/7/1 334/8/1 335/3/1 332/4/1
f 334/7/1 336/8/1 337/3/1 335/4/1
f 336/7/1 338/8/1 339/3/1 337/4/1
f 338/7/1 340/8/1 341/3/1 339/4/1
f 340/7/1 342/8/1 343/3/1 341/4/1
f 342/7/1 344/8/1 345/3/1 343/4/1
f 344/7/1 346/8/1 347/3/1 345/4/1
f 346/7/1 348/8/1 349/3/1 347/4/1
f 348/7/1 350/8/1 351/3/1 349/4/1
f 350/7/1 352/8/1 353/3/1 351/4/1
f 352/7/1 354/8/1 355/3/1 353/4/1
f 354/7/1 356/8/1 357/3/1 355/4/1
f 356/7/1 358/8/1 359/3/1 357/4/1
f 358/7/1 360/8/1 361/3/1 359/4/1
f 360/7/1 362/8/1 363/3/1 361/4/1
f 362/7/1 364/8/1 365/3/1 363/4/1
f 364/7/1 366/8/1 367/3/1 365/4/1
f 366/7/1 368/8/1 369/3/1 367/4/1
f 368/7/1 370/8/1 371/3/1 369/4/1
f 370/7/1 372/8/1 373/3/1 371/4/1
f 372/7/1 374/8/1 375/3/1 373/4/1
f 374/7/1 376/8/1 377/3/1 375/4/1
f 376/7/1 378/8/1 379/3/1 377/4/1
f 378/7/1 380/8/1 381/3/1 379/4/1
f 380/7/1 382/8/1 383/3/1 381/4/1
f 384/7/1 385/8/1 386/3/1 387/4/1
f 385/7/1 388/8/1 389/3/1 386/4/1
f 388/7/1 390/8/1 391/3/1 389/4/1
f 390/7/1 392/8/1 393/3/1 391/4/1
f 392/7/1 394/8/1 395/3/1 393/4/1
f 394/7/1 396/8/1 397/3/1 395/4/1
f 396/7/1 398/8/1 399/3/1 397/4/1
f 398/7/1 400/8/1 401/3/1 399/4/1
f 400/7/1 402/8/1 403/3/1 401/4/1
f 402/7/1 404/8/1 405/3/1 403/4/1
f 404/7/1 406/8/1 407/3/1 405/4/1
f 406/7/1 408/8/1 146/3/1 407/4/1
f 408/7/1 409/8/1 410/3/1 146/4/1
f 411/7/1 412/8/1 413/3/1 414/4/1
f 412/7/1 415/8/1 416/3/1 413/4/1
f 415/7/1 417/8/1 418/3/1 416/4/1
f 417/7/1 419/8/1 420/3/1 418/4/1
f 419/7/1 421/8/1 422/3/1 420/4/1
f 421/7/1 423/8/1 424/3/1 422/4/1
f 423/7/1 425/8/1 426/3/1 424/4/1
f 425/7/1 427/8/1 428/3/1 426/4/1
f 427/7/1 429/8/1 430/3/1 428/4/1
f 429/7/1 431/8/1 432/3/1 430/4/1
f 431/7/1 433/8/1 434/3/1 432/4/1
f 435/7/1 436/8/1 437/3/1 438/4/1
f 436/7/1 439/8/1 440/3/1 437/4/1
f 439/7/1 441/8/1 442/3/1 440/4/1
f 441/7/1 443/8/1 444/3/1 442/4/1
f 443/7/1 445/8/1 446/3/1 444/4/1
f 445/7/1 447/8/1 448/3/1 446/4/1
f 447/7/1 449/8/1 450/3/1 448/4/1
f 449/7/1 451/8/1 452/3/1 450/4/1
f 451/7/1 453/8/1 454/3/1 452/4/1
f 453/7/1 455/8/1 456/3/1 454/4/1
f 455/7/1 457/8/1 458/3/1 456/4/1
f 457/7/1 459/8/1 460/3/1 458/4/1
f 461/7/1 462/8/1 463/3/1 464/4/1
f 462/7/1 465/8/1 466/3/1 463/4/1
f 465/7/1 467/8/1 468/3/1 466/4/1
f 467/7/1 469/8/1 470/3/1 468/4/1
f 469/7/1 471/8/1 472/3/1 470/4/1
f 471/7/1 473/8/1 474/3/1 472/4/1
f 473/7/1 475/8/1 476/3/1 474/4/1
f 475/7/1 477/8/1 478/3/1 476/4/1
f 477/7/1 479/8/1 480/3/1 478/4/1
f 479/7/1 481/8/1 482/3/1 480/4/1
f 481/7/1 483/8/1 484/3/1 482/4/1
f 483/7/1 485/8/1 486/3/1 484/4/1
f 485/7/1 487/8/1 488/3/1 486/4/1
f 487/7/1 153/8/1 489/3/1 488/4/1
f 154/7/1 490/8/1 491/3/1 492/4/1
f 490/7/1 493/8/1 494/3/1 491/4/1
f 493/7/1 495/8/1 496/3/1 494/4/1
f 495/7/1 497/8/1 498/3/1 496/4/1
f 497/7/1 499/8/1 500/3/1 498/4/1
f 499/7/1 501/8/1 502/3/1 500/4/1
f 503/7/1 504/8/1 505/3/1 159/4/1
f 504/7/1 506/8/1 507/3/1 505/4/1
f 506/7/1 508/8/1 509/3/1 507/4/1
f 508/7/1 510/8/1 511/3/1 509/4/1
f 510/7/1 512/8/1 513/3/1 511/4/1
f 512/7/1 514/8/1 515/3/1 513/4/1
f 514/7/1 516/8/1 517/3/1 515/4/1
f 516/7/1 518/8/1 519/3/1 517/4/1
f 518/7/1 520/8/1 521/3/1 519/4/1
f 520/7/1 522/8/1 523/3/1 521/4/1
f 522/7/1 524/8/1 525/3/1 523/4/1
f 524/7/1 526/8/1 527/3/1 525/4/1
f 526/7/1 528/8/1 529/3/1 527/4/1
f 530/7/1 531/8/1 532/3/1 533/4/1
f 531/7/1 534/8/1 535/3/1 532/4/1
f 534/7/1 536/8/1 537/3/1 535/4/1
f 536/7/1 538/8/1 539/3/1 537/4/1
f 540/7/1 541/8/1 542/3/1 543/4/1
f 541/7/1 544/8/1 545/3/1 542/4/1
f 544/7/1 546/8/1 547/3/1 545/4/1
f 546/7/1 548/8/1 549/3/1 547/4/1
f 550/7/1 551/8/1 552/3/1 553/4/1
f 551/7/1 554/8/1 555/3/1 552/4/1
f 554/7/1 556/8/1 557/3/1 555/4/1
f 556/7/1 558/8/1 559/3/1 557/4/1
f 560/7/1 561/8/1 562/3/1 563/4/1
f 561/7/1 564/8/1 565/3/1 562/4/1
f 564/7/1 566/8/1 567/3/1 565/4/1
f 566/7/1 568/8/1 569/3/1 567/4/1
f 568/7/1 570/8/1 571/3/1 569/4/1
f 570/7/1 572/8/1 573/3/1 571/4/1
f 572/7/1 574/8/1 575/3/1 573/4/1
f 574/7/1 576/8/1 577/3/1 575/4/1
f 576/7/1 578/8/1 579/3/1 577/4/1
f 578/7/1 580/8/1 581/3/1 579/4/1
f 580/7/1 582/8/1 583/3/1 581/4/1
f 582/7/1 584/8/1 585/3/1 583/4/1
f 586/7/1 587/8/1 588/3/1 589/4/1
f 587/7/1 590/8/1 591/3/1 588/4/1
f 590/7/1 592/8/1 593/3/1 591/4/1
f 592/7/1 594/8/1 595/3/1 593/4/1
f 594/7/1 596/8/1 597/3/1 595/4/1
f 596/7/1 598/8/1 599/3/1 597/4/1
f 600/7/1 601/8/1 602/3/1 603/4/1
f 601/7/1 604/8/1 605/3/1 602/4/1
f 604/7/1 606/8/1 607/3/1 605/4/1
f 606/7/1 608/8/1 609/3/1 607/4/1
f 610/7/1 611/8/1 612/3/1 613/4/1
f 611/7/1 614/8/1 615/3/1 612/4/1
f 614/7/1 616/8/1 617/3/1 615/4/1
f 616/7/1 618/8/1 619/3/1 617/4/1
f 620/7/1 621/8/1 622/3/1 623/4/1
f 621/7/1 624/8/1 625/3/1 622/4/1
f 624/7/1 626/8/1 627/3/1 625/4/1
f 626/7/1 628/8/1 629/3/1 627/4/1
f 628/7/1 630/8/1 631/3/1 629/4/1
f 630/7/1 632/8/1 633/3/1 631/4/1
f 632/7/1 634/8/1 635/3/1 633/4/1
f 634/7/1 636/8/1 637/3/1 635/4/1
f 636/7/1 638/8/1 639/3/1 637/4/1
f 638/7/1 640/8/1 641/3/1 639/4/1

