# Wavefront OBJ file automatically generated by Tiled2Unity

# Vertices (Count = 340)
v 0 -1.6 0
v -1.6 -1.6 0
v -1.6 0 0
v 0 0 0
v -43.2 -1.6 0
v -44.8 -1.6 0
v -44.8 0 0
v -43.2 0 0
v 0 -3.2 0
v -1.6 -3.2 0
v -43.2 -3.2 0
v -44.8 -3.2 0
v 0 -4.8 0
v -1.6 -4.8 0
v -43.2 -4.8 0
v -44.8 -4.8 0
v 0 -6.4 0
v -1.6 -6.4 0
v -43.2 -6.4 0
v -44.8 -6.4 0
v 0 -8 0
v -1.6 -8 0
v -43.2 -8 0
v -44.8 -8 0
v 0 -9.6 0
v -1.6 -9.6 0
v -43.2 -9.6 0
v -44.8 -9.6 0
v 0 -11.2 0
v -1.6 -11.2 0
v -43.2 -11.2 0
v -44.8 -11.2 0
v 0 -12.8 0
v -1.6 -12.8 0
v -43.2 -12.8 0
v -44.8 -12.8 0
v 0 -14.4 0
v -1.6 -14.4 0
v -43.2 -14.4 0
v -44.8 -14.4 0
v 0 -16 0
v -1.6 -16 0
v -43.2 -16 0
v -44.8 -16 0
v 0 -17.6 0
v -1.6 -17.6 0
v -43.2 -17.6 0
v -44.8 -17.6 0
v 0 -19.2 0
v -1.6 -19.2 0
v -43.2 -19.2 0
v -44.8 -19.2 0
v 0 -20.8 0
v -1.6 -20.8 0
v -43.2 -20.8 0
v -44.8 -20.8 0
v 0 -22.4 0
v -1.6 -22.4 0
v -43.2 -22.4 0
v -44.8 -22.4 0
v 0 -24 0
v -1.6 -24 0
v -43.2 -24 0
v -44.8 -24 0
v 0 -25.6 0
v -1.6 -25.6 0
v -43.2 -25.6 0
v -44.8 -25.6 0
v 0 -27.2 0
v -1.6 -27.2 0
v -43.2 -27.2 0
v -44.8 -27.2 0
v 0 -28.8 0
v -1.6 -28.8 0
v -43.2 -28.8 0
v -44.8 -28.8 0
v 0 -30.4 0
v -1.6 -30.4 0
v -43.2 -30.4 0
v -44.8 -30.4 0
v 0 -32 0
v -1.6 -32 0
v -43.2 -32 0
v -44.8 -32 0
v 0 -33.6 0
v -1.6 -33.6 0
v -43.2 -33.6 0
v -44.8 -33.6 0
v 0 -35.2 0
v -1.6 -35.2 0
v -43.2 -35.2 0
v -44.8 -35.2 0
v 0 -36.8 0
v -1.6 -36.8 0
v -43.2 -36.8 0
v -44.8 -36.8 0
v 0 -38.4 0
v -1.6 -38.4 0
v -43.2 -38.4 0
v -44.8 -38.4 0
v 0 -40 0
v -1.6 -40 0
v -43.2 -40 0
v -44.8 -40 0
v 0 -41.6 0
v -1.6 -41.6 0
v -43.2 -41.6 0
v -44.8 -41.6 0
v 0 -43.2 0
v -1.6 -43.2 0
v -43.2 -43.2 0
v -44.8 -43.2 0
v 0 -44.8 0
v -1.6 -44.8 0
v -43.2 -44.8 0
v -44.8 -44.8 0
v 0 -46.4 0
v -1.6 -46.4 0
v -43.2 -46.4 0
v -44.8 -46.4 0
v 0 -48 0
v -1.6 -48 0
v -43.2 -48 0
v -44.8 -48 0
v 0 -49.6 0
v -1.6 -49.6 0
v -43.2 -49.6 0
v -44.8 -49.6 0
v 0 -51.2 0
v -1.6 -51.2 0
v -43.2 -51.2 0
v -44.8 -51.2 0
v 0 -52.8 0
v -1.6 -52.8 0
v -43.2 -52.8 0
v -44.8 -52.8 0
v 0 -54.4 0
v -1.6 -54.4 0
v -43.2 -54.4 0
v -44.8 -54.4 0
v 0 -56 0
v -1.6 -56 0
v -43.2 -56 0
v -44.8 -56 0
v 0 -57.6 0
v -1.6 -57.6 0
v -43.2 -57.6 0
v -44.8 -57.6 0
v 0 -59.2 0
v -1.6 -59.2 0
v -43.2 -59.2 0
v -44.8 -59.2 0
v 0 -60.8 0
v -1.6 -60.8 0
v -43.2 -60.8 0
v -44.8 -60.8 0
v 0 -62.4 0
v -1.6 -62.4 0
v -43.2 -62.4 0
v -44.8 -62.4 0
v 0 -64 0
v -1.6 -64 0
v -43.2 -64 0
v -44.8 -64 0
v 0 -65.6 0
v -1.6 -65.6 0
v -43.2 -65.6 0
v -44.8 -65.6 0
v 0 -67.2 0
v -1.6 -67.2 0
v -43.2 -67.2 0
v -44.8 -67.2 0
v 0 -68.8 0
v -1.6 -68.8 0
v -43.2 -68.8 0
v -44.8 -68.8 0
v 0 -70.4 0
v -1.6 -70.4 0
v -43.2 -70.4 0
v -44.8 -70.4 0
v 0 -72 0
v -1.6 -72 0
v -43.2 -72 0
v -44.8 -72 0
v 0 -73.6 0
v -1.6 -73.6 0
v -43.2 -73.6 0
v -44.8 -73.6 0
v 0 -75.2 0
v -1.6 -75.2 0
v -43.2 -75.2 0
v -44.8 -75.2 0
v 0 -76.8 0
v -1.6 -76.8 0
v -43.2 -76.8 0
v -44.8 -76.8 0
v 0 -78.4 0
v -1.6 -78.4 0
v -43.2 -78.4 0
v -44.8 -78.4 0
v 0 -80 0
v -1.6 -80 0
v -43.2 -80 0
v -44.8 -80 0
v 0 -81.6 0
v -1.6 -81.6 0
v -43.2 -81.6 0
v -44.8 -81.6 0
v 0 -83.2 0
v -1.6 -83.2 0
v -43.2 -83.2 0
v -44.8 -83.2 0
v 0 -84.8 0
v -1.6 -84.8 0
v -43.2 -84.8 0
v -44.8 -84.8 0
v 0 -86.4 0
v -1.6 -86.4 0
v -43.2 -86.4 0
v -44.8 -86.4 0
v 0 -88 0
v -1.6 -88 0
v -43.2 -88 0
v -44.8 -88 0
v 0 -89.6 0
v -1.6 -89.6 0
v -43.2 -89.6 0
v -44.8 -89.6 0
v 0 -91.2 0
v -1.6 -91.2 0
v -43.2 -91.2 0
v -44.8 -91.2 0
v 0 -92.8 0
v -1.6 -92.8 0
v -43.2 -92.8 0
v -44.8 -92.8 0
v 0 -94.4 0
v -1.6 -94.4 0
v -43.2 -94.4 0
v -44.8 -94.4 0
v 0 -96 0
v -1.6 -96 0
v -43.2 -96 0
v -44.8 -96 0
v 0 -97.6 0
v -1.6 -97.6 0
v -43.2 -97.6 0
v -44.8 -97.6 0
v 0 -99.2 0
v -1.6 -99.2 0
v -43.2 -99.2 0
v -44.8 -99.2 0
v 0 -100.8 0
v -1.6 -100.8 0
v -43.2 -100.8 0
v -44.8 -100.8 0
v 0 -102.4 0
v -1.6 -102.4 0
v -43.2 -102.4 0
v -44.8 -102.4 0
v 0 -104 0
v -1.6 -104 0
v -43.2 -104 0
v -44.8 -104 0
v 0 -105.6 0
v -1.6 -105.6 0
v -43.2 -105.6 0
v -44.8 -105.6 0
v 0 -107.2 0
v -1.6 -107.2 0
v -43.2 -107.2 0
v -44.8 -107.2 0
v 0 -108.8 0
v -1.6 -108.8 0
v -43.2 -108.8 0
v -44.8 -108.8 0
v 0 -110.4 0
v -1.6 -110.4 0
v -43.2 -110.4 0
v -44.8 -110.4 0
v 0 -112 0
v -1.6 -112 0
v -43.2 -112 0
v -44.8 -112 0
v 0 -113.6 0
v -1.6 -113.6 0
v -43.2 -113.6 0
v -44.8 -113.6 0
v 0 -115.2 0
v -1.6 -115.2 0
v -43.2 -115.2 0
v -44.8 -115.2 0
v 0 -116.8 0
v -1.6 -116.8 0
v -43.2 -116.8 0
v -44.8 -116.8 0
v 0 -118.4 0
v -1.6 -118.4 0
v -43.2 -118.4 0
v -44.8 -118.4 0
v 0 -120 0
v -1.6 -120 0
v -43.2 -120 0
v -44.8 -120 0
v 0 -121.6 0
v -1.6 -121.6 0
v -43.2 -121.6 0
v -44.8 -121.6 0
v 0 -123.2 0
v -1.6 -123.2 0
v -43.2 -123.2 0
v -44.8 -123.2 0
v 0 -124.8 0
v -1.6 -124.8 0
v -43.2 -124.8 0
v -44.8 -124.8 0
v 0 -126.4 0
v -1.6 -126.4 0
v -43.2 -126.4 0
v -44.8 -126.4 0
v 0 -128 0
v -1.6 -128 0
v -43.2 -128 0
v -44.8 -128 0
v 0 -129.6 0
v -1.6 -129.6 0
v -43.2 -129.6 0
v -44.8 -129.6 0
v 0 -131.2 0
v -1.6 -131.2 0
v -43.2 -131.2 0
v -44.8 -131.2 0
v 0 -132.8 0
v -1.6 -132.8 0
v -43.2 -132.8 0
v -44.8 -132.8 0
v 0 -134.4 0
v -1.6 -134.4 0
v -43.2 -134.4 0
v -44.8 -134.4 0

# Texture cooridinates (Count = 12)
vt 0.06678874 0.8751221
vt 0.1332113 0.8751221
vt 0.1332113 0.9165446
vt 0.06678874 0.9165446
vt 0.2001221 0.8751221
vt 0.2665446 0.8751221
vt 0.2665446 0.9165446
vt 0.2001221 0.9165446
vt 0.1334554 0.8751221
vt 0.1998779 0.8751221
vt 0.1998779 0.9165446
vt 0.1334554 0.9165446

# Normal
vn 0 0 -1

# Groups (Count = 1)

g mesh_0001
f 1/1/1 2/2/1 3/3/1 4/4/1
f 5/1/1 6/2/1 7/3/1 8/4/1
f 9/5/1 10/6/1 2/7/1 1/8/1
f 11/5/1 12/6/1 6/7/1 5/8/1
f 13/9/1 14/10/1 10/11/1 9/12/1
f 15/9/1 16/10/1 12/11/1 11/12/1
f 17/1/1 18/2/1 14/3/1 13/4/1
f 19/1/1 20/2/1 16/3/1 15/4/1
f 21/9/1 22/10/1 18/11/1 17/12/1
f 23/9/1 24/10/1 20/11/1 19/12/1
f 25/5/1 26/6/1 22/7/1 21/8/1
f 27/5/1 28/6/1 24/7/1 23/8/1
f 29/9/1 30/10/1 26/11/1 25/12/1
f 31/9/1 32/10/1 28/11/1 27/12/1
f 33/1/1 34/2/1 30/3/1 29/4/1
f 35/1/1 36/2/1 32/3/1 31/4/1
f 37/9/1 38/10/1 34/11/1 33/12/1
f 39/9/1 40/10/1 36/11/1 35/12/1
f 41/5/1 42/6/1 38/7/1 37/8/1
f 43/5/1 44/6/1 40/7/1 39/8/1
f 45/9/1 46/10/1 42/11/1 41/12/1
f 47/9/1 48/10/1 44/11/1 43/12/1
f 49/1/1 50/2/1 46/3/1 45/4/1
f 51/1/1 52/2/1 48/3/1 47/4/1
f 53/9/1 54/10/1 50/11/1 49/12/1
f 55/9/1 56/10/1 52/11/1 51/12/1
f 57/5/1 58/6/1 54/7/1 53/8/1
f 59/5/1 60/6/1 56/7/1 55/8/1
f 61/9/1 62/10/1 58/11/1 57/12/1
f 63/9/1 64/10/1 60/11/1 59/12/1
f 65/1/1 66/2/1 62/3/1 61/4/1
f 67/1/1 68/2/1 64/3/1 63/4/1
f 69/9/1 70/10/1 66/11/1 65/12/1
f 71/9/1 72/10/1 68/11/1 67/12/1
f 73/5/1 74/6/1 70/7/1 69/8/1
f 75/5/1 76/6/1 72/7/1 71/8/1
f 77/9/1 78/10/1 74/11/1 73/12/1
f 79/9/1 80/10/1 76/11/1 75/12/1
f 81/1/1 82/2/1 78/3/1 77/4/1
f 83/1/1 84/2/1 80/3/1 79/4/1
f 85/9/1 86/10/1 82/11/1 81/12/1
f 87/9/1 88/10/1 84/11/1 83/12/1
f 89/5/1 90/6/1 86/7/1 85/8/1
f 91/5/1 92/6/1 88/7/1 87/8/1
f 93/9/1 94/10/1 90/11/1 89/12/1
f 95/9/1 96/10/1 92/11/1 91/12/1
f 97/1/1 98/2/1 94/3/1 93/4/1
f 99/1/1 100/2/1 96/3/1 95/4/1
f 101/9/1 102/10/1 98/11/1 97/12/1
f 103/9/1 104/10/1 100/11/1 99/12/1
f 105/5/1 106/6/1 102/7/1 101/8/1
f 107/5/1 108/6/1 104/7/1 103/8/1
f 109/9/1 110/10/1 106/11/1 105/12/1
f 111/9/1 112/10/1 108/11/1 107/12/1
f 113/1/1 114/2/1 110/3/1 109/4/1
f 115/1/1 116/2/1 112/3/1 111/4/1
f 117/9/1 118/10/1 114/11/1 113/12/1
f 119/9/1 120/10/1 116/11/1 115/12/1
f 121/5/1 122/6/1 118/7/1 117/8/1
f 123/5/1 124/6/1 120/7/1 119/8/1
f 125/9/1 126/10/1 122/11/1 121/12/1
f 127/9/1 128/10/1 124/11/1 123/12/1
f 129/1/1 130/2/1 126/3/1 125/4/1
f 131/1/1 132/2/1 128/3/1 127/4/1
f 133/9/1 134/10/1 130/11/1 129/12/1
f 135/9/1 136/10/1 132/11/1 131/12/1
f 137/5/1 138/6/1 134/7/1 133/8/1
f 139/5/1 140/6/1 136/7/1 135/8/1
f 141/9/1 142/10/1 138/11/1 137/12/1
f 143/9/1 144/10/1 140/11/1 139/12/1
f 145/1/1 146/2/1 142/3/1 141/4/1
f 147/1/1 148/2/1 144/3/1 143/4/1
f 149/9/1 150/10/1 146/11/1 145/12/1
f 151/9/1 152/10/1 148/11/1 147/12/1
f 153/5/1 154/6/1 150/7/1 149/8/1
f 155/5/1 156/6/1 152/7/1 151/8/1
f 157/9/1 158/10/1 154/11/1 153/12/1
f 159/9/1 160/10/1 156/11/1 155/12/1
f 161/1/1 162/2/1 158/3/1 157/4/1
f 163/1/1 164/2/1 160/3/1 159/4/1
f 165/9/1 166/10/1 162/11/1 161/12/1
f 167/9/1 168/10/1 164/11/1 163/12/1
f 169/5/1 170/6/1 166/7/1 165/8/1
f 171/5/1 172/6/1 168/7/1 167/8/1
f 173/9/1 174/10/1 170/11/1 169/12/1
f 175/9/1 176/10/1 172/11/1 171/12/1
f 177/1/1 178/2/1 174/3/1 173/4/1
f 179/1/1 180/2/1 176/3/1 175/4/1
f 181/9/1 182/10/1 178/11/1 177/12/1
f 183/9/1 184/10/1 180/11/1 179/12/1
f 185/5/1 186/6/1 182/7/1 181/8/1
f 187/5/1 188/6/1 184/7/1 183/8/1
f 189/9/1 190/10/1 186/11/1 185/12/1
f 191/9/1 192/10/1 188/11/1 187/12/1
f 193/1/1 194/2/1 190/3/1 189/4/1
f 195/1/1 196/2/1 192/3/1 191/4/1
f 197/9/1 198/10/1 194/11/1 193/12/1
f 199/9/1 200/10/1 196/11/1 195/12/1
f 201/5/1 202/6/1 198/7/1 197/8/1
f 203/5/1 204/6/1 200/7/1 199/8/1
f 205/9/1 206/10/1 202/11/1 201/12/1
f 207/9/1 208/10/1 204/11/1 203/12/1
f 209/1/1 210/2/1 206/3/1 205/4/1
f 211/1/1 212/2/1 208/3/1 207/4/1
f 213/9/1 214/10/1 210/11/1 209/12/1
f 215/9/1 216/10/1 212/11/1 211/12/1
f 217/5/1 218/6/1 214/7/1 213/8/1
f 219/5/1 220/6/1 216/7/1 215/8/1
f 221/9/1 222/10/1 218/11/1 217/12/1
f 223/9/1 224/10/1 220/11/1 219/12/1
f 225/1/1 226/2/1 222/3/1 221/4/1
f 227/1/1 228/2/1 224/3/1 223/4/1
f 229/9/1 230/10/1 226/11/1 225/12/1
f 231/9/1 232/10/1 228/11/1 227/12/1
f 233/5/1 234/6/1 230/7/1 229/8/1
f 235/5/1 236/6/1 232/7/1 231/8/1
f 237/9/1 238/10/1 234/11/1 233/12/1
f 239/9/1 240/10/1 236/11/1 235/12/1
f 241/1/1 242/2/1 238/3/1 237/4/1
f 243/1/1 244/2/1 240/3/1 239/4/1
f 245/9/1 246/10/1 242/11/1 241/12/1
f 247/9/1 248/10/1 244/11/1 243/12/1
f 249/5/1 250/6/1 246/7/1 245/8/1
f 251/5/1 252/6/1 248/7/1 247/8/1
f 253/9/1 254/10/1 250/11/1 249/12/1
f 255/9/1 256/10/1 252/11/1 251/12/1
f 257/1/1 258/2/1 254/3/1 253/4/1
f 259/1/1 260/2/1 256/3/1 255/4/1
f 261/9/1 262/10/1 258/11/1 257/12/1
f 263/9/1 264/10/1 260/11/1 259/12/1
f 265/5/1 266/6/1 262/7/1 261/8/1
f 267/5/1 268/6/1 264/7/1 263/8/1
f 269/9/1 270/10/1 266/11/1 265/12/1
f 271/9/1 272/10/1 268/11/1 267/12/1
f 273/1/1 274/2/1 270/3/1 269/4/1
f 275/1/1 276/2/1 272/3/1 271/4/1
f 277/9/1 278/10/1 274/11/1 273/12/1
f 279/9/1 280/10/1 276/11/1 275/12/1
f 281/5/1 282/6/1 278/7/1 277/8/1
f 283/5/1 284/6/1 280/7/1 279/8/1
f 285/9/1 286/10/1 282/11/1 281/12/1
f 287/9/1 288/10/1 284/11/1 283/12/1
f 289/1/1 290/2/1 286/3/1 285/4/1
f 291/1/1 292/2/1 288/3/1 287/4/1
f 293/9/1 294/10/1 290/11/1 289/12/1
f 295/9/1 296/10/1 292/11/1 291/12/1
f 297/5/1 298/6/1 294/7/1 293/8/1
f 299/5/1 300/6/1 296/7/1 295/8/1
f 301/9/1 302/10/1 298/11/1 297/12/1
f 303/9/1 304/10/1 300/11/1 299/12/1
f 305/1/1 306/2/1 302/3/1 301/4/1
f 307/1/1 308/2/1 304/3/1 303/4/1
f 309/9/1 310/10/1 306/11/1 305/12/1
f 311/9/1 312/10/1 308/11/1 307/12/1
f 313/5/1 314/6/1 310/7/1 309/8/1
f 315/5/1 316/6/1 312/7/1 311/8/1
f 317/9/1 318/10/1 314/11/1 313/12/1
f 319/9/1 320/10/1 316/11/1 315/12/1
f 321/1/1 322/2/1 318/3/1 317/4/1
f 323/1/1 324/2/1 320/3/1 319/4/1
f 325/9/1 326/10/1 322/11/1 321/12/1
f 327/9/1 328/10/1 324/11/1 323/12/1
f 329/5/1 330/6/1 326/7/1 325/8/1
f 331/5/1 332/6/1 328/7/1 327/8/1
f 333/9/1 334/10/1 330/11/1 329/12/1
f 335/9/1 336/10/1 332/11/1 331/12/1
f 337/1/1 338/2/1 334/3/1 333/4/1
f 339/1/1 340/2/1 336/3/1 335/4/1

