# Wavefront OBJ file automatically generated by Tiled2Unity

# Vertices (Count = 340)
v 0 -1.6 0
v -1.6 -1.6 0
v -1.6 0 0
v 0 0 0
v -43.2 -1.6 0
v -44.8 -1.6 0
v -44.8 0 0
v -43.2 0 0
v 0 -3.2 0
v -1.6 -3.2 0
v -43.2 -3.2 0
v -44.8 -3.2 0
v 0 -4.8 0
v -1.6 -4.8 0
v -43.2 -4.8 0
v -44.8 -4.8 0
v 0 -6.4 0
v -1.6 -6.4 0
v -43.2 -6.4 0
v -44.8 -6.4 0
v 0 -8 0
v -1.6 -8 0
v -43.2 -8 0
v -44.8 -8 0
v 0 -9.6 0
v -1.6 -9.6 0
v -43.2 -9.6 0
v -44.8 -9.6 0
v 0 -11.2 0
v -1.6 -11.2 0
v -43.2 -11.2 0
v -44.8 -11.2 0
v 0 -12.8 0
v -1.6 -12.8 0
v -43.2 -12.8 0
v -44.8 -12.8 0
v 0 -14.4 0
v -1.6 -14.4 0
v -43.2 -14.4 0
v -44.8 -14.4 0
v 0 -16 0
v -1.6 -16 0
v -43.2 -16 0
v -44.8 -16 0
v 0 -17.6 0
v -1.6 -17.6 0
v -43.2 -17.6 0
v -44.8 -17.6 0
v 0 -19.2 0
v -1.6 -19.2 0
v -43.2 -19.2 0
v -44.8 -19.2 0
v 0 -20.8 0
v -1.6 -20.8 0
v -43.2 -20.8 0
v -44.8 -20.8 0
v 0 -22.4 0
v -1.6 -22.4 0
v -43.2 -22.4 0
v -44.8 -22.4 0
v 0 -24 0
v -1.6 -24 0
v -43.2 -24 0
v -44.8 -24 0
v 0 -25.6 0
v -1.6 -25.6 0
v -43.2 -25.6 0
v -44.8 -25.6 0
v 0 -27.2 0
v -1.6 -27.2 0
v -43.2 -27.2 0
v -44.8 -27.2 0
v 0 -28.8 0
v -1.6 -28.8 0
v -43.2 -28.8 0
v -44.8 -28.8 0
v 0 -30.4 0
v -1.6 -30.4 0
v -43.2 -30.4 0
v -44.8 -30.4 0
v 0 -32 0
v -1.6 -32 0
v -43.2 -32 0
v -44.8 -32 0
v 0 -33.6 0
v -1.6 -33.6 0
v -43.2 -33.6 0
v -44.8 -33.6 0
v 0 -35.2 0
v -1.6 -35.2 0
v -43.2 -35.2 0
v -44.8 -35.2 0
v 0 -36.8 0
v -1.6 -36.8 0
v -43.2 -36.8 0
v -44.8 -36.8 0
v 0 -38.4 0
v -1.6 -38.4 0
v -43.2 -38.4 0
v -44.8 -38.4 0
v 0 -40 0
v -1.6 -40 0
v -43.2 -40 0
v -44.8 -40 0
v 0 -41.6 0
v -1.6 -41.6 0
v -43.2 -41.6 0
v -44.8 -41.6 0
v 0 -43.2 0
v -1.6 -43.2 0
v -43.2 -43.2 0
v -44.8 -43.2 0
v 0 -44.8 0
v -1.6 -44.8 0
v -43.2 -44.8 0
v -44.8 -44.8 0
v 0 -46.4 0
v -1.6 -46.4 0
v -43.2 -46.4 0
v -44.8 -46.4 0
v 0 -48 0
v -1.6 -48 0
v -43.2 -48 0
v -44.8 -48 0
v 0 -49.6 0
v -1.6 -49.6 0
v -43.2 -49.6 0
v -44.8 -49.6 0
v 0 -51.2 0
v -1.6 -51.2 0
v -43.2 -51.2 0
v -44.8 -51.2 0
v 0 -52.8 0
v -1.6 -52.8 0
v -43.2 -52.8 0
v -44.8 -52.8 0
v 0 -54.4 0
v -1.6 -54.4 0
v -43.2 -54.4 0
v -44.8 -54.4 0
v 0 -56 0
v -1.6 -56 0
v -43.2 -56 0
v -44.8 -56 0
v 0 -57.6 0
v -1.6 -57.6 0
v -43.2 -57.6 0
v -44.8 -57.6 0
v 0 -59.2 0
v -1.6 -59.2 0
v -43.2 -59.2 0
v -44.8 -59.2 0
v 0 -60.8 0
v -1.6 -60.8 0
v -43.2 -60.8 0
v -44.8 -60.8 0
v 0 -62.4 0
v -1.6 -62.4 0
v -43.2 -62.4 0
v -44.8 -62.4 0
v 0 -64 0
v -1.6 -64 0
v -43.2 -64 0
v -44.8 -64 0
v 0 -65.6 0
v -1.6 -65.6 0
v -43.2 -65.6 0
v -44.8 -65.6 0
v 0 -67.2 0
v -1.6 -67.2 0
v -43.2 -67.2 0
v -44.8 -67.2 0
v 0 -68.8 0
v -1.6 -68.8 0
v -43.2 -68.8 0
v -44.8 -68.8 0
v 0 -70.4 0
v -1.6 -70.4 0
v -43.2 -70.4 0
v -44.8 -70.4 0
v 0 -72 0
v -1.6 -72 0
v -43.2 -72 0
v -44.8 -72 0
v 0 -73.6 0
v -1.6 -73.6 0
v -43.2 -73.6 0
v -44.8 -73.6 0
v 0 -75.2 0
v -1.6 -75.2 0
v -43.2 -75.2 0
v -44.8 -75.2 0
v 0 -76.8 0
v -1.6 -76.8 0
v -43.2 -76.8 0
v -44.8 -76.8 0
v 0 -78.4 0
v -1.6 -78.4 0
v -43.2 -78.4 0
v -44.8 -78.4 0
v 0 -80 0
v -1.6 -80 0
v -43.2 -80 0
v -44.8 -80 0
v 0 -81.6 0
v -1.6 -81.6 0
v -43.2 -81.6 0
v -44.8 -81.6 0
v 0 -83.2 0
v -1.6 -83.2 0
v -43.2 -83.2 0
v -44.8 -83.2 0
v 0 -84.8 0
v -1.6 -84.8 0
v -43.2 -84.8 0
v -44.8 -84.8 0
v 0 -86.4 0
v -1.6 -86.4 0
v -43.2 -86.4 0
v -44.8 -86.4 0
v 0 -88 0
v -1.6 -88 0
v -43.2 -88 0
v -44.8 -88 0
v 0 -89.6 0
v -1.6 -89.6 0
v -43.2 -89.6 0
v -44.8 -89.6 0
v 0 -91.2 0
v -1.6 -91.2 0
v -43.2 -91.2 0
v -44.8 -91.2 0
v 0 -92.8 0
v -1.6 -92.8 0
v -43.2 -92.8 0
v -44.8 -92.8 0
v 0 -94.4 0
v -1.6 -94.4 0
v -43.2 -94.4 0
v -44.8 -94.4 0
v 0 -96 0
v -1.6 -96 0
v -43.2 -96 0
v -44.8 -96 0
v 0 -97.6 0
v -1.6 -97.6 0
v -43.2 -97.6 0
v -44.8 -97.6 0
v 0 -99.2 0
v -1.6 -99.2 0
v -43.2 -99.2 0
v -44.8 -99.2 0
v 0 -100.8 0
v -1.6 -100.8 0
v -43.2 -100.8 0
v -44.8 -100.8 0
v 0 -102.4 0
v -1.6 -102.4 0
v -43.2 -102.4 0
v -44.8 -102.4 0
v 0 -104 0
v -1.6 -104 0
v -43.2 -104 0
v -44.8 -104 0
v 0 -105.6 0
v -1.6 -105.6 0
v -43.2 -105.6 0
v -44.8 -105.6 0
v 0 -107.2 0
v -1.6 -107.2 0
v -43.2 -107.2 0
v -44.8 -107.2 0
v 0 -108.8 0
v -1.6 -108.8 0
v -43.2 -108.8 0
v -44.8 -108.8 0
v 0 -110.4 0
v -1.6 -110.4 0
v -43.2 -110.4 0
v -44.8 -110.4 0
v 0 -112 0
v -1.6 -112 0
v -43.2 -112 0
v -44.8 -112 0
v 0 -113.6 0
v -1.6 -113.6 0
v -43.2 -113.6 0
v -44.8 -113.6 0
v 0 -115.2 0
v -1.6 -115.2 0
v -43.2 -115.2 0
v -44.8 -115.2 0
v 0 -116.8 0
v -1.6 -116.8 0
v -43.2 -116.8 0
v -44.8 -116.8 0
v 0 -118.4 0
v -1.6 -118.4 0
v -43.2 -118.4 0
v -44.8 -118.4 0
v 0 -120 0
v -1.6 -120 0
v -43.2 -120 0
v -44.8 -120 0
v 0 -121.6 0
v -1.6 -121.6 0
v -43.2 -121.6 0
v -44.8 -121.6 0
v 0 -123.2 0
v -1.6 -123.2 0
v -43.2 -123.2 0
v -44.8 -123.2 0
v 0 -124.8 0
v -1.6 -124.8 0
v -43.2 -124.8 0
v -44.8 -124.8 0
v 0 -126.4 0
v -1.6 -126.4 0
v -43.2 -126.4 0
v -44.8 -126.4 0
v 0 -128 0
v -1.6 -128 0
v -43.2 -128 0
v -44.8 -128 0
v 0 -129.6 0
v -1.6 -129.6 0
v -43.2 -129.6 0
v -44.8 -129.6 0
v 0 -131.2 0
v -1.6 -131.2 0
v -43.2 -131.2 0
v -44.8 -131.2 0
v 0 -132.8 0
v -1.6 -132.8 0
v -43.2 -132.8 0
v -44.8 -132.8 0
v 0 -134.4 0
v -1.6 -134.4 0
v -43.2 -134.4 0
v -44.8 -134.4 0

# Texture cooridinates (Count = 8)
vt 0.5001221 0.7501221
vt 0.7498779 0.7501221
vt 0.7498779 0.9998779
vt 0.5001221 0.9998779
vt 0.7501221 0.7501221
vt 0.9998779 0.7501221
vt 0.9998779 0.9998779
vt 0.7501221 0.9998779

# Normal
vn 0 0 -1

# Groups (Count = 1)

g mesh_0001
f 1/1/1 2/2/1 3/3/1 4/4/1
f 5/1/1 6/2/1 7/3/1 8/4/1
f 9/5/1 10/6/1 2/7/1 1/8/1
f 11/5/1 12/6/1 6/7/1 5/8/1
f 13/1/1 14/2/1 10/3/1 9/4/1
f 15/1/1 16/2/1 12/3/1 11/4/1
f 17/5/1 18/6/1 14/7/1 13/8/1
f 19/5/1 20/6/1 16/7/1 15/8/1
f 21/1/1 22/2/1 18/3/1 17/4/1
f 23/1/1 24/2/1 20/3/1 19/4/1
f 25/5/1 26/6/1 22/7/1 21/8/1
f 27/5/1 28/6/1 24/7/1 23/8/1
f 29/1/1 30/2/1 26/3/1 25/4/1
f 31/1/1 32/2/1 28/3/1 27/4/1
f 33/5/1 34/6/1 30/7/1 29/8/1
f 35/5/1 36/6/1 32/7/1 31/8/1
f 37/1/1 38/2/1 34/3/1 33/4/1
f 39/1/1 40/2/1 36/3/1 35/4/1
f 41/5/1 42/6/1 38/7/1 37/8/1
f 43/5/1 44/6/1 40/7/1 39/8/1
f 45/1/1 46/2/1 42/3/1 41/4/1
f 47/1/1 48/2/1 44/3/1 43/4/1
f 49/5/1 50/6/1 46/7/1 45/8/1
f 51/5/1 52/6/1 48/7/1 47/8/1
f 53/1/1 54/2/1 50/3/1 49/4/1
f 55/1/1 56/2/1 52/3/1 51/4/1
f 57/5/1 58/6/1 54/7/1 53/8/1
f 59/5/1 60/6/1 56/7/1 55/8/1
f 61/1/1 62/2/1 58/3/1 57/4/1
f 63/1/1 64/2/1 60/3/1 59/4/1
f 65/5/1 66/6/1 62/7/1 61/8/1
f 67/5/1 68/6/1 64/7/1 63/8/1
f 69/1/1 70/2/1 66/3/1 65/4/1
f 71/1/1 72/2/1 68/3/1 67/4/1
f 73/5/1 74/6/1 70/7/1 69/8/1
f 75/5/1 76/6/1 72/7/1 71/8/1
f 77/1/1 78/2/1 74/3/1 73/4/1
f 79/1/1 80/2/1 76/3/1 75/4/1
f 81/5/1 82/6/1 78/7/1 77/8/1
f 83/5/1 84/6/1 80/7/1 79/8/1
f 85/1/1 86/2/1 82/3/1 81/4/1
f 87/1/1 88/2/1 84/3/1 83/4/1
f 89/5/1 90/6/1 86/7/1 85/8/1
f 91/5/1 92/6/1 88/7/1 87/8/1
f 93/1/1 94/2/1 90/3/1 89/4/1
f 95/1/1 96/2/1 92/3/1 91/4/1
f 97/5/1 98/6/1 94/7/1 93/8/1
f 99/5/1 100/6/1 96/7/1 95/8/1
f 101/1/1 102/2/1 98/3/1 97/4/1
f 103/1/1 104/2/1 100/3/1 99/4/1
f 105/5/1 106/6/1 102/7/1 101/8/1
f 107/5/1 108/6/1 104/7/1 103/8/1
f 109/1/1 110/2/1 106/3/1 105/4/1
f 111/1/1 112/2/1 108/3/1 107/4/1
f 113/5/1 114/6/1 110/7/1 109/8/1
f 115/5/1 116/6/1 112/7/1 111/8/1
f 117/1/1 118/2/1 114/3/1 113/4/1
f 119/1/1 120/2/1 116/3/1 115/4/1
f 121/5/1 122/6/1 118/7/1 117/8/1
f 123/5/1 124/6/1 120/7/1 119/8/1
f 125/1/1 126/2/1 122/3/1 121/4/1
f 127/1/1 128/2/1 124/3/1 123/4/1
f 129/5/1 130/6/1 126/7/1 125/8/1
f 131/5/1 132/6/1 128/7/1 127/8/1
f 133/1/1 134/2/1 130/3/1 129/4/1
f 135/1/1 136/2/1 132/3/1 131/4/1
f 137/5/1 138/6/1 134/7/1 133/8/1
f 139/5/1 140/6/1 136/7/1 135/8/1
f 141/1/1 142/2/1 138/3/1 137/4/1
f 143/1/1 144/2/1 140/3/1 139/4/1
f 145/5/1 146/6/1 142/7/1 141/8/1
f 147/5/1 148/6/1 144/7/1 143/8/1
f 149/1/1 150/2/1 146/3/1 145/4/1
f 151/1/1 152/2/1 148/3/1 147/4/1
f 153/5/1 154/6/1 150/7/1 149/8/1
f 155/5/1 156/6/1 152/7/1 151/8/1
f 157/1/1 158/2/1 154/3/1 153/4/1
f 159/1/1 160/2/1 156/3/1 155/4/1
f 161/5/1 162/6/1 158/7/1 157/8/1
f 163/5/1 164/6/1 160/7/1 159/8/1
f 165/1/1 166/2/1 162/3/1 161/4/1
f 167/1/1 168/2/1 164/3/1 163/4/1
f 169/5/1 170/6/1 166/7/1 165/8/1
f 171/5/1 172/6/1 168/7/1 167/8/1
f 173/1/1 174/2/1 170/3/1 169/4/1
f 175/1/1 176/2/1 172/3/1 171/4/1
f 177/5/1 178/6/1 174/7/1 173/8/1
f 179/5/1 180/6/1 176/7/1 175/8/1
f 181/1/1 182/2/1 178/3/1 177/4/1
f 183/1/1 184/2/1 180/3/1 179/4/1
f 185/5/1 186/6/1 182/7/1 181/8/1
f 187/5/1 188/6/1 184/7/1 183/8/1
f 189/1/1 190/2/1 186/3/1 185/4/1
f 191/1/1 192/2/1 188/3/1 187/4/1
f 193/5/1 194/6/1 190/7/1 189/8/1
f 195/5/1 196/6/1 192/7/1 191/8/1
f 197/1/1 198/2/1 194/3/1 193/4/1
f 199/1/1 200/2/1 196/3/1 195/4/1
f 201/5/1 202/6/1 198/7/1 197/8/1
f 203/5/1 204/6/1 200/7/1 199/8/1
f 205/1/1 206/2/1 202/3/1 201/4/1
f 207/1/1 208/2/1 204/3/1 203/4/1
f 209/5/1 210/6/1 206/7/1 205/8/1
f 211/5/1 212/6/1 208/7/1 207/8/1
f 213/1/1 214/2/1 210/3/1 209/4/1
f 215/1/1 216/2/1 212/3/1 211/4/1
f 217/5/1 218/6/1 214/7/1 213/8/1
f 219/5/1 220/6/1 216/7/1 215/8/1
f 221/1/1 222/2/1 218/3/1 217/4/1
f 223/1/1 224/2/1 220/3/1 219/4/1
f 225/5/1 226/6/1 222/7/1 221/8/1
f 227/5/1 228/6/1 224/7/1 223/8/1
f 229/1/1 230/2/1 226/3/1 225/4/1
f 231/1/1 232/2/1 228/3/1 227/4/1
f 233/5/1 234/6/1 230/7/1 229/8/1
f 235/5/1 236/6/1 232/7/1 231/8/1
f 237/1/1 238/2/1 234/3/1 233/4/1
f 239/1/1 240/2/1 236/3/1 235/4/1
f 241/5/1 242/6/1 238/7/1 237/8/1
f 243/5/1 244/6/1 240/7/1 239/8/1
f 245/1/1 246/2/1 242/3/1 241/4/1
f 247/1/1 248/2/1 244/3/1 243/4/1
f 249/5/1 250/6/1 246/7/1 245/8/1
f 251/5/1 252/6/1 248/7/1 247/8/1
f 253/1/1 254/2/1 250/3/1 249/4/1
f 255/1/1 256/2/1 252/3/1 251/4/1
f 257/5/1 258/6/1 254/7/1 253/8/1
f 259/5/1 260/6/1 256/7/1 255/8/1
f 261/1/1 262/2/1 258/3/1 257/4/1
f 263/1/1 264/2/1 260/3/1 259/4/1
f 265/5/1 266/6/1 262/7/1 261/8/1
f 267/5/1 268/6/1 264/7/1 263/8/1
f 269/1/1 270/2/1 266/3/1 265/4/1
f 271/1/1 272/2/1 268/3/1 267/4/1
f 273/5/1 274/6/1 270/7/1 269/8/1
f 275/5/1 276/6/1 272/7/1 271/8/1
f 277/1/1 278/2/1 274/3/1 273/4/1
f 279/1/1 280/2/1 276/3/1 275/4/1
f 281/5/1 282/6/1 278/7/1 277/8/1
f 283/5/1 284/6/1 280/7/1 279/8/1
f 285/1/1 286/2/1 282/3/1 281/4/1
f 287/1/1 288/2/1 284/3/1 283/4/1
f 289/5/1 290/6/1 286/7/1 285/8/1
f 291/5/1 292/6/1 288/7/1 287/8/1
f 293/1/1 294/2/1 290/3/1 289/4/1
f 295/1/1 296/2/1 292/3/1 291/4/1
f 297/5/1 298/6/1 294/7/1 293/8/1
f 299/5/1 300/6/1 296/7/1 295/8/1
f 301/1/1 302/2/1 298/3/1 297/4/1
f 303/1/1 304/2/1 300/3/1 299/4/1
f 305/5/1 306/6/1 302/7/1 301/8/1
f 307/5/1 308/6/1 304/7/1 303/8/1
f 309/1/1 310/2/1 306/3/1 305/4/1
f 311/1/1 312/2/1 308/3/1 307/4/1
f 313/5/1 314/6/1 310/7/1 309/8/1
f 315/5/1 316/6/1 312/7/1 311/8/1
f 317/1/1 318/2/1 314/3/1 313/4/1
f 319/1/1 320/2/1 316/3/1 315/4/1
f 321/5/1 322/6/1 318/7/1 317/8/1
f 323/5/1 324/6/1 320/7/1 319/8/1
f 325/1/1 326/2/1 322/3/1 321/4/1
f 327/1/1 328/2/1 324/3/1 323/4/1
f 329/5/1 330/6/1 326/7/1 325/8/1
f 331/5/1 332/6/1 328/7/1 327/8/1
f 333/1/1 334/2/1 330/3/1 329/4/1
f 335/1/1 336/2/1 332/3/1 331/4/1
f 337/5/1 338/6/1 334/7/1 333/8/1
f 339/5/1 340/6/1 336/7/1 335/8/1

